<?xml version="1.0" encoding="utf-8"?>
<!-- Generator: Adobe Illustrator 24.3.0, SVG Export Plug-In . SVG Version: 6.00 Build 0)  -->
<svg version="1.1" id="Layer_1" xmlns="http://www.w3.org/2000/svg" xmlns:xlink="http://www.w3.org/1999/xlink" x="0px" y="0px"
	 viewBox="0 0 53.8 58.7" style="enable-background:new 0 0 53.8 58.7;" xml:space="preserve">
<path d="M10.1,8c-3.4,0.5-5.3,3.5-5.4,3.8c-3,4.6-0.3,10.8,1.2,14.2c2.6,5.8,5.4,8.4,11.2,15.3c2.7,3.2,6.5,8,10.7,14.1
	C30.6,51.5,54.2,20,49.9,9.1c-1.2-3-3.4-4.5-3.4-4.5c-4.4-3-11.5-0.3-15.2,2.3c-6.3,4.3-7.7,11.4-8.1,13.1c-0.4-1.9-1.5-5.9-5.1-8.9
	C16.6,9.9,13.8,7.3,10.1,8z"/>
<path d="M9.2,4.7c-3.6,0.8-6.9,3.5-8.2,7c-1.8,4.3-0.7,9.1,0.9,13.3c1.3,3.5,3.1,6.8,5.4,9.7c2.7,3.4,5.5,6.6,8.4,9.9
	c3.2,4.1,6.3,8.1,9.3,12.4c1.5,2.3,4.3,2,5.8,0c6.6-8.8,12.9-18.1,17.9-28.1c2.6-5.3,5.5-11.4,5.3-17.4c-0.1-3.4-1.8-6.8-4.4-9.1
	c-3.5-3-8.4-3.1-12.7-1.9C28,3.1,21.6,10.3,20.1,19.2c2.2,0,4.3,0,6.5,0c-0.8-3.7-2.6-7.2-5.3-9.7c-3-3-6.9-5.4-11.2-4.9
	C8.4,4.9,6.7,5.9,6.7,8c0,1.6,1.6,3.7,3.4,3.4c5.3-0.7,9,5.3,10,9.6c0.7,3.1,5.9,3.2,6.5,0c0.9-5.8,4.3-10.8,10.1-13.1
	c1.8-0.7,3.5-1.2,5.4-1.1c0.7,0,1.3,0.1,2,0.4c0.3,0.1,0.5,0.3,0.8,0.5c-0.1-0.1-0.5-0.5,0,0c0.8,0.9,1.6,1.8,2,3
	c0,0.1,0.1,0.4,0.1,0.7c0.3,0.7,0-0.8,0,0c0,0.5,0,1.1,0,1.6c0,0.3,0,0.5,0,0.8c-0.1,0.9,0.1-0.8,0,0.1c-0.1,0.5-0.1,1.1-0.3,1.6
	c-0.3,1.4-0.7,2.6-1.2,3.9c-0.9,2.7-2,4.9-3.5,7.7c-3,5.4-6.2,10.7-9.7,16c-2.4,3.7-4.9,7.2-7.5,10.5c1.9,0,3.9,0,5.8,0
	c-3.1-4.6-6.5-9.1-10-13.3c-2.8-3.5-6.2-6.9-8.8-10.4c-2.4-3.4-4.2-7.2-5-11.2c-0.4-1.9-0.3-3.7,0.8-5.4c0.1-0.4,0.3-0.3,0,0
	c0.3-0.3,0.5-0.7,0.9-0.9c0.7-0.5,1.5-0.9,2.4-1.1c1.8-0.5,2.8-2.6,2.3-4.3S11.1,4.3,9.2,4.7z"/>
</svg>
