<svg xmlns="http://www.w3.org/2000/svg" width="246.44" height="261.88" viewBox="0 0 246.44 261.88">
    <path fill="#231f20" d="M173.472 20.365a87.609 87.609 0 0 0-1.552-.713c-1.173-.968-3.259-2.385-6.213-3.844l-4.97-2.4-3.953-1.833-3.448-1.543-3.467-1.503-3.486-1.457-.538-.221-.142-.419c-1.059-.439-3.798-1.168-5.083-1.641-3.779-1.418-7.617-2.62-11.098-3.39-3.465-.784-6.555-1.133-8.744-1.173a43.73 43.73 0 0 0-3.15-.2c-1.509-.057-3.606-.053-6.222.133a59.863 59.863 0 0 0-4.773.646 57.32 57.32 0 0 0-5.004 1.149c-3.197.885-5.831 1.925-7.306 2.585-1.343.827-3.366 1.65-5.467 2.591-1.243.192-3.15.64-5.836 1.623-1.909.572-3.743 1.33-3.87 1.03 0 0 1.018-.482 2.454-1.032 1.43-.562 3.286-1.166 4.867-1.605 1.582-.441 2.882-.73 3.153-.84.275-.088-.496-.072-2.982.464 0 0-.498.099-.989.227l-.983.249-.177-.64s-.457.281-.9.588l-.878.61s-.488.142-.97.307l-.959.334-.114-.311c.12.328.098.27-1.778 1.036-.946.372-1.862.813-2.783 1.241l.92-.429-.14-.3c.927-.433 1.401-.625 1.386-.661-.018-.04-.523.074-1.526.36.11.237.132.284-.788.73l-.903.47-.306-.591.917-.473a47.51 47.51 0 0 1 6.738-2.662l.995-.297c.496-.15 1-.273 1-.273-.07-.264-1.287-.055-2.995.482-1.705.546-3.869 1.476-5.852 2.519-3.356 1.783-6.115 3.925-6.285 3.681-1.5 1.496-1.288 1.763-2.884 3.062a41.066 41.066 0 0 0-3.069 2.337 40.959 40.959 0 0 0-2.435 2.179 42.782 42.782 0 0 0-2.776 2.964c-.213.13-.383.24-.49.314-1.302.856-4.853 2.996-6.133 3.976-.777.559-2.607 2.415-3.365 3.015l-.759.603c-.25.205-.25.205-.291.669-.75.621-1.966 1.181-2.711 1.821l-.03.467c-1.479 1.284-1.92.79-1.972 1.716 0 0-.613.543-1.217 1.103l-1.21 1.112-.605.558-.596.574c-.238.23-.238.23-.469-.01l-.244.702-.816.794a64.506 64.506 0 0 0-1.78 1.795c-1.3 1.316-2.545 2.69-2.545 2.69l-.454.498-1.132 1.25-1.104 1.28-1.315 1.545c-.654.78-1.234 2.057-1.447 2.317-.647.783-1.61 2.61-1.806 2.887-3.387 5.094-5.416 9.069-6.8 11.438-.54.866-1.8 2.546-1.973 2.843.125.461-.039.763-.203 1.067l-.246.454-.235.466c-1.048 2.577-1.77 5.102-2.119 7.422l-.26.432c-1.627 2.74-3.081 5.718-4.074 8.02-1.003 2.312-1.545 3.884-1.545 3.884s-.707 1.943-1.266 3.819c-.578 1.89-1.025 3.69-1.025 3.69-.767 2.918-1.568 7.394-2.047 10.889l-.911 6.812c-.535 4.605-1.69 11.517-2.334 18.516-.324 3.481-.531 6.929-.57 9.912-.019 1.49-.005 2.86.02 4.032l.137 2.907.13 1.492.153 1.63c.104.983.287 2.31.462 3.63.22 1.331.444 2.669.635 3.665l.375 1.648c.594 3.839 2.73 10.902 5.738 17.339 2.956 6.502 6.732 12.098 8.521 15.158 5.679 8.87 12.214 16.532 18.916 23.281a223.17 223.17 0 0 0 10.163 9.59c1.705 1.532 3.4 2.972 5.103 4.44l4.895 4.108 1.651 1.395-.214.254 2.217 1.875 2.487 2.058c1.567 1.339 3.945 3.431 7.97 6.156 2 1.344 4.4 2.812 7.165 4.226a77.094 77.094 0 0 0 4.374 2.045c1.473.603 2.79 1.179 4.483 1.776 3.206 1.185 7.196 2.407 11.692 3.201 4.481.815 9.26 1.142 13.653 1.121 4.424-.014 8.548-.298 12.643-.64l6.158-.574 6.439-.665c1.118-.163 2.548-.33 4.249-.667l2.67-.61c.847-.22 1.66-.462 2.553-.72 3.406-1.036 6.684-2.322 9.694-3.617 5.384-2.295 9.754-4.444 13.744-6.33 1.986-.944 3.851-1.824 5.595-2.615l2.53-1.127.607-.265.767-.347 2.057-.977c2.792-1.279 5.192-2.705 7.572-4.093 1.172-.702 2.223-1.437 3.308-2.148 1.071-.717 2.142-1.42 3.084-2.154 1.939-1.447 3.819-2.861 5.448-4.288l2.448-2.09 2.206-2.057c7.26-6.88 11.909-12.705 15.133-16.84 3.201-4.142 4.945-6.6 5.455-7.065.51-.465 2.186-2.578 4.764-6.526 1.262-1.998 2.789-4.416 4.422-7.411.842-1.47 1.682-3.121 2.576-4.888.228-.456.443-.857.688-1.379.254-.56.511-1.13.772-1.71.512-1.158 1.052-2.359 1.559-3.597 1.13-3.035 1.66-4.571 1.348-4.674l.417-.708.386-.706.897-3.04.27-1.563.198-1.544.544-2.351c.359-1.421.65-3.268.983-5.135.357-1.874.532-3.697.716-5.084l.201-1.669c.053-.405.061-.63.061-.63l.38-5.002.164-5.064a264.054 264.054 0 0 0-.06-5.733c-.098-1.927-.16-3.869-.305-5.659-.157-1.787-.281-3.464-.444-4.884l-.42-3.421c-.1-.828-.17-1.296-.17-1.296-.158-1.02-.406-2.463-.702-4.114-.31-1.648-.73-3.488-1.127-5.332-.453-1.833-.9-3.664-1.329-5.28l-1.107-4.014-.192-.664c-.122-.412-.288-.96-.453-1.508-.336-1.095-.67-2.191-.67-2.191l-.746-2.144c-.376-1.072-.764-2.136-.764-2.136l-1.103-2.787-.488-1.189-1.36-3.073c-.574-1.263-1.292-2.691-2.049-4.238-.805-1.492-1.63-3.133-2.537-4.674-1.768-3.144-3.688-6.11-5.158-8.292-.724-1.107-1.366-1.972-1.802-2.599l-.692-.975c-4.89-6.718-9.323-11.757-13.078-15.693-3.742-3.927-6.913-6.804-9.434-8.947-7.551-6.464-14.222-11.078-19.639-14.278"/>
    <path fill="#fff" d="M40.156 199.837s-.612-.63-1.184-1.31l-1.155-1.34-.77-.897-1.148-1.346-1.104-1.395c.991.733 1.984 1.44 2.758 2.314l-.254.214 1.02.675c1.02.67 1.767 1.572 2.328 2.639zm-3.092 11.226c-1.12-.608-3.683-3.383-4.281-4.526l-.85-.92c-.416-.48-.83-.961-.83-.961-.83-.962-1.082-.745-1.334-.53-.416-.483-.977-1.262-1.502-2.066a19.056 19.056 0 0 1-1.26-2.297l-.999-1.264-1.022-1.298c-.359-.496-.743-1.025-1.126-1.556l-2.096-2.928-.907-1.39-1.437-2.244c-.737-1.103-1.104-2.464-1.763-3.631.963 2.553-1.847-2.028-4.712-9.275-.66-1.842-1.468-3.754-2.031-5.854-.62-2.068-1.263-4.17-1.687-6.306-1.059-4.209-1.59-8.337-2.031-11.384.345-.025.424 1.33.62 2.708.154-1.412.657-.071 1.166 1.24l.094.702.314 1.86c.22 1.548.77 3.557 1.227 5.585l.368 1.507.446 1.425.802 2.523c.45 1.488.85 2.426.85 2.426.366.955.825 2.148 1.33 3.46.467 1.34 1.154 2.674 1.756 4.075l.935 2.061.995 1.894c.647 1.21 1.238 2.316 1.742 3.174l.284-.172c1.064 1.648 2.027 3.38 3.12 5.191 1.133 1.757 2.266 3.778 3.748 5.845l1.053.798-.26.206c-.26.207-.258.21.796 1.004.787 1.019 1.883 1.715 2.696 2.68l.573 1.174.7 1.065.724 1.026c.842.911 1.447 2.054 2.299 2.971-.61-1.145-.608-1.144-.366-1.372l1.273 1.363c.648.656 1.294 1.313 1.294 1.313l-.862-.876-.24.232zM8.709 122.845c.481-2.173 1.034-4.138 1.2-4.109l.502-1.093c.344.064-.595 5.689-1.627 11.733-.328-.036-.196-1.256-.038-2.447-.153 1.198-.483 1.158-.813 1.118-.088-.62.296-3.026.776-5.202zm2.744 13.559c.198-2.763.494-5.456.494-5.456.986.104.412 2.464-.018 3.655l.144 2.46.19 2.478c-.045 1.242-.043 1.24-.416 2.47l-.35 1.252.019-1.259-.333-.008s.07-2.83.27-5.592zm2.625 18.168l.182 1.792c.158 1.072.305 2.525.607 3.945.292 1.427.586 2.852.805 3.92.1.54.23.974.318 1.278l.135.48c-.316.093-.324.096-.701-1.144l-.624-1.184a96.906 96.906 0 0 1-.89-4.088 35.332 35.332 0 0 1-.296-2.824c-.035-1.469.136-2.135.464-2.175zm6 26.187c-.286-.672-.698-1.464-1.18-2.312l-1.54-2.694a40.86 40.86 0 0 1-1.298-2.846c-.277.097.57 2.645 2.344 6.138-.365-.184-.82-.693-1.347-1.494-.55-.785-1.098-1.91-1.668-3.306-.57-1.393-1.246-3.008-1.733-4.942-.265-.955-.532-1.964-.797-3.019-.275-1.052-.416-2.201-.623-3.364l-.609-2.625s-.054-.679-.082-1.358l-.064-1.355s.212 1.327.471 2.645l.607 2.617.324-.078c.035-1.377-.37-2.653-.941-6.6l-.171-1.307c-.091-.655-.154-1.306-.154-1.306.31-.03 1.136 3.825 1.504 3.767 0 0-.04 1.336-.029 2.681l.114 2.69c.306 1.298.63 1.214 1.272 1.05-.087 1.38.468 3.966 1.568 6.368l.627-.221c.432 1.221.152 1.323-.48 1.56.794 1.099.793 1.093 1.103.973l.966 2.402c.793 1.069 1.393 2.189 1.679 2.057l.813 2.444c.194.621.423 1.219.607 1.659l.297.742s-.811-1.36-1.48-2.828c-.698-1.446-1.394-2.893-1.394-2.893-.292.13.225 1.31 1.665 4.921l2.234 4.631c-.297.18-1.9-3.355-2.19-3.193.06-.402-.105-.951-.415-1.604zm-6.575-59.136l.693-4.54c.195-3.414.387-4.584.715-4.531.326.055.469 1.261.293 2.384l-.526 3.368c.328.048.502-1.068.678-2.192.327.05.327.05.152 1.175l-.174 1.118c.252-.54.553-2.486.914-4.753.357-2.27.82-4.93 1.344-6.701l-.65-.13c.736-3.629 1.106-4.912 1.75-6.062.319.088-.02 1.329-.308 2.556.327.074.313.08.625-1.15l.644.164.322-1.221c.655-1.13.662-1.127.98-1.035-.178.606-.45 2.495-.578 4.188a71.09 71.09 0 0 0-.18 3.208c.328.064.321.067.566-1.102l.852-2.283.968.23-.106 1.202-.09 1.192c-.27 1.16-.459 5.881-1.126 10.328.329.052.655.103.831-1.016l.985.155c.175-1.116.356-2.239.03-2.292.506-1.067 1.026-2.134.898-3.316.97-3.316 1.055-2.123.457 1.238-.383 2.239-.223 3.408-.072 4.578-.525 3.344-.871 5.576-1.525 7.77.49-1.076 1.321-4.378 2.029-8.836.801 1.27 1.522-3.178 1.86-3.116l-.724 4.439-.693 4.455c-.327-.05-.503 1.065-.665 2.181l-.164 1.116.171 1.156-.306 2.23c-.328-.043-.335-.045-.178-1.16-.336-.046-.627 2.19-.953 2.15.18 1.16.06 2.275.389 2.313-.163 1.112-.891 5.56-.955 6.689l-.335-.682c.071.441.105 1.119.27 1.806-.076 1.123-.432 2.23-1.136 3.346 0 0 .065.57.15 1.138l.158 1.137c.325 1.134.7 2.246.4 3.381.318-.016.249-3.381.604-2.263l.098 3.635c-.004.843-.03 1.405-.143 1.98l-.1-1.12-.063-1.123c-.395-1.105-.395-1.113-.663.038l.063 1.133.102 1.13-.433-1.106-.727-1.1c-.349.021.148 2.297-.163 2.324l.33-.03.167 1.717.223 1.712.18-1.183c.178-1.17.203-1.168.527-1.203 0 0 .054.563.133 1.124l.147 1.123-.091.588-.07.588.16 1.239c.072.75.286 1.725.47 2.71.188.986.377 1.971.52 2.71.17.733.316 1.213.316 1.213.358 1.388.678 2.644 1.012 3.781l1.123 3.07.524 1.364.587 1.245 1.133 2.363s.361.784.802 1.525l.845 1.502c.293 1.151-.332.189-1.942-2.878l-1.254-2.599c-.322-.646-.625-1.301-.811-1.811l-.337-.838c-.149.06-.024.638.406 1.875l.973 2.33c.405.952.86 2.109 1.528 3.398l-.292.158s-.44-.756-.846-1.533l-.764-1.581c-.506-1.048-1.316-1.966-1.923-1.696l.952 3.504.556.385c.27.196.573.37.573.37l1.737 3.087c.419.783.9 1.523 1.258 2.078.358.557.595.93.595.93l-.916-.817c-.92-.82-1.208-.655-.846.526l-.301-.471c-.18-.283-.429-.654-.642-1.05l-.883-1.567c-.88-.887-1.178-2.098-.883-2.25-.562-1.057-.83-.925-1.135-.77-.39-.485-.272.145.586 1.742l1.748 3.179c.762 1.3 1.764 2.794 2.892 4.57l-.276.186c-.411.281-.768-.579-1.407-1.96a34.295 34.295 0 0 0-1.21-2.397 18.82 18.82 0 0 0-1.778-2.87c-.293.158.016 1.385.616 2.448l.149.58c.083.354.217.808.362 1.256l.568 1.812 1.052 2.248c.274-.185.264-.176.977.81l.709.991c-.267.191-.988-.794-1.686-1.801-.138.093-.541-.378-1.326-1.524a99.52 99.52 0 0 1-1.478-2.24c-.582-.937-1.212-2.11-1.982-3.464l-.61-1.09s-.163-.265-.294-.553l-.275-.566-1.282-2.656c-.192-.4-.4-.83-.618-1.288l-.604-1.49-1.296-3.244c-.4-1.122-.742-2.273-1.088-3.34-.332-1.072-.68-2.058-.86-2.945l-.69-2.925.326-.07c-.742-3.11-1.008-5.65-1.261-7.365-.202-1.719-.37-2.655-.532-2.641.164-2.534.105-4.995-.217-6.23.348.003.293-1.247.44-4.89-.667-.035-1.038 1.181-1.078 2.408l-.58-2.486c.64-6.12.947-10.818-.226-12.168-.189-1.237.96-4.629 1.133-5.766zm12.557-12.988c.326.065.107 1.172-.093 2.284-.325-.058-.128-1.174.093-2.284"/>
    <path fill="#231f20" d="M17.275 149.31l.012-.062c-.101.067-.223.075-.345.081l.333-.018M22.792 169.67a8.381 8.381 0 0 0-.376-.546c-.252.093-.09.048.376.546M22.097 136.596l.244.492c-.048-.292-.112-.483-.244-.492"/>
    <path fill="#231f20" d="M22.068 127.473l-.747 3.342c-.585 2.228-.971 5.641-1.136 10.246-.376 1.135-.406 2.297-.386 4.616l-.332.005c.026 1.746.17 2.908.343 3.629.166.72.348.997.513.985 0 0-.048-.867-.098-1.733-.06-.868-.067-1.734-.067-1.734.664-.02.996-.026.637-1.166.31-1.151.331-1.147-.008-1.147l-.324-1.15c.346-1.145.68-2.282 1.22-5.663l-.248-1.158.09-1.129.822-3.34c.433-1.661.895-3.309.895-3.309l-.536-3.498c-.157 1.123-.313 2.247-.638 2.204M14.504 119.439l-.184 3.477c.335-2.3.513-3.425.184-3.477M17.287 149.248c.177-.112.294-.397.252-1.154l-.252 1.154M17.45 151.719s.114 1.505.332 3.013c.095.753.197 1.507.304 2.07a4868.472 4868.472 0 0 1 .265 1.542c.046.303.118.6.118.6-.237-1.201-.096-2.464.883-2.615 0 0-.107-.59-.176-1.182l-.154-1.183-.33.04-.502 1.281-.157-1.2c-.173-1.196-.239-2.394-.582-2.366M14.482 136.019c.177-2.395.325-3.562-.014-3.6-.35 3.557-.397 4.78.014 3.6M9.56 121.04c-.343 2.308-.5 3.512-.332 4.735.48-3.55.665-4.68.333-4.735M18.83 146.866l-.36-1.17-.303 1.19.367 1.165.297-1.185M23.61 171.215l.444 1.105c.305-.132.61-.264.17-1.359l-1.055-.846a5.27 5.27 0 0 0-.377-.445c.52.81.818 1.545.818 1.545M22.889 166.44c-.673-1.019-.991-.924-1.308-.824.364 1.145 1.352 2.055 1.308.824M20.336 156.172c-.164.027-.278.344-.3.95-.031.606.04 1.5.332 2.654.334-.075.33-1.276-.032-3.604M19.947 128.35c.47-1.098.626-2.227.785-3.358l.665-4.499-.311-2.338c-.495 1.062-1.043 4.42-1.652 8.97.183 1.184.184 1.183.513 1.224M19.311 134.068c.112-1.15.224-2.3-.1-2.334l-.118 1.15c-.113 1.153-.113 1.153.218 1.184"/>
    <path fill="#231f20" d="M14.29 149.482c.33-.02.614 2.458 1.147 5.24.242 1.393.59 2.856.915 4.117.365 1.25.757 2.289 1.056 2.86-.007.644.245 1.88.632 2.905.407 1.02.849 1.86 1.006 1.81l.583-1.46-.203-1.214c-.06-.617-.122-1.233-.122-1.233-.322.083-.323.078-.358 1.365l-.32.088c.033-1.294.035-1.284-.572-2.413l-.324.076c.036-.65-.138-1.882-.33-3.418-.201-1.539-.465-3.361-.83-5.176l-.221-2.444c.331-.024.48-.338.478-1.097-.01-.759-.155-1.96-.348-3.763.976-.02.994-2.396-.009-1.204l-.32-1.805-.28-1.805c.336.012.339-1.196.598-4.741l.424-1.146.219-2.34c.663.068.986.1.78-1.093l-.992-.107c.135-1.161.589-2.281.742-3.427-.326-.038-.52-1.242-.356-2.385.159-1.144.159-1.145-.329-.044l-.286 3.477c-.123 1.752-.22 3.513-.22 3.513l-.33-.033c-.442 1.144-.456 1.14-.552 2.327.331.028.662.054.238 1.207-.099 1.177-.676 4.741-.664 8.404-.65 2.445-.929 3.712-.851 4.959"/>
    <path fill="#fff" d="M174.448 84.747h-15.287c-4.785 0-5.37.59-10.917 6.176-2.79 2.802-48.821 49.161-48.821 49.161V62.717c0-2.598-1.42-4.029-4.028-4.029H71.991c-2.608 0-4.03 1.43-4.03 4.03v10.4c0 2.626 1.422 4.049 4.03 4.049h8.563v95.425h-8.52c-2.605 0-4.027 1.421-4.027 4.02v10.405c0 2.608 1.422 4.077 4.028 4.077h35.798c2.61 0 4.042-1.422 4.042-4.03v-10.41c0-2.626-1.431-4.062-4.042-4.062h-8.41v-7.719l18.33-18.617 32.271 39.445c4.244 5.393 4.244 5.393 10.455 5.393h13.938c2.592 0 4.019-1.422 4.019-4.03v-10.41c0-2.609-1.427-4.026-4.019-4.026h-11.493l-32.104-39.62 29.341-29.747h14.287c2.65 0 4.032-1.305 4.032-3.877V88.785c0-2.608-1.428-4.038-4.032-4.038"/>
</svg>