<?xml version="1.0" encoding="utf-8"?>
<!-- Generator: Adobe Illustrator 24.3.0, SVG Export Plug-In . SVG Version: 6.00 Build 0)  -->
<svg version="1.2" baseProfile="tiny" id="Layer_1" xmlns="http://www.w3.org/2000/svg" xmlns:xlink="http://www.w3.org/1999/xlink"
	 x="0px" y="0px" viewBox="0 0 139.26 171.48" overflow="visible" xml:space="preserve">
<g id="luke24">
	<path fill="#D9D4CB" d="M72.67,54.15c-1.73-7.76,10.43-14.62,17.11-23.44c0.4-0.52,1.48-1.96,3.23-2.29
		c1.87-0.35,3.52,0.86,4.14,1.3c3.84,2.74,7.98,5.04,11.81,7.81c8.38,6.05,13.38,6.39,13.98,10.65c0.13,0.9-0.04,1.63-0.38,3.09
		c-1.07,4.67-3.32,6.24-7.99,12.53c-3.53,4.77-2.79,2.79-8.73,9.43c-2.8,3.14-3.04,3.52-3.9,3.77c-4.05,1.19-7.52-4.76-16.9-12.62
		C75.9,56.73,73.44,57.57,72.67,54.15z"/>
	<g>
		<path fill="#D9D4CB" d="M111.46,37.52c-1.12-8.42-0.03-18.07,6.78-23.97c1.86-1.61,4.33-2.81,6.81-2.82
			c2.28-0.01,4.78,0.99,5.62,3.28c0.73,1.98,0.18,4.32-0.67,6.19c-1.02,2.24-2.91,3.89-4.83,5.34c-5.18,3.89-10.92,7.07-16.89,9.57
			c-1.24,0.52-2.14,1.65-1.75,3.08c0.32,1.17,1.82,2.27,3.08,1.75c6.27-2.62,12.3-5.78,17.77-9.84c2.53-1.88,5-3.87,6.57-6.66
			c1.46-2.59,2.3-5.81,1.94-8.78c-0.46-3.87-2.98-6.8-6.58-8.17c-3.46-1.32-7.25-0.72-10.54,0.81c-5.73,2.67-9.6,8.57-11.33,14.48
			c-1.49,5.07-1.7,10.55-1,15.76c0.18,1.34,1.02,2.5,2.5,2.5C110.17,40.02,111.64,38.87,111.46,37.52z"/>
	</g>
	<g>
		<path fill="#DFB85A" d="M59.39,49.28c-15.48,0.07-26.55,21.38-38.55,44.45c-8.97,17.26-10.65,28.98-14.02,52.42
			c-0.71,4.94-1.57,12.25,2.62,16.02c4.31,3.89,12,2.25,19.88-0.3c32.06-10.37,53.49-31.39,54.53-32.43
			c14.7-14.72,30.34-30.38,26.12-43.88c-0.54-1.73-1.76-4.54-21.35-18.62C72.21,55.15,63.92,49.26,59.39,49.28z"/>
		<g>
			<path fill="#DFB85A" d="M59.39,46.78C47.25,46.94,38.81,57.89,32.8,67.15c-4.13,6.36-7.71,13.07-11.22,19.78
				c-3.18,6.07-6.32,12.13-8.73,18.55c-4.41,11.75-6.16,24.24-7.94,36.6c-0.89,6.15-2.48,13.26,0.61,19.06
				c3.56,6.68,11.75,6.38,18.12,4.94c7.4-1.67,14.62-4.57,21.5-7.72c5.99-2.74,11.79-5.89,17.36-9.39
				c7.44-4.67,14.59-9.93,21.1-15.84c2.49-2.26,4.82-4.69,7.17-7.09c5.53-5.63,11-11.41,15.52-17.89
				c3.62-5.19,6.83-11.29,6.89-17.77c0.02-2.52-0.36-5.47-1.8-7.65c-1.36-2.05-3.24-3.74-5.08-5.34c-4.36-3.79-9.03-7.24-13.7-10.64
				c-5.91-4.31-11.84-8.6-17.91-12.69c-3.61-2.43-7.32-4.93-11.41-6.48C62.04,47.11,60.71,46.79,59.39,46.78
				c-3.22-0.02-3.22,4.98,0,5c0.23,0,0.46,0.04,0.7,0.04c-0.77-0.01-0.06,0,0.29,0.08c0.62,0.15,1.21,0.36,1.8,0.58
				c0.26,0.1,0.41,0.18,0.04,0.01c0.17,0.07,0.33,0.15,0.5,0.22c0.39,0.18,0.77,0.36,1.14,0.56c0.83,0.43,1.64,0.88,2.45,1.36
				c4.77,2.8,9.28,6.06,13.79,9.26c5.75,4.09,11.53,8.17,17.11,12.49c2.92,2.27,5.88,4.58,8.46,7.24c0.34,0.35,0.67,0.7,0.98,1.07
				c0.09,0.11,0.51,0.63,0.19,0.22c-0.32-0.41,0.06,0.08,0.14,0.2c0.15,0.23,0.29,0.45,0.42,0.69c0.05,0.09,0.08,0.2,0.14,0.28
				c0.22,0.35-0.21-0.71-0.12-0.28c0.34,1.58,0.75,2.78,0.75,4.4c0,2.58-0.69,5.17-1.72,7.6c-2.64,6.21-7.11,11.61-11.57,16.59
				c-4.18,4.68-8.59,9.19-13.09,13.56c-1.48,1.44-3.04,2.82-4.62,4.16c-3.22,2.74-5.96,4.85-9.36,7.28
				c-9.92,7.08-20.68,13.12-32.06,17.54c-3.42,1.33-6.89,2.54-10.42,3.54c-3.25,0.92-6.69,1.77-10.1,1.46
				c-2.42-0.22-4.51-1.36-5.56-3.61c-1.09-2.35-1.04-5.17-0.87-7.7c0.21-3.09,0.74-6.05,1.2-9.19c0.49-3.4,1-6.8,1.56-10.18
				c0.93-5.63,2.01-11.25,3.57-16.74c3.49-12.32,9.77-23.64,15.97-34.77c3.21-5.75,6.58-11.53,10.7-16.69
				C45.06,59,48.78,55.1,53.59,53c1.71-0.75,3.85-1.19,5.8-1.22C62.6,51.74,62.61,46.74,59.39,46.78z"/>
		</g>
	</g>
</g>
<text transform="matrix(1 0 0 1 22.5755 125.8668)" font-family="'ArialMT'" font-size="64.5043px">24</text>
</svg>
