<?xml version="1.0" encoding="utf-8"?>
<!-- Generator: Adobe Illustrator 24.3.0, SVG Export Plug-In . SVG Version: 6.00 Build 0)  -->
<svg version="1.2" baseProfile="tiny" id="Layer_1" xmlns="http://www.w3.org/2000/svg" xmlns:xlink="http://www.w3.org/1999/xlink"
	 x="0px" y="0px" viewBox="0 0 800.33 93.87" overflow="visible" xml:space="preserve">
<path fill="#6CAB85" d="M10.4,56.33c7.13-0.87,14.22-2.04,21.25-3.55c6.44-1.39,12.83-3.07,19.11-5.05
	c5.81-1.83,11.54-3.93,17.16-6.29c5.16-2.17,10.22-4.56,15.17-7.17c4.68-2.47,9.26-5.14,13.71-8.01c0.77-0.5,1.54-1,2.31-1.51
	c0.41-0.27,0.03-0.93-0.38-0.66c-4.59,3.05-9.32,5.9-14.16,8.53c-4.86,2.64-9.83,5.05-14.9,7.25c-5.5,2.39-11.12,4.51-16.82,6.38
	c-6.17,2.03-12.44,3.76-18.78,5.21c-6.91,1.58-13.9,2.83-20.93,3.76c-0.91,0.12-1.82,0.24-2.73,0.35
	C9.92,55.63,9.92,56.39,10.4,56.33L10.4,56.33z"/>
<g>
	<path fill="#6CAB85" d="M90.55,29.24c1.38-2.06,1.96-3.84,2.23-5.09c0.27-1.26,0.55-2.64,1.57-4.01c0.39-0.52,1-1.01,1.64-0.85
		c0.52,0.13,0.78,0.74,0.84,0.9c0.61,1.45-0.53,3.26-1.2,4.29C94.86,25.67,93.35,27.59,90.55,29.24z"/>
</g>
<g>
	<path fill="#6CAB85" d="M88.04,30.5c5.24-1.02,8.77-2.67,11.06-4.04c1.39-0.83,3.36-2.16,4.58-1.43c0.77,0.46,1.13,1.69,0.78,2.56
		c-0.53,1.31-2.6,1.56-4.45,1.77C96.89,29.71,92.85,30.12,88.04,30.5z"/>
</g>
<g>
	<path fill="#6CAB85" d="M70.3,38.82c0-4.52,1.4-7.96,1.4-7.96c1.13-2.77,2.02-3.75,2.68-4.2c0.84-0.57,1.6-0.86,2.26-0.86
		c0.35,0,0.67,0.08,0.94,0.24c0.91,0.53,1.03,1.71,1.05,2.19c0.04,1.71-1.12,2.83-2.46,4.12c-0.83,0.8-0.69,0.61-1.21,1.21
		c-1.35,1.57-1.81,3.06-3.49,5.51c-0.25,0.36-0.64,0.91-0.9,0.83C70.32,39.83,70.3,39.2,70.3,38.82z"/>
</g>
<g>
	<path fill="#6CAB85" d="M77.07,36.92c2.96-0.77,9.19-2.03,12.9,0.45c0.61,0.41,3.04,2.03,2.7,3c-0.04,0.13-0.16,0.33-0.59,0.5
		c-2,0.81-5.18-1.4-8.51-2.65C82.12,37.66,79.95,37.05,77.07,36.92z"/>
</g>
<path fill="#6CAB85" d="M56.4,45.73c4.17-0.69,8.48-0.86,12.65-0.08c1.25,0.23,2.48,0.58,3.7,0.92c1.75,0.49,3.52,0.96,5.29,1.37
	c2.53,0.6,5.09,1.11,7.66,1.54c0.48,0.08,0.68-0.65,0.2-0.73c-4.22-0.71-8.4-1.65-12.53-2.79c-1.24-0.35-2.48-0.71-3.75-0.96
	c-1.75-0.35-3.53-0.54-5.3-0.6c-2.72-0.08-5.44,0.16-8.12,0.6C55.72,45.07,55.92,45.81,56.4,45.73L56.4,45.73z"/>
<g>
	<path fill="#6CAB85" d="M85.56,48.56c2.08-0.06,3.6,0.25,4.77,0.65c0.95,0.32,1.92,0.66,2,1.31c0.05,0.39-0.23,0.84-0.59,1.05
		c-0.48,0.27-1.05,0.09-1.32,0c-1.14-0.37-3.86-1.36-7.44-2.74C83.65,48.7,84.53,48.59,85.56,48.56z"/>
</g>
<g>
	<path fill="#6CAB85" d="M74.2,46.16c3.23-1.52,5.89-1.8,7.57-1.8c0.39,0,4.36-0.02,4.59,1.06c0.08,0.37-0.32,0.75-0.47,0.89
		c-1.33,1.25-3.55,0.52-8.03,0.09C76.45,46.26,75.21,46.19,74.2,46.16z"/>
</g>
<g>
	<path fill="#6CAB85" d="M64.98,44.8c2.24,1.65,3.8,3.25,4.82,4.44c2.27,2.64,3.42,5,5.5,5.09c0.17,0.01,1.27,0.06,1.65-0.56
		c0.07-0.11,0.34-0.62-0.35-1.84c-1.15-2.03-3.27-3.06-4.46-3.64C69.27,46.89,66.93,45.75,64.98,44.8z"/>
</g>
<g>
	<path fill="#6CAB85" d="M53.82,46.94c0.64-1.22,3.08-5.81,5.43-8.65c0.37-0.45,1.09-1.28,2.25-1.55c1.07-0.25,2.52-0.03,2.82,0.69
		c0.29,0.7-0.52,1.73-2.27,3.36C60.32,42.42,57.66,44.65,53.82,46.94z"/>
</g>
<g>
	<path fill="#6CAB85" d="M43.98,49.14c4.56,0.88,7.97,0.46,10.27-0.09c2.74-0.66,5.26-1.87,6.79-0.61c0.68,0.56,1.15,1.58,0.85,2.28
		c-0.49,1.16-2.91,1.14-4.91,1.13c-2.18-0.02-3.94-0.33-5.79-0.74C49.36,50.7,46.89,50.09,43.98,49.14z"/>
</g>
<g>
	<path fill="#6CAB85" d="M36.5,51.36c1.99-2.07,3.9-3.49,5.33-4.41c0.68-0.44,3.23-2.06,5.95-2.13c1.06-0.03,1.48,0.19,1.64,0.48
		c0.3,0.55-0.31,1.38-0.35,1.43C48.11,48,46,47.95,45.25,47.96C43.29,47.99,40.42,48.63,36.5,51.36z"/>
</g>
<g>
	<path fill="#6CAB85" d="M77.57,36.56c-0.11-0.59,7.2-2.59,15.12-3.08c7.49-0.46,10.38,0.74,11.94,2.64
		c0.23,0.28,1.27,1.54,0.87,2.25c-0.77,1.36-5.98-1.17-12.77-2.16C83.75,34.9,77.67,37.11,77.57,36.56z"/>
</g>
<path fill="#6CAB85" d="M99.1,26.47"/>
<path fill="#6CAB85" d="M80.73,35.67"/>
<path fill="#6CAB85" d="M72.35,41.12"/>
<path fill="#6CAB85" d="M84.67,32.55c4.36,0.25,8.75,0.05,13.05-0.7c1.96-0.34,3.88-0.81,5.79-1.35c1.92-0.54,3.82-1.02,5.81-1.24
	c1.5-0.16,2.99-0.22,4.49-0.09c1.45,0.13,2.89,0.35,4.33,0.49c2.75,0.26,5.54,0.4,8.3,0.45c3.88,0.06,7.76-0.24,11.61-0.76
	c0.64-0.09,1.28-0.18,1.92-0.27c0.48-0.07,0.28-0.81-0.2-0.73c-4.1,0.62-8.25,1.02-12.4,1.01c-2.62,0-5.26-0.15-7.88-0.34
	c-2.94-0.21-5.86-0.83-8.81-0.63c-2,0.13-3.97,0.46-5.91,0.98c-1.99,0.53-3.96,1.12-5.98,1.52c-4,0.8-8.08,1.11-12.15,1
	c-0.66-0.02-1.32-0.05-1.99-0.08C84.18,31.76,84.18,32.52,84.67,32.55z"/>
<g>
	<path fill="#6CAB85" d="M111.99,28.71c2.75,2.32,5.28,3.77,7.1,4.66c1.22,0.6,6.57,3.25,7.52,2.03c0.46-0.59-0.29-1.85-0.42-2.05
		c-0.49-0.79-1.33-1.45-4.35-2.26c-2.18-0.59-3.15-0.63-5.15-1.05C114.81,29.64,113.22,29.15,111.99,28.71z"/>
</g>
<path fill="#6CAB85" d="M121.71,29.88c4.31-1.48,8.68-2.78,13.05-4.05c3.97-1.16,7.98-2.27,12.07-2.89
	c3.48-0.53,7.04-0.65,10.52-0.09c2.37,0.38,4.61,1.18,6.89,1.88c4.07,1.25,8.22,2.27,12.38,3.2c0.38,0.09,0.77,0.17,1.15,0.25
	c0.48,0.1,0.68-0.63,0.2-0.73c-4.17-0.9-8.33-1.91-12.42-3.12c-2.28-0.67-4.53-1.54-6.86-2.01c-3.48-0.7-7.05-0.75-10.57-0.32
	c-4.01,0.49-7.94,1.49-11.82,2.59c-4.6,1.31-9.2,2.67-13.73,4.19c-0.36,0.12-0.72,0.24-1.07,0.37
	C121.04,29.31,121.24,30.04,121.71,29.88L121.71,29.88z"/>
<g>
	<path fill="#6CAB85" d="M188.05,28.03c0.19-0.14,0.73-0.56,0.98-1.27c0.08-0.23,0.21-0.61,0.04-0.95c-0.13-0.28-0.4-0.4-0.49-0.45
		c-1.55-0.75-5.45,0.54-5.45,0.54c-4.89,1.61-5.27,1.66-5.26,1.91c0.05,1.1,7.15,1,7.6,0.99C185.9,28.79,187.06,28.76,188.05,28.03z
		"/>
</g>
<g>
	<path fill="#6CAB85" d="M129.04,26.88c4.61-3.95,8.24-6.99,10.48-8.99c0,0,2.26-2.01,4.54-1.99c0.62,0.01,0.84,0.22,0.93,0.32
		c0.39,0.5-0.09,1.45-0.27,1.82C143.6,20.29,131.86,25.62,129.04,26.88z"/>
</g>
<g>
	<path fill="#6CAB85" d="M154.83,21.9c4.85-1.13,8.87-1.35,11.83-1.3c4.22,0.07,6.92,0.7,7.44-0.4c0.53-1.11-1.39-3.51-3.69-4.45
		c-2.45-1-4.84-0.14-7.33,0.8C161.13,17.28,158,18.77,154.83,21.9z"/>
</g>
<g>
	<path fill="#6CAB85" d="M156.64,22.7c4.84,4.79,7.78,7.64,11.74,8.42c1.4,0.28,3.75,0.45,4.06-0.3c0.13-0.33-0.16-0.73-0.28-0.88
		c-1.49-2.03-13.56-6.91-16.29-8C156.04,22.1,156.31,22.37,156.64,22.7z"/>
</g>
<g>
	<path fill="#6CAB85" d="M109.74,28.84c1.59-1.62,3.99-3.75,7.3-5.63c0.47-0.27,7.92-4.46,9.27-2.83c0.48,0.58,0.09,1.78-0.43,2.52
		c-1.44,2.06-4.52,1.43-8.32,2.24C115.56,25.57,112.82,26.52,109.74,28.84z"/>
</g>
<path fill="#6CAB85" d="M148.33,30.04c-0.55,0-1.13-0.01-1.71-0.02c-2.28-0.04-4.58-0.28-6.85-0.71l-1.97-0.37l1.84-0.78
	c2.08-0.88,4.21-1.65,6.33-2.29c2.12-0.63,3.49-0.92,4.46-0.92c0.77,0,1.33,0.17,1.84,0.55c0.89,0.67,1.58,1.98,1.18,2.99
	C152.95,29.78,151.12,30.04,148.33,30.04z"/>
<path fill="#6CAB85" d="M218.13,32.48c3.61,0.58,7.15,1.63,10.41,3.31c3.05,1.57,5.81,3.62,9.07,4.78c1.91,0.68,3.91,1.05,5.92,1.23
	c1.13,0.1,2.26,0.05,3.39,0.01c3.79-0.15,7.61-0.04,11.39,0.23c4.28,0.31,8.52,1.05,12.68,2.11c0.47,0.12,0.68-0.61,0.2-0.73
	c-3.84-0.98-7.74-1.68-11.68-2.04c-1.89-0.17-3.79-0.24-5.69-0.31c-1.92-0.07-3.83-0.12-5.74-0.07c-1.19,0.04-2.38,0.11-3.57,0.08
	c-1.77-0.05-3.57-0.34-5.27-0.81c-1.82-0.5-3.53-1.28-5.18-2.2c-1.49-0.83-2.93-1.77-4.43-2.59c-3.5-1.92-7.34-3.13-11.28-3.76
	C217.86,31.67,217.65,32.41,218.13,32.48L218.13,32.48z"/>
<path fill="#6CAB85" d="M243.28,41.41c2.95-2.07,5.59-3.3,7.47-4.04c1.27-0.5,6.83-2.68,7.67-1.38c0.41,0.63-0.45,1.82-0.6,2.01
	c-0.56,0.74-1.46,1.33-4.53,1.88c-2.22,0.4-3.19,0.35-5.22,0.61C246.17,40.73,244.55,41.08,243.28,41.41z"/>
<path fill="#6CAB85" d="M221.97,51.37c3.61-0.05,6.49,0.43,8.46,0.88c1.33,0.3,7.16,1.64,7.11,3.18c-0.02,0.75-1.41,1.24-1.64,1.32
	c-0.88,0.3-1.96,0.28-4.81-1c-2.06-0.92-2.83-1.5-4.64-2.44C224.74,52.44,223.2,51.82,221.97,51.37z"/>
<path fill="#6CAB85" d="M252.74,41.76c4.17,1.85,8.43,3.52,12.68,5.17c3.89,1.51,7.83,2.97,11.89,3.95
	c3.46,0.83,7.02,1.27,10.58,1.02c2.43-0.17,4.75-0.76,7.11-1.27c4.19-0.91,8.43-1.58,12.68-2.15c0.39-0.05,0.78-0.1,1.17-0.15
	c0.48-0.06,0.49-0.82,0-0.76c-4.22,0.54-8.43,1.18-12.6,2.03c-2.29,0.47-4.57,1.14-6.9,1.41c-3.49,0.41-7.01,0.17-10.45-0.55
	c-3.94-0.82-7.75-2.16-11.5-3.58c-4.44-1.68-8.87-3.42-13.23-5.31c-0.35-0.15-0.69-0.3-1.04-0.46
	C252.68,40.91,252.3,41.57,252.74,41.76L252.74,41.76z"/>
<path fill="#6CAB85" d="M319.01,48.59c0.18,0.16,0.67,0.62,0.86,1.35c0.06,0.24,0.16,0.62-0.04,0.95c-0.16,0.26-0.43,0.37-0.53,0.41
	c-1.61,0.62-5.38-1-5.38-1c-4.73-2.03-5.11-2.1-5.07-2.36c0.15-1.09,7.21-0.39,7.66-0.34C316.93,47.65,318.09,47.78,319.01,48.59z"
	/>
<path fill="#6CAB85" d="M260.12,44.69c4.25,4.33,7.61,7.67,9.67,9.85c0,0,2.08,2.2,4.36,2.37c0.62,0.05,0.86-0.14,0.95-0.24
	c0.43-0.47,0.04-1.46-0.11-1.84C274.05,52.5,262.82,46.19,260.12,44.69z"/>
<path fill="#6CAB85" d="M285.38,51.86c4.73,1.55,8.72,2.1,11.67,2.3c4.21,0.29,6.96-0.11,7.38,1.03c0.43,1.15-1.69,3.38-4.06,4.12
	c-2.53,0.78-4.83-0.28-7.23-1.42C291.26,57,288.26,55.24,285.38,51.86z"/>
<path fill="#6CAB85" d="M241.06,41.1c1.45,1.75,3.66,4.07,6.79,6.23c0.45,0.31,7.51,5.12,8.99,3.62c0.53-0.53,0.25-1.76-0.21-2.55
	c-1.26-2.18-4.38-1.81-8.1-2.94C246.57,44.85,243.92,43.67,241.06,41.1z"/>
<path fill="#6CAB85" d="M271.08,43.8c2.41,1.28,4.5,2.18,6.05,2.79c3.7,1.46,4.85,1.48,5.7,0.95c0.74-0.46,1.4-1.43,1.17-2.19
	c-0.38-1.28-3.21-1.48-6.14-1.68C276.09,43.56,273.79,43.52,271.08,43.8z"/>
<path fill="#6CAB85" d="M69.28,40.89c7.76-0.7,15.62-0.17,23.18,1.71c2.33,0.58,4.62,1.28,6.87,2.1c0.46,0.17,0.66-0.57,0.2-0.73
	c-7.83-2.85-16.15-4.23-24.48-4.13c-1.93,0.02-3.86,0.12-5.78,0.3C68.79,40.17,68.79,40.93,69.28,40.89L69.28,40.89z"/>
<path fill="#6CAB85" d="M82.79,40.73c6.21,3.48,12.75,6.24,19.45,8.63c3.48,1.24,7.02,2.3,10.7,2.81c2.83,0.39,5.7,0.51,8.55,0.35
	c4.13-0.23,8.22-1.02,12.16-2.28c0.46-0.15,0.27-0.88-0.2-0.73c-6.14,1.96-12.63,2.76-19.05,2.08c-3.66-0.39-7.21-1.33-10.68-2.52
	c-3.75-1.29-7.48-2.69-11.12-4.29c-3.21-1.42-6.36-2.98-9.42-4.7C82.74,39.83,82.36,40.49,82.79,40.73z"/>
<g>
	<path fill="#6CAB85" d="M132.35,50.09c4.74-2.03,8.41-2.71,10.59-2.98c1.77-0.21,3.73-0.3,5.28,0.91c0.26,0.21,1.37,1.06,1.17,1.71
		c-0.27,0.89-3.08,0.82-8.67,0.63C139.17,50.31,134.28,50.15,132.35,50.09z"/>
</g>
<path fill="#6CAB85" d="M114.87,52.41c3.81-2.82,7.63-5.65,11.72-8.06c2.08-1.23,4.23-2.34,6.48-3.21c2-0.78,4.05-1.39,6.14-1.87
	c1.9-0.44,3.82-0.75,5.75-1.04c0.48-0.07,0.28-0.8-0.2-0.73c-3.8,0.55-7.57,1.31-11.19,2.64c-4.49,1.65-8.59,4.16-12.52,6.86
	c-2.23,1.53-4.4,3.14-6.58,4.75C114.1,52.04,114.47,52.7,114.87,52.41L114.87,52.41z"/>
<g>
	<path fill="#6CAB85" d="M113.31,52c0.76-3.66,2.21-6.22,3.26-7.76c1.26-1.84,2.67-3.83,4.81-3.99c1.3-0.1,2.85,0.47,2.98,1.25
		c0.15,0.9-1.62,1.85-2.59,2.43C119.53,45.26,116.52,47.6,113.31,52z"/>
</g>
<path fill="#6CAB85" d="M134.57,40.8c4.23,1.63,8.46,3.27,12.7,4.89c2.1,0.8,4.26,1.4,6.41,2.07c1.82,0.57,3.63,1.17,5.44,1.78
	c0.46,0.16,0.66-0.58,0.2-0.73c-2.52-0.85-5.05-1.66-7.6-2.44c-1.24-0.38-2.47-0.74-3.68-1.19c-2.02-0.76-4.04-1.55-6.05-2.33
	c-2.4-0.93-4.81-1.85-7.21-2.78C134.32,39.89,134.12,40.63,134.57,40.8L134.57,40.8z"/>
<g>
	<path fill="#6CAB85" d="M152.91,47.41c0.75,1.85,2.22,4.68,5.13,6.87c2.82,2.13,6.59,3.35,7.04,2.66c0.53-0.81-3.45-4.21-3.92-4.6
		C158.17,49.8,155.17,48.3,152.91,47.41z"/>
</g>
<g>
	<path fill="#6CAB85" d="M124.63,51.8c4.12,1.99,7.54,2.49,9.98,2.56c3.7,0.1,7.05-0.76,8.75,1.21c0.15,0.17,1.1,1.27,0.76,2.3
		c-0.29,0.89-1.41,1.26-1.86,1.4c-1.12,0.37-2.12,0.17-2.5,0.09c-3.38-0.72-6.13-2.68-6.13-2.68
		C131.71,55.31,128.84,53.55,124.63,51.8z"/>
</g>
<g>
	<path fill="#6CAB85" d="M134.28,40.13c0.52-1.11,1.15-2.18,1.86-3.18c0.96-1.35,1.87-2.62,3.47-3.58c1.27-0.77,2.96-1.31,4.1-1.31
		c0.65,0,1.08,0.19,1.28,0.56c0.34,0.63-0.08,1.39-1.47,2.61c-1.24,1.09-2.41,1.53-3.35,1.89c-0.18,0.07-0.36,0.14-0.53,0.21
		c-1.59,0.65-3.05,1.81-4.34,3.44L134.28,40.13z"/>
</g>
<g>
	<path fill="#6CAB85" d="M140.22,38.73c4.09,1.21,6.65,2.59,8.31,3.71c0.4,0.27,2.33,1.61,4.74,1.59c1.25-0.01,1.48-0.38,1.54-0.5
		c0.31-0.63-0.69-1.68-1.07-2.07C151.37,38.94,143.39,38.73,140.22,38.73z"/>
</g>
<g>
	<path fill="#6CAB85" d="M122.57,46.44c-0.06-0.18,1.75-1.05,4.13-1.76c5.03-1.52,11.02-1.9,11.38-0.67
		c0.07,0.22-0.07,0.44-0.21,0.67c-0.4,0.65-1.32,1.1-3.63,1.15c-1.82,0.04-3.05-0.2-3.87-0.31
		C126.03,44.93,122.65,46.69,122.57,46.44z"/>
</g>
<g>
	<path fill="#6CAB85" d="M95.79,46.26c3.09,3.78,6.27,6.06,8.42,7.36c0,0,4.45,2.7,8.82,2.54c0.33-0.01,1.23-0.04,1.35-0.42
		c0.16-0.5-0.41-0.91-0.9-1.13c-2.13-0.95-3.98-1.73-6.06-2.26c0,0-1.27-0.33-3.71-1.16C101.69,50.51,98.9,49.16,95.79,46.26z"/>
</g>
<path fill="#6CAB85" d="M156.88,49.55c2.36-3.37,6.42-4.94,10.2-6.09c4.36-1.32,8.78-2.56,13.27-3.38c1.85-0.34,3.72-0.61,5.6-0.65
	c0.49-0.01,0.49-0.77,0-0.76c-3.82,0.07-7.63,0.97-11.32,1.9c-2.45,0.62-4.89,1.3-7.31,2.02c-1.99,0.59-3.97,1.26-5.83,2.2
	c-2.07,1.05-3.94,2.46-5.28,4.38C155.94,49.57,156.6,49.95,156.88,49.55L156.88,49.55z"/>
<g>
	<path fill="#6CAB85" d="M160.69,45.67c3.78-0.1,6.85,0.11,9.02,0.33c2.4,0.25,4.76,0.63,8.04,0.14c2.78-0.42,4.26-1.16,4.99-2.41
		c0.19-0.33,0.63-1.07,0.35-1.59c-0.64-1.21-4.59-0.31-7.65,0.38C172.04,43.28,167.07,44.37,160.69,45.67z"/>
</g>
<g>
	<path fill="#6CAB85" d="M165.39,43.6c2.52-2.61,4.81-4.61,6.53-6.02c0.44-0.36,2.5-2.37,5.34-3.61c0.48-0.21,1.5-0.62,2.81-0.51
		c0.18,0.02,2.24,0.21,2.43,1.05c0.07,0.32-0.04,1.01-3.23,2.93c-2.86,1.73-5.26,2.68-6.24,3.06
		C171.4,41.17,168.78,42.21,165.39,43.6z"/>
</g>
<g>
	<path fill="#6CAB85" d="M197.38,40.8c-1.18,0-2.81-0.11-5.12-0.35c-2.14-0.22-4.29-0.49-6.39-0.8l-2-0.3l1.83-0.86
		c2.12-0.99,4.35-1.84,6.61-2.52c2.43-0.73,4.72-1.42,6.33-1.42c1.05,0,1.81,0.28,2.33,0.86c0.95,1.07,0.93,3.07-0.04,4.29
		C200.29,40.5,199.33,40.8,197.38,40.8z"/>
</g>
<path fill="#6CAB85" d="M286.76,52.26c1.85-3.7,5.62-5.84,9.22-7.53c4.13-1.94,8.33-3.79,12.66-5.24c1.8-0.6,3.63-1.14,5.5-1.45
	c0.48-0.08,0.28-0.81-0.2-0.73c-3.76,0.62-7.38,2.05-10.89,3.49c-2.31,0.95-4.58,1.96-6.85,3c-1.91,0.88-3.81,1.83-5.53,3.05
	c-1.87,1.32-3.53,2.97-4.56,5.03C285.89,52.31,286.54,52.7,286.76,52.26L286.76,52.26z"/>
<g>
	<path fill="#6CAB85" d="M289.99,47.82c3.73-0.64,6.79-0.87,8.97-0.96c2.41-0.1,4.8-0.05,7.97-1.01c2.69-0.81,4.04-1.76,4.59-3.1
		c0.14-0.35,0.47-1.15,0.12-1.62c-0.81-1.11-4.58,0.35-7.52,1.47C300.88,43.84,296.12,45.62,289.99,47.82z"/>
</g>
<g>
	<path fill="#6CAB85" d="M294.34,45.11c2.12-2.95,4.09-5.25,5.6-6.89c0.39-0.42,2.13-2.7,4.77-4.33c0.44-0.27,1.4-0.83,2.71-0.91
		c0.18-0.01,2.24-0.11,2.56,0.7c0.12,0.3,0.1,1-2.77,3.36c-2.58,2.12-4.82,3.4-5.73,3.92C299.94,41.84,297.5,43.25,294.34,45.11z"/>
</g>
<g>
	<path fill="#6CAB85" d="M313.13,37.67c1.39-0.91,3.45-2.17,6.1-3.4c3.81-1.78,6.51-3,7.84-1.88c0.88,0.74,1.07,2.41,0.45,3.47
		c-0.57,0.98-1.83,1.42-7.97,1.68C316.9,37.65,314.7,37.67,313.13,37.67z"/>
</g>
<path fill="#6CAB85" d="M144.87,37.87c2.45-0.7,4.36-1.48,5.65-2.07c2.78-1.26,4.01-2.22,6.48-2.45c1.96-0.18,3.14,0.25,3.84,0.61
	c0.2,0.11,2.37,1.26,2.19,2.33c-0.28,1.59-5.64,1.9-6.22,1.92c-2.04,0.1-2.95-0.16-5.51-0.34C148.8,37.71,146.61,37.76,144.87,37.87
	z"/>
<path fill="#6CAB85" d="M157.69,48.56c2.36,0.44,4.28,0.4,5.66,0.27c2.77-0.27,4.25-1.04,5.46-0.14c0.9,0.68,1.37,2.08,0.91,2.87
	c-0.53,0.92-2.19,0.82-3.39,0.75c-1.17-0.07-2.22-0.35-3.55-0.89C161.48,50.9,159.68,50.03,157.69,48.56z"/>
<path fill="#6CAB85" stroke="#245650" stroke-width="4" stroke-miterlimit="10" d="M160.83,44.49"/>
<path fill="#6CAB85" d="M107.45,46.72c-0.29,0-0.58-0.01-0.88-0.01c-2.31-0.05-4.17-0.74-4.53-0.86c-1.01-0.32-1.93-0.78-3.78-1.68
	c-0.5-0.25-1.57-0.78-1.52-0.91c0.04-0.09,0.56,0.08,1.51,0.17c0.48,0.04,0.82,0.04,1.31,0.04c2.72-0.02,4.97-0.6,4.97-0.6
	c0.77-0.2,1.46-0.42,2.07-0.62c0.96-0.32,1.72-0.56,2.4-0.56c0.5,0,0.91,0.14,1.26,0.42c0.93,0.76,1.12,2.42,0.41,3.49
	C110.01,46.58,108.73,46.72,107.45,46.72z"/>
<path fill="#6CAB85" d="M8.07,57.48c7.05-3.21,13.59-7.53,19.21-12.85c1.8-1.71,3.51-3.51,5.12-5.41c0.31-0.37-0.22-0.91-0.54-0.54
	c-5.36,6.32-11.85,11.6-19.1,15.6c-1.66,0.91-3.35,1.76-5.07,2.55C7.24,57.03,7.62,57.69,8.07,57.48L8.07,57.48z"/>
<path fill="#6CAB85" d="M21.05,49.82c3.74-6.25,8.16-12.02,12.94-17.51c2.27-2.61,4.69-5.1,7.45-7.2c2.21-1.68,4.58-3.14,7.07-4.37
	c3.62-1.79,7.48-3.08,11.44-3.91c0.48-0.1,0.28-0.83-0.2-0.73c-6.28,1.32-12.33,3.82-17.58,7.54c-2.9,2.06-5.47,4.49-7.84,7.13
	c-2.63,2.94-5.15,5.99-7.52,9.14c-2.31,3.06-4.45,6.24-6.42,9.53C20.15,49.85,20.8,50.24,21.05,49.82L21.05,49.82z"/>
<g>
	<path fill="#6CAB85" d="M58.72,16.85c5.13-0.58,8.66-1.8,10.68-2.65c1.64-0.69,3.39-1.59,4.13-3.39c0.13-0.31,0.65-1.6,0.15-2.06
		c-0.68-0.64-3.08,0.8-7.84,3.72C64.51,13.29,60.36,15.84,58.72,16.85z"/>
</g>
<g>
	<path fill="#6CAB85" d="M41.23,24.59c2.49,2.8,5.03,4.31,6.72,5.13c2.02,0.97,4.23,2,6.17,1.09c1.18-0.55,2.23-1.81,1.96-2.56
		c-0.32-0.86-2.33-0.81-3.47-0.83C50.01,27.37,46.22,26.82,41.23,24.59z"/>
</g>
<g>
	<path fill="#6CAB85" d="M50.91,19c0.41-0.6,0.85-1.18,1.29-1.74c1.65-2.32,3.02-4.64,4.06-6.9c0.06-0.13,1.47-3.14,4.05-5.45
		c0.71-0.64,1.51-1.05,2.36-1.22c0.22-0.04,0.62-0.13,1.06-0.13c0.63,0,1.14,0.17,1.51,0.5c0.84,0.76,0.69,2.11,0.59,2.65
		c-0.39,2.03-2.38,3.06-4.69,4.24c-0.8,0.41-1.62,0.83-2.43,1.33c-2.22,1.34-4.25,3.14-6.02,5.34c-0.41,0.57-0.84,1.15-1.28,1.73
		L50.91,19z"/>
</g>
<g>
	<path fill="#6CAB85" d="M28.9,38.21c0.79-4.81,2.4-8.35,3.62-10.55c0,0,2.51-4.53,6.38-6.56c0.29-0.15,1.09-0.57,1.39-0.3
		c0.39,0.36,0.1,0.99-0.21,1.42c-1.37,1.88-2.58,3.46-4.13,4.96c0,0-0.94,0.91-2.64,2.83C31.9,31.62,30.15,34.16,28.9,38.21z"/>
</g>
<path fill="#6CAB85" d="M30.16,40.8c2.67-1.73,5.02-2.59,6.74-3.06c3.01-0.83,5.15-0.75,5.64-2.05c0.37-0.96-0.29-2.34-1.25-2.82
	c-1.13-0.57-2.53,0.27-4.03,1.17c-0.8,0.48-1.72,1.14-3.87,3.3C32.57,38.18,31.44,39.34,30.16,40.8z"/>
<path fill="#6CAB85" d="M169.96,25.17c7.62-1.42,15.47-1.64,23.14-0.49c2.37,0.36,4.72,0.84,7.04,1.44c0.47,0.12,0.68-0.61,0.2-0.73
	c-8.09-2.1-16.52-2.69-24.82-1.8c-1.93,0.21-3.86,0.49-5.77,0.85C169.28,24.52,169.48,25.26,169.96,25.17L169.96,25.17z"/>
<path fill="#6CAB85" d="M184.54,23.91c6.53,2.88,13.3,5.02,20.22,6.76c3.6,0.91,7.25,1.63,10.97,1.79c2.86,0.12,5.73-0.05,8.56-0.48
	c4.09-0.62,8.07-1.81,11.87-3.44c0.45-0.19,0.06-0.85-0.38-0.66c-5.93,2.54-12.35,3.93-18.81,3.84c-3.66-0.05-7.26-0.65-10.82-1.51
	c-3.85-0.93-7.68-1.97-11.44-3.22c-3.32-1.1-6.58-2.35-9.78-3.76C184.48,23.06,184.09,23.71,184.54,23.91L184.54,23.91z"/>
<g>
	<path fill="#6CAB85" d="M234.81,28.55c4.53-2.47,8.11-3.5,10.26-3.97c1.74-0.38,3.69-0.65,5.34,0.4c0.28,0.18,1.46,0.93,1.33,1.6
		c-0.19,0.91-2.98,1.11-8.57,1.45C241.62,28.13,236.74,28.44,234.81,28.55z"/>
</g>
<path fill="#6CAB85" d="M217.68,32.48c3.5-3.15,7.02-6.31,10.84-9.08c1.94-1.41,3.95-2.7,6.09-3.78c1.92-0.97,3.92-1.79,5.97-2.47
	c1.85-0.61,3.73-1.11,5.63-1.57c0.48-0.12,0.27-0.85-0.2-0.73c-3.77,0.92-7.47,2.04-10.97,3.72c-4.31,2.06-8.15,4.97-11.79,8.03
	c-2.07,1.74-4.08,3.55-6.09,5.36C216.77,32.27,217.31,32.81,217.68,32.48L217.68,32.48z"/>
<g>
	<path fill="#6CAB85" d="M216.04,32.26c0.4-3.72,1.6-6.4,2.5-8.04c1.08-1.95,2.29-4.06,4.41-4.43c1.28-0.22,2.88,0.2,3.08,0.97
		c0.24,0.88-1.43,2-2.35,2.67C221.59,24.96,218.81,27.57,216.04,32.26z"/>
</g>
<path fill="#6CAB85" d="M236.1,19.09c4.37,1.22,8.74,2.46,13.11,3.67c2.17,0.6,4.38,0.99,6.57,1.45c1.87,0.39,3.73,0.82,5.58,1.25
	c0.48,0.11,0.68-0.62,0.2-0.73c-2.59-0.61-5.19-1.18-7.79-1.71c-1.27-0.26-2.53-0.5-3.78-0.84c-2.09-0.56-4.17-1.16-6.25-1.75
	c-2.48-0.69-4.96-1.39-7.44-2.08C235.83,18.23,235.62,18.96,236.1,19.09L236.1,19.09z"/>
<g>
	<path fill="#6CAB85" d="M255.02,23.94c0.92,1.77,2.66,4.45,5.76,6.35c3.02,1.85,6.88,2.72,7.26,1.98c0.45-0.85-3.84-3.86-4.34-4.21
		C260.48,25.82,257.35,24.62,255.02,23.94z"/>
</g>
<g>
	<path fill="#6CAB85" d="M226.99,31.08c0.1-0.4,4.4,1.91,10.42,1.16c0,0,7.46-0.92,8.84,0.49c0.16,0.17,1.23,1.25,1,2.36
		c-0.2,0.97-1.27,1.46-1.7,1.66c-1.06,0.48-2.07,0.38-2.48,0.33c-3.16-0.41-6.39-2.28-6.39-2.28
		C231.41,31.72,226.9,31.47,226.99,31.08z"/>
</g>
<g>
	<path fill="#6CAB85" d="M216.93,47.23c1.23,4.38,3.12,7.26,4.69,9.12c2.38,2.82,5.25,4.74,4.89,7.31
		c-0.03,0.22-0.23,1.66-1.23,2.09c-0.87,0.37-1.89-0.22-2.29-0.45c-1.02-0.59-1.54-1.46-1.73-1.8c-1.69-2.99-2.04-6.33-2.04-6.34
		C218.97,54.82,218.4,51.52,216.93,47.23z"/>
</g>
<g>
	<path fill="#6CAB85" d="M235.42,18.31c0.41-1.14,0.92-2.25,1.53-3.29c0.81-1.4,1.58-2.73,3.03-3.8c1.44-1.07,3.16-1.65,4.05-1.65
		c0.39,0,0.66,0.11,0.8,0.31c0.3,0.44-0.07,1.17-1.18,2.36c-1.09,1.16-2.18,1.7-3.06,2.13c-0.18,0.09-0.35,0.17-0.51,0.26
		c-1.57,0.83-2.95,2.15-4.1,3.94L235.42,18.31z"/>
</g>
<g>
	<path fill="#6CAB85" d="M241.56,16.5c4.18,0.81,6.87,1.94,8.63,2.91c0.42,0.23,2.48,1.38,4.87,1.13c1.24-0.13,1.44-0.52,1.49-0.64
		c0.25-0.65-0.85-1.61-1.26-1.96C252.67,15.66,244.71,16.21,241.56,16.5z"/>
</g>
<g>
	<path fill="#6CAB85" d="M224.73,25.85c-0.07-0.18,1.64-1.21,3.95-2.15c4.87-1.99,10.79-2.94,11.27-1.74
		c0.09,0.22-0.03,0.44-0.15,0.69c-0.34,0.69-1.21,1.22-3.5,1.49c-1.81,0.21-3.06,0.09-3.88,0.06
		C228.02,24.02,224.83,26.09,224.73,25.85z"/>
</g>
<g>
	<path fill="#6CAB85" d="M198.05,28.21c3.44,3.47,6.82,5.44,9.09,6.53c0,0,4.69,2.26,9.02,1.69c0.32-0.04,1.22-0.16,1.31-0.55
		c0.11-0.51-0.5-0.87-1-1.04c-2.22-0.75-4.12-1.35-6.25-1.68c0,0-1.3-0.2-3.8-0.8C204.33,31.87,201.42,30.8,198.05,28.21z"/>
</g>
<path fill="#6CAB85" d="M259.16,25.73c2.02-3.58,5.89-5.55,9.55-7.05c4.21-1.73,8.5-3.38,12.88-4.62c1.81-0.51,3.65-0.97,5.51-1.18
	c0.48-0.06,0.49-0.82,0-0.76c-3.8,0.44-7.5,1.67-11.08,2.95c-2.38,0.85-4.74,1.76-7.08,2.71c-1.92,0.78-3.84,1.62-5.59,2.74
	c-1.95,1.24-3.7,2.81-4.85,4.84C258.26,25.77,258.92,26.16,259.16,25.73L259.16,25.73z"/>
<path fill="#6CAB85" d="M262.6,21.47c3.75-0.46,6.83-0.54,9.01-0.52c2.42,0.02,4.79,0.18,8.01-0.62c2.73-0.68,4.12-1.56,4.74-2.87
	c0.16-0.35,0.52-1.12,0.2-1.62c-0.75-1.14-4.6,0.13-7.58,1.1C273.66,18.02,268.82,19.57,262.6,21.47z"/>
<path fill="#6CAB85" d="M267.07,18.97c2.26-2.84,4.35-5.04,5.93-6.61c0.41-0.4,2.26-2.6,4.97-4.09c0.46-0.25,1.44-0.76,2.75-0.77
	c0.18,0,2.25,0,2.52,0.82c0.1,0.31,0.05,1.01-2.93,3.22c-2.68,1.99-4.98,3.16-5.91,3.64C272.82,15.98,270.32,17.27,267.07,18.97z"/>
<path fill="#6CAB85" d="M285.21,12.79c1.62-0.87,4.03-2.07,7.09-3.23c4.41-1.67,7.52-2.81,8.93-1.65c0.93,0.77,1.02,2.45,0.24,3.5
	c-0.72,0.97-2.16,1.37-9.06,1.45C289.44,12.89,286.97,12.84,285.21,12.79z"/>
<path fill="#6CAB85" d="M245.99,14.93c1.88-0.73,3.7-1.6,5.39-2.58c0.67-0.39,1.25-0.75,1.77-1.07c1.55-0.97,2.68-1.67,4.55-2.02
	c0.6-0.11,1.17-0.17,1.71-0.17c0.86,0,1.62,0.14,2.34,0.43c0.63,0.26,2.68,1.19,2.59,2.41c-0.13,1.7-4.42,2.51-6.27,2.78
	c-1.03,0.15-1.77,0.18-2.64,0.18c-0.22,0-0.45,0-0.7,0c-0.27,0-0.56,0-0.87,0c-0.4,0-0.84,0-1.34,0.02
	c-2.12,0.06-4.26,0.26-6.36,0.6L245.99,14.93z"/>
<path fill="#6CAB85" d="M325.19,42.4c3.5-3.15,7.02-6.31,10.84-9.08c1.94-1.41,3.95-2.7,6.09-3.78c1.92-0.97,3.92-1.79,5.97-2.47
	c1.85-0.61,3.73-1.11,5.63-1.57c0.48-0.12,0.27-0.85-0.2-0.73c-3.77,0.92-7.47,2.04-10.97,3.72c-4.31,2.06-8.15,4.97-11.79,8.03
	c-2.07,1.74-4.08,3.55-6.09,5.36C324.29,42.19,324.83,42.72,325.19,42.4L325.19,42.4z"/>
<g>
	<path fill="#6CAB85" d="M343.22,28.33c-0.23-0.16,0.79-2.07,1.5-3.24c1.03-1.69,1.68-2.77,2.95-3.71c1.73-1.28,4.07-1.92,4.41-1.41
		c0.29,0.44-0.87,1.68-1.15,1.98c-1.22,1.31-2.27,1.6-3.49,2.33C344.55,26.01,343.48,28.51,343.22,28.33z"/>
</g>
<g>
	<path fill="#6CAB85" d="M349.07,26.41c4.18,0.81,6.87,1.94,8.63,2.91c0.42,0.23,2.48,1.38,4.87,1.13c1.24-0.13,1.44-0.52,1.49-0.64
		c0.25-0.65-0.85-1.61-1.26-1.96C360.19,25.57,352.23,26.12,349.07,26.41z"/>
</g>
<g>
	<path fill="#6CAB85" d="M332.24,35.76c-0.07-0.18,1.64-1.21,3.95-2.15c4.87-1.99,10.79-2.94,11.27-1.74
		c0.09,0.22-0.03,0.44-0.15,0.69c-0.34,0.69-1.21,1.22-3.5,1.49c-1.81,0.21-3.06,0.09-3.88,0.06
		C335.54,33.93,332.34,36,332.24,35.76z"/>
</g>
<path fill="#6CAB85" d="M353.61,25.12c2.37-0.93,4.2-1.89,5.43-2.6c2.64-1.52,3.78-2.59,6.22-3.05c1.94-0.36,3.15-0.05,3.88,0.25
	c0.21,0.09,2.48,1.03,2.4,2.11c-0.12,1.61-5.43,2.42-6.01,2.5c-2.02,0.3-2.95,0.12-5.52,0.19C357.5,24.59,355.34,24.85,353.61,25.12
	z"/>
<path fill="#6CAB85" d="M261.47,25.1c2.4,0.22,4.3,0,5.66-0.27c2.73-0.54,4.13-1.44,5.42-0.65c0.97,0.59,1.56,1.94,1.18,2.77
	c-0.44,0.97-2.11,1.02-3.31,1.07c-1.17,0.04-2.25-0.14-3.62-0.55C265.46,27.07,263.58,26.37,261.47,25.1z"/>
<path fill="#6CAB85" stroke="#245650" stroke-width="4" stroke-miterlimit="10" d="M262.63,20.29"/>
<path fill="#6CAB85" d="M208.12,27.05c-0.84,0-1.94-0.11-3.89-0.45c-1.37-0.24-2.76-0.53-4.12-0.86l-4.31-1.04l4.43-0.16
	c2.19-0.08,4.28-0.47,6.2-1.16c0.75-0.27,1.41-0.56,2-0.81c1.47-0.64,2.64-1.15,3.63-0.49c0.99,0.67,1.35,2.3,0.74,3.44
	c-0.68,1.27-2.35,1.39-3.97,1.51C208.61,27.04,208.38,27.05,208.12,27.05z"/>
<path fill="#6CAB85" d="M98.33,24.24c0.49-1.61,1.53-3.87,3.73-5.51c0.79-0.59,2.26-1.68,3.81-1.68c0.42,0,0.82,0.08,1.19,0.24
	c0.8,0.34,1.95,1.28,1.86,2.48c-0.08,1.06-1,1.79-6.05,3.8c-1.25,0.5-2.51,0.97-3.76,1.42l-1.14,0.41L98.33,24.24z"/>
<path fill="#6CAB85" d="M167.58,25.67c6.88-0.74,13.63-2.49,19.94-5.35c1.98-0.9,3.91-1.9,5.78-3c0.42-0.25,0.04-0.91-0.38-0.66
	c-6.2,3.65-13.02,6.15-20.08,7.47c-1.74,0.33-3.49,0.58-5.25,0.77C167.1,24.96,167.09,25.73,167.58,25.67L167.58,25.67z"/>
<g>
	<path fill="#6CAB85" d="M184.4,21.19c1.53-1.95,2.24-3.68,2.6-4.91c0.37-1.24,0.74-2.59,1.87-3.89c0.43-0.49,1.07-0.94,1.7-0.73
		c0.51,0.17,0.72,0.79,0.77,0.96c0.5,1.49-0.77,3.21-1.51,4.19C188.97,17.94,187.32,19.75,184.4,21.19z"/>
</g>
<g>
	<path fill="#6CAB85" d="M181.8,22.26c5.3-0.63,8.94-2.02,11.34-3.21c1.45-0.72,3.52-1.91,4.68-1.09c0.74,0.52,1,1.77,0.59,2.61
		c-0.63,1.26-2.71,1.37-4.58,1.44C190.69,22.12,186.63,22.23,181.8,22.26z"/>
</g>
<path fill="#6CAB85" d="M197.54,16.78c0.61-1.57,1.82-3.75,4.13-5.22c0.77-0.49,2.21-1.4,3.67-1.4c0.51,0,0.99,0.11,1.42,0.33
	c0.77,0.4,1.85,1.42,1.67,2.61c-0.16,1.05-1.14,1.71-6.32,3.34c-1.27,0.4-2.57,0.79-3.85,1.14l-1.17,0.32L197.54,16.78z"/>
<path fill="#6CAB85" d="M255.02,42.07c5.3-3.79,10.89-7.2,16.84-9.87c4.39-1.97,8.99-3.53,13.71-4.46c3.39-0.67,6.79-0.9,10.24-0.95
	c4.53-0.06,9.04-0.33,13.53-1.01c6.6-1.01,13.05-2.87,19.16-5.56c0.58-0.25,1.15-0.52,1.72-0.78c0.44-0.21,0.06-0.86-0.38-0.66
	c-5.98,2.82-12.33,4.81-18.83,5.96c-4.71,0.84-9.48,1.2-14.26,1.28c-1.51,0.03-3.03,0.02-4.54,0.11c-1.86,0.11-3.71,0.33-5.55,0.64
	c-4.6,0.78-9.07,2.18-13.37,3.98c-5.8,2.43-11.27,5.57-16.46,9.12c-0.74,0.51-1.47,1.02-2.2,1.54
	C254.24,41.7,254.62,42.36,255.02,42.07L255.02,42.07z"/>
<g>
	<path fill="#6CAB85" d="M320.99,22.53c1.7-1.81,2.55-3.47,3.02-4.67s0.96-2.51,2.2-3.71c0.47-0.45,1.15-0.84,1.75-0.58
		c0.49,0.21,0.65,0.85,0.69,1.02c0.36,1.53-1.05,3.13-1.88,4.04C325.82,19.7,324.02,21.35,320.99,22.53z"/>
</g>
<g>
	<path fill="#6CAB85" d="M318.31,23.38c5.33-0.17,9.08-1.24,11.57-2.22c1.5-0.59,3.67-1.6,4.75-0.68c0.69,0.58,0.84,1.85,0.36,2.65
		c-0.73,1.21-2.82,1.13-4.68,1.04C327.18,24.01,323.13,23.77,318.31,23.38z"/>
</g>
<g>
	<path fill="#6CAB85" d="M404.23,12.38c5.29-0.67,8.93-2.08,11.31-3.29c1.44-0.73,3.5-1.93,4.67-1.12c0.74,0.51,1.01,1.77,0.61,2.6
		c-0.62,1.27-2.7,1.39-4.57,1.47C413.12,12.18,409.06,12.32,404.23,12.38z"/>
</g>
<g>
	<path fill="#6CAB85" d="M304.54,25.84c1.56-2.5,3.22-4.06,4.48-5.04c2.01-1.56,4-2.41,4.26-4.28c0.03-0.23,0.15-1.27-0.47-1.78
		c-0.8-0.67-2.31,0.04-2.62,0.18c-1.47,0.68-2.28,1.96-3.03,3.44C306.33,19.99,305.26,22.49,304.54,25.84z"/>
</g>
<g>
	<path fill="#6CAB85" d="M293.75,26.16c3.04-0.29,9.4-0.54,12.66,2.51c0.54,0.5,2.67,2.49,2.18,3.39c-0.06,0.12-0.21,0.3-0.66,0.4
		c-2.1,0.49-4.89-2.21-7.97-3.98C298.61,27.7,296.57,26.74,293.75,26.16z"/>
</g>
<g>
	<path fill="#6CAB85" d="M279.93,28.45c0.83-1.1,3.98-5.24,6.76-7.67c0.44-0.39,1.28-1.09,2.47-1.17c1.1-0.07,2.49,0.38,2.68,1.13
		c0.18,0.73-0.79,1.62-2.78,2.96C287.08,25.02,284.09,26.79,279.93,28.45z"/>
</g>
<g>
	<path fill="#6CAB85" d="M273.04,30.94c4.36,1.59,7.79,1.73,10.15,1.54c2.81-0.22,5.5-1,6.8,0.48c0.58,0.66,0.87,1.74,0.47,2.39
		c-0.67,1.07-3.06,0.66-5.03,0.33c-2.15-0.36-3.83-0.95-5.59-1.65C278.09,33.35,275.76,32.34,273.04,30.94z"/>
</g>
<g>
	<path fill="#6CAB85" d="M351.31,43.32c4.24-1.87,6.8-4.15,8.36-5.91c1.86-2.1,3.24-4.52,5.21-4.36c0.88,0.07,1.85,0.65,2.01,1.39
		c0.27,1.23-1.73,2.59-3.37,3.72c-1.8,1.23-3.42,1.97-5.17,2.68C356.62,41.54,354.24,42.44,351.31,43.32z"/>
</g>
<g>
	<path fill="#6CAB85" d="M257.32,41.05c2.36,1.65,4.51,2.67,6.09,3.3c0.75,0.3,3.57,1.4,6.25,0.94c1.04-0.18,1.42-0.47,1.52-0.79
		c0.19-0.59-0.57-1.29-0.63-1.34c-1.19-1.06-3.24-0.6-3.98-0.47C264.64,43.06,261.7,42.98,257.32,41.05z"/>
</g>
<path fill="#6CAB85" d="M329.12,19.72c0.61-1.24,1.89-3.31,4.3-4.57c1.03-0.54,3.07-1.59,4.56-0.65c0.65,0.41,1.36,1.3,1.17,2.09
	c-0.15,0.62-0.85,1.16-6.12,2.33C331.41,19.28,330.06,19.55,329.12,19.72z"/>
<path fill="#6CAB85" d="M80.42,35.08c1.6-4.66,2.87-9.44,3.77-14.29c0.24-1.28,0.45-2.57,0.64-3.85c0.07-0.49-0.66-0.71-0.73-0.21
	c-0.71,4.79-1.75,9.52-3.13,14.15c-0.4,1.34-0.83,2.67-1.28,3.99C79.52,35.34,80.25,35.55,80.42,35.08L80.42,35.08z"/>
<path fill="#6CAB85" d="M81.67,29.44c-0.24,0.02,0.05-2.37-1.4-5.19c-0.77-1.5-1.65-2.38-2.11-4.42c-0.37-1.68-0.01-2.07,0.12-2.19
	c0.54-0.46,1.76-0.16,2.48,0.49c0.94,0.85,0.89,2.11,0.89,4.75C81.67,27.54,81.88,29.42,81.67,29.44z"/>
<path fill="#6CAB85" d="M81.67,29.44c2.87-1.47,4.81-3.16,6-4.37c1.67-1.69,3.3-3.39,2.9-5.19c-0.15-0.7-0.68-1.65-1.34-1.69
	c-1.23-0.07-1.61,3.4-4.14,7.26C83.89,27.27,82.61,28.59,81.67,29.44z"/>
<path fill="#6CAB85" d="M80.04,13.55"/>
<path fill="#6CAB85" d="M83.98,19.18c0.03-1.67-0.1-3-0.21-3.9c-0.27-2.16-0.62-2.93-0.28-4.22c0.1-0.38,0.63-2.37,2.04-2.65
	c1.4-0.28,3.06,1.26,3.14,2.64c0.07,1.13-0.95,1.72-2.23,3.4C85.2,16.07,84.45,17.73,83.98,19.18z"/>
<path fill="#6CAB85" d="M197.72,28.4c3.54,4.61,7.4,8.97,11.58,13c4.14,3.98,8.62,7.62,13.15,11.15c2.42,1.88,4.87,3.71,7.37,5.49
	c0.4,0.28,0.78-0.37,0.38-0.66c-4.52-3.22-8.91-6.62-13.19-10.15c-4.17-3.45-8.14-7.11-11.81-11.08c-2.4-2.6-4.68-5.31-6.84-8.12
	C198.08,27.63,197.42,28.01,197.72,28.4L197.72,28.4z"/>
<g>
	<path fill="#6CAB85" d="M207.18,38.71c0.14-0.2,1.8,1.56,4.92,2.25c1.65,0.37,2.9,0.26,4.78,1.22c1.54,0.79,1.61,1.32,1.61,1.49
		c0.01,0.71-1,1.45-1.96,1.58c-1.26,0.17-2.2-0.67-4.25-2.35C208.65,39.93,207.05,38.89,207.18,38.71z"/>
</g>
<g>
	<path fill="#6CAB85" d="M205.86,36.9c-0.69,3.14-0.63,5.69-0.45,7.37c0.24,2.36,0.52,4.69,2.17,5.54c0.64,0.33,1.72,0.54,2.17,0.06
		c0.84-0.89-1.61-3.4-2.98-7.81C206.12,39.98,205.92,38.16,205.86,36.9z"/>
</g>
<path fill="#6CAB85" d="M233.67,66.19c-0.7,0-1.34-0.19-1.8-0.52c-0.73-0.54-0.85-1.32-1.02-2.41c-0.12-0.81-0.17-0.98-0.3-1.65
	c-0.19-0.96-0.62-3.07-2.05-4.8c-0.47-0.56-0.96-0.99-0.89-1.08c0.09-0.12,1.03,0.48,1.35,0.68c1.47,0.94,1.72,1.42,3.12,2.31
	c0.5,0.32,1.21,0.74,1.36,0.82c0.95,0.55,1.58,0.92,2.18,1.74c1,1.39,1.27,2.66,0.77,3.57C235.93,65.67,234.87,66.19,233.67,66.19z"
	/>
<path fill="#6CAB85" d="M381.95,33.68c3.52-5.73,7.86-11.03,13.18-15.19c3.98-3.1,8.56-5.39,13.12-7.51
	c3.73-1.74,7.57-3.26,11.47-4.56c0.46-0.15,0.26-0.89-0.2-0.73c-6.14,2.05-12.1,4.65-17.8,7.71c-2.23,1.2-4.4,2.5-6.43,4.03
	c-2.21,1.66-4.27,3.53-6.17,5.54c-2.97,3.15-5.56,6.64-7.82,10.33C381.03,33.72,381.69,34.1,381.95,33.68L381.95,33.68z"/>
<g>
	<path fill="#6CAB85" d="M390.55,22.08c0.08,0.23,2.15-1.03,5.34-0.88c1.69,0.08,2.86,0.52,4.93,0.08c1.7-0.35,1.91-0.84,1.96-1.01
		c0.2-0.68-0.58-1.66-1.47-2.04c-1.16-0.5-2.3,0.07-4.72,1.15C392.29,21.29,390.47,21.87,390.55,22.08z"/>
</g>
<g>
	<path fill="#6CAB85" d="M385.95,26.5c0.17-3.21,0.92-5.65,1.53-7.23c0.86-2.21,1.75-4.38,3.57-4.77c0.71-0.15,1.8-0.07,2.1,0.52
		c0.57,1.08-2.46,2.86-4.96,6.74C387.02,23.6,386.34,25.3,385.95,26.5z"/>
</g>
<path fill="#6CAB85" d="M412.29,8.78c1.52-0.71,2.8-1.15,3.66-1.42c2.09-0.65,2.95-0.64,3.99-1.49c0.31-0.25,1.92-1.55,1.59-2.94
	c-0.32-1.38-2.41-2.25-3.72-1.75c-1.07,0.41-1.19,1.56-2.2,3.42C414.64,6.39,413.43,7.75,412.29,8.78z"/>
<path fill="#6CAB85" d="M372.37,59.76c1.45,0.84,2.69,1.38,3.53,1.72c2.03,0.82,2.88,0.89,3.85,1.82c0.28,0.27,1.78,1.7,1.33,3.06
	c-0.44,1.35-2.6,2.03-3.85,1.43c-1.03-0.49-1.05-1.66-1.9-3.6C374.51,62.33,373.42,60.87,372.37,59.76z"/>
<path fill="#6CAB85" d="M25.21,54.11c4.44,3.19,9.18,5.94,14.15,8.22c0.44,0.2,0.83-0.45,0.38-0.66c-4.97-2.28-9.71-5.04-14.15-8.22
	C25.19,53.16,24.81,53.82,25.21,54.11L25.21,54.11z"/>
<g>
	<path fill="#6CAB85" d="M29.32,56.43c0.04-0.22,2.04,0.63,4.85,0.06c1.49-0.31,2.47-0.86,4.36-0.76c1.55,0.09,1.8,0.5,1.86,0.65
		c0.26,0.59-0.3,1.58-1.04,2.05c-0.97,0.61-2.05,0.26-4.33-0.39C30.96,56.9,29.28,56.62,29.32,56.43z"/>
</g>
<g>
	<path fill="#6CAB85" d="M29.32,56.43c0.56,2.88,1.53,4.99,2.28,6.34c1.05,1.88,2.11,3.73,3.77,3.83c0.65,0.04,1.6-0.19,1.8-0.76
		c0.37-1.06-2.54-2.25-5.25-5.42C30.63,58.91,29.82,57.46,29.32,56.43z"/>
</g>
<path fill="#6CAB85" d="M43.48,58.93"/>
<path fill="#6CAB85" d="M37.69,61.25c1.44,0.43,2.63,0.66,3.43,0.78c1.94,0.3,2.7,0.18,3.73,0.8c0.3,0.18,1.89,1.14,1.78,2.44
	c-0.11,1.29-1.85,2.37-3.07,2.1c-1-0.22-1.25-1.25-2.39-2.8C40.08,63.09,38.83,62.03,37.69,61.25z"/>
<path fill="#6CAB85" d="M309.44,39.14c4.49,0.72,8.96,1.58,13.4,2.59c4.95,1.13,9.87,2.44,14.73,3.94c4.86,1.49,9.66,3.17,14.4,5.02
	c4.32,1.69,8.58,3.52,12.77,5.5c3.74,1.77,7.44,3.65,11.07,5.64c0.42,0.23,0.84,0.46,1.25,0.69c0.43,0.24,0.82-0.43,0.39-0.67
	c-3.58-1.99-7.22-3.88-10.92-5.66c-4.13-1.99-8.32-3.83-12.56-5.54c-4.66-1.87-9.38-3.57-14.16-5.1c-4.92-1.57-9.9-2.95-14.93-4.15
	c-4.52-1.07-9.07-1.99-13.65-2.76c-0.53-0.09-1.05-0.17-1.58-0.26C309.16,38.32,308.95,39.07,309.44,39.14L309.44,39.14z"/>
<g>
	<path fill="#6CAB85" d="M363.34,54.82c1.62,1.88,2.4,3.58,2.82,4.79c0.42,1.22,0.85,2.55,2.04,3.8c0.45,0.47,1.12,0.89,1.73,0.65
		c0.5-0.19,0.68-0.82,0.73-0.99c0.43-1.51-0.91-3.17-1.7-4.12C368.04,57.86,366.31,56.13,363.34,54.82z"/>
</g>
<g>
	<path fill="#6CAB85" d="M352.24,50.66c5.32,0.4,9.02,1.63,11.47,2.71c1.48,0.66,3.6,1.75,4.72,0.88c0.71-0.55,0.92-1.82,0.47-2.63
		c-0.68-1.24-2.77-1.25-4.63-1.24C361.13,50.41,357.07,50.48,352.24,50.66z"/>
</g>
<g>
	<path fill="#6CAB85" d="M398.32,15.31c2.58-1.63,7.74-5.31,8.43-9.71c0.11-0.72,0.56-3.59-0.38-4.01c-0.12-0.05-0.35-0.1-0.77,0.09
		c-1.96,0.9-2.48,4.73-3.82,8C401.2,11.13,400.18,13.13,398.32,15.31z"/>
</g>
<g>
	<path fill="#6CAB85" d="M337.92,45.48c0.78,1.13,3.75,5.41,6.42,7.95c0.43,0.4,1.24,1.14,2.42,1.27c1.09,0.12,2.51-0.27,2.72-1.02
		c0.21-0.73-0.72-1.66-2.65-3.07C344.92,49.21,342.01,47.31,337.92,45.48z"/>
</g>
<g>
	<path fill="#6CAB85" d="M326.25,42.12c4.42-1.4,7.86-1.39,10.2-1.11c2.8,0.34,5.45,1.24,6.81-0.19c0.61-0.64,0.95-1.71,0.57-2.37
		c-0.62-1.09-3.02-0.79-5.01-0.54c-2.16,0.27-3.87,0.79-5.66,1.41C331.4,39.93,329.02,40.84,326.25,42.12z"/>
</g>
<g>
	<path fill="#6CAB85" d="M342.08,47.01l-0.26-0.55c4.59-2.16,9.28-3.68,13.95-4.51c1.83-0.33,3.23-0.47,4.47-0.6
		c1.92-0.2,3.58-0.38,6.13-1.12c2.46-0.72,3.59-1.35,5.32-2.3c1.25-0.69,2.81-1.56,5.39-2.72c0.33-0.15,0.68-0.31,1.07-0.49
		c2.81-1.31,7.51-3.52,16.25-5.57l0.14,0.59c-8.68,2.04-13.34,4.22-16.13,5.53c-0.39,0.18-0.74,0.35-1.07,0.5
		c-2.55,1.16-4.1,2.01-5.34,2.7c-1.7,0.94-2.92,1.62-5.44,2.35c-2.6,0.76-4.29,0.94-6.24,1.14c-1.23,0.13-2.63,0.28-4.43,0.6
		C351.27,43.37,346.63,44.87,342.08,47.01z"/>
</g>
<path fill="#6CAB85" d="M342.15,47.06c3.97-1.86,8.14-3.3,12.44-4.19c1.94-0.4,3.89-0.66,5.86-0.86c1.94-0.21,3.85-0.49,5.73-1.02
	c1.45-0.4,2.87-0.91,4.21-1.59c1.3-0.65,2.55-1.4,3.84-2.06c2.43-1.26,4.95-2.42,7.48-3.48c3.55-1.49,7.23-2.64,10.95-3.59
	c0.64-0.16,1.27-0.32,1.91-0.47c0.48-0.11,0.27-0.85-0.2-0.73c-4.04,0.95-8.04,2.11-11.9,3.66c-2.42,0.97-4.79,2.08-7.14,3.21
	c-2.71,1.31-5.25,3.02-8.13,3.95c-1.88,0.61-3.81,1.02-5.77,1.25c-2.01,0.23-4.03,0.43-6.02,0.8c-4.07,0.75-8.02,2.01-11.82,3.64
	c-0.61,0.26-1.22,0.54-1.82,0.82C341.32,46.61,341.71,47.27,342.15,47.06L342.15,47.06z"/>
<g>
	<path fill="#6CAB85" d="M368.32,39.66c1.36-2.57,3-4.93,4.87-7.02c2.88-3.23,4.93-4.87,6.07-4.87c0.2,0,0.37,0.04,0.52,0.13
		c0.79,0.46,0.61,1.93,0.53,2.37c-0.18,1.04-0.78,2.01-3.3,3.91c-1.12,0.85-1.9,1.32-2.72,1.83c-0.51,0.31-1.03,0.63-1.67,1.06
		c-1.33,0.9-2.62,1.89-3.83,2.95L368.32,39.66z"/>
</g>
<g>
	<path fill="#6CAB85" d="M377.23,35.79l-0.03-0.61c1.99-0.1,4.03-0.24,6.05-0.41l1.26-0.11c13.28-1.15,22.05-1.91,29.63-6.97
		c1.01-0.67,1.79-1.32,2.88-2.22c1.32-1.09,3.13-2.59,6.34-4.95c2.14-1.58,4.34-3.12,6.52-4.6l0.34,0.5
		c-2.18,1.47-4.36,3.01-6.5,4.58c-3.19,2.34-4.99,3.84-6.31,4.93c-1.1,0.91-1.9,1.57-2.93,2.26c-7.71,5.15-16.55,5.91-29.92,7.07
		l-1.26,0.11C381.27,35.55,379.23,35.69,377.23,35.79z"/>
</g>
<path fill="#6CAB85" d="M377.21,35.86c4.58-0.23,9.14-0.65,13.7-1.1c4.04-0.39,8.09-0.84,12.05-1.75c3.37-0.77,6.66-1.9,9.68-3.61
	c2.2-1.25,4.08-2.84,6.03-4.43c3.39-2.76,6.94-5.32,10.54-7.79c0.34-0.23,0.68-0.46,1.01-0.69c0.4-0.27,0.02-0.93-0.38-0.66
	c-3.61,2.44-7.16,4.98-10.57,7.69c-1.92,1.52-3.73,3.19-5.8,4.5c-2.89,1.82-6.07,3.08-9.37,3.93c-3.8,0.98-7.71,1.48-11.61,1.89
	c-4.69,0.49-9.4,0.92-14.11,1.19c-0.39,0.02-0.79,0.04-1.18,0.06C376.72,35.13,376.72,35.89,377.21,35.86L377.21,35.86z"/>
<g>
	<path fill="#6CAB85" d="M430.51,16.61c-0.27,0-0.63,0-0.75-0.34c-0.39-1.11,3.51-2.86,6.86-4.13c0.27-0.1,0.99-0.38,1.87-0.38
		c0.34,0,0.67,0.04,0.99,0.12c0.61,0.16,1.16,0.48,1.54,0.91c0.17,0.19,0.51,0.57,0.47,1.09c-0.03,0.41-0.28,0.69-0.36,0.78
		c-1.22,1.35-5.29,1.61-5.46,1.63c-1.2,0.07-2.14,0.14-2.88,0.19C431.56,16.56,430.88,16.61,430.51,16.61z"/>
</g>
<g>
	<path fill="#6CAB85" d="M401.19,40.41c-1.6,0-3.02-0.5-3.08-0.53c-1.79-0.64-4.2-1.45-7.27-2.48c-1.76-0.59-3.71-1.24-5.84-1.96
		l0.11-0.59c5.98,0.24,16.29,0.89,18.06,2.44c0.38,0.33,1.25,1.1,1.03,1.9c-0.1,0.35-0.4,0.63-0.91,0.84
		C402.69,40.29,401.98,40.41,401.19,40.41L401.19,40.41z"/>
</g>
<g>
	<path fill="#6CAB85" d="M420.09,32.41c-3.13,0-6.26-0.65-9.31-1.92l-1-0.42l1.07-0.16c4.01-0.61,7.84-1.67,11.38-3.17
		c1.12-0.47,2.1-0.93,2.96-1.34c1.59-0.75,2.74-1.3,3.55-1.3c0.35,0,0.64,0.1,0.86,0.31c0.29,0.27,0.45,0.71,0.46,1.27
		c0.02,1.45-0.91,3.42-2.2,4.67c-2.02,1.95-4.7,2.01-7.3,2.06C420.41,32.41,420.26,32.41,420.09,32.41z"/>
</g>
<g>
	<path fill="#6CAB85" d="M411.57,29.67c0.09-0.21,0.24-0.56,0.42-1c2.59-6.03,4.3-10.01,7.83-12.3c0.83-0.54,2.51-1.45,3.52-1.45
		c0.32,0,0.57,0.09,0.74,0.26c0.36,0.38,0.21,0.98,0.15,1.21c-0.57,2.26-7.87,9.5-12.18,13.61L411.57,29.67z"/>
</g>
<g>
	<path fill="#6CAB85" d="M380.62,43.71c-2.46,0-5.02-0.34-5.31-0.38c-3.07-0.42-6.09-1.27-8.97-2.53l0.2-0.57
		c1.89,0.51,3.75,0.77,5.52,0.77c1.01,0,2.02-0.08,3-0.25c1.23-0.21,2.36-0.54,3.35-0.83c1.28-0.38,2.39-0.7,3.42-0.7
		c0.77,0,1.42,0.19,2.01,0.57c0.73,0.47,1.77,1.58,1.47,2.53C385.01,43.25,383.48,43.71,380.62,43.71z"/>
</g>
<path fill="#6CAB85" d="M392.64,30.05c2.73,0.06,5.01-0.08,6.67-0.23c3.96-0.36,5-0.86,5.52-1.72c0.45-0.74,0.59-1.91,0.05-2.48
	c-0.93-0.97-3.54,0.13-6.24,1.26C397,27.58,394.93,28.59,392.64,30.05z"/>
<path fill="#6CAB85" d="M318.01,40.75c3.87,3.8,7.37,7.96,10.45,12.42c0.28,0.4,0.94,0.02,0.66-0.38
	c-3.11-4.52-6.65-8.73-10.56-12.58C318.2,39.87,317.66,40.41,318.01,40.75L318.01,40.75z"/>
<g>
	<path fill="#6CAB85" d="M321.56,43.88c-0.21,0.08,0.97,1.89,0.86,4.74c-0.06,1.51-0.45,2.57-0.03,4.39c0.34,1.5,0.8,1.68,0.95,1.72
		c0.63,0.16,1.52-0.56,1.87-1.36c0.45-1.05-0.08-2.05-1.1-4.18C322.3,45.41,321.75,43.81,321.56,43.88z"/>
</g>
<g>
	<path fill="#6CAB85" d="M321.56,43.88c2.95,0.07,5.21,0.67,6.67,1.18c2.04,0.71,4.05,1.45,4.42,3.06c0.14,0.63,0.08,1.6-0.46,1.89
		c-0.99,0.54-2.65-2.12-6.26-4.25C324.25,44.76,322.67,44.2,321.56,43.88z"/>
</g>
<path fill="#6CAB85" d="M326.38,57.34"/>
<path fill="#6CAB85" d="M327.58,51.52c0.67,1.34,1.09,2.46,1.34,3.23c0.62,1.85,0.62,2.61,1.41,3.52c0.23,0.27,1.44,1.67,2.72,1.34
	c1.27-0.32,2.05-2.21,1.58-3.35c-0.38-0.94-1.45-1.02-3.17-1.88C329.8,53.55,328.54,52.51,327.58,51.52z"/>
<path fill="#6CAB85" stroke="#245650" stroke-width="4" stroke-miterlimit="10" d="M86.56,16.1"/>
<path fill="#6CAB85" d="M369.89,58.16c7.13-0.87,14.22-2.04,21.25-3.55c6.44-1.39,12.83-3.07,19.11-5.05
	c5.81-1.83,11.54-3.93,17.16-6.29c5.16-2.17,10.22-4.56,15.17-7.17c4.68-2.47,9.26-5.14,13.71-8.01c0.77-0.5,1.54-1,2.31-1.51
	c0.41-0.27,0.03-0.93-0.38-0.66c-4.59,3.05-9.32,5.9-14.16,8.53c-4.86,2.64-9.83,5.05-14.9,7.25c-5.5,2.39-11.12,4.51-16.82,6.38
	c-6.17,2.03-12.44,3.76-18.78,5.21c-6.91,1.58-13.9,2.83-20.93,3.76c-0.91,0.12-1.82,0.24-2.73,0.35
	C369.41,57.46,369.4,58.22,369.89,58.16L369.89,58.16z"/>
<g>
	<path fill="#6CAB85" d="M450.03,31.07c1.38-2.06,1.96-3.84,2.23-5.09c0.27-1.26,0.55-2.64,1.57-4.01c0.39-0.52,1-1.01,1.64-0.85
		c0.52,0.13,0.78,0.74,0.84,0.9c0.61,1.45-0.53,3.26-1.2,4.29C454.34,27.5,452.83,29.42,450.03,31.07z"/>
</g>
<g>
	<path fill="#6CAB85" d="M447.52,32.33c5.24-1.02,8.77-2.67,11.06-4.04c1.39-0.83,3.36-2.16,4.58-1.43
		c0.77,0.46,1.13,1.69,0.78,2.56c-0.53,1.31-2.6,1.56-4.45,1.77C456.37,31.54,452.34,31.95,447.52,32.33z"/>
</g>
<g>
	<path fill="#6CAB85" d="M430.39,40.68c1.14-2.72,2.52-4.52,3.6-5.69c1.73-1.86,3.56-3.01,3.51-4.91c-0.01-0.23-0.06-1.28-0.75-1.68
		c-0.9-0.53-2.28,0.4-2.55,0.59c-1.34,0.91-1.94,2.3-2.44,3.88C431.2,34.62,430.55,37.25,430.39,40.68z"/>
</g>
<g>
	<path fill="#6CAB85" d="M435.34,39.05c2.96-0.77,9.19-2.03,12.9,0.45c0.61,0.41,3.04,2.03,2.7,3c-0.04,0.13-0.16,0.33-0.59,0.5
		c-2,0.81-5.18-1.4-8.51-2.65C440.38,39.8,438.21,39.18,435.34,39.05z"/>
</g>
<path fill="#6CAB85" d="M415.89,47.56c4.17-0.69,8.48-0.86,12.65-0.08c1.25,0.23,2.48,0.58,3.7,0.92c1.75,0.49,3.52,0.96,5.29,1.37
	c2.53,0.6,5.09,1.11,7.66,1.54c0.48,0.08,0.68-0.65,0.2-0.73c-4.22-0.71-8.4-1.65-12.53-2.79c-1.24-0.35-2.48-0.71-3.75-0.96
	c-1.75-0.35-3.53-0.54-5.3-0.6c-2.72-0.08-5.44,0.16-8.12,0.6C415.2,46.9,415.41,47.64,415.89,47.56L415.89,47.56z"/>
<g>
	<path fill="#6CAB85" d="M445.04,50.39c2.08-0.06,3.6,0.25,4.77,0.65c0.95,0.32,1.92,0.66,2,1.31c0.05,0.39-0.23,0.84-0.59,1.05
		c-0.48,0.27-1.05,0.09-1.32,0c-1.14-0.37-3.86-1.36-7.44-2.74C443.13,50.53,444.01,50.42,445.04,50.39z"/>
</g>
<g>
	<path fill="#6CAB85" d="M433.69,47.99c3.23-1.52,5.89-1.8,7.57-1.8c0.39,0,4.36-0.02,4.59,1.06c0.08,0.37-0.32,0.75-0.47,0.89
		c-1.33,1.25-3.55,0.52-8.03,0.09C435.93,48.09,434.7,48.02,433.69,47.99z"/>
</g>
<g>
	<path fill="#6CAB85" d="M424.46,46.63c2.24,1.65,3.8,3.25,4.82,4.44c2.27,2.64,3.42,5,5.5,5.09c0.17,0.01,1.27,0.06,1.65-0.56
		c0.07-0.11,0.34-0.62-0.35-1.84c-1.15-2.03-3.27-3.06-4.46-3.64C428.75,48.73,426.41,47.58,424.46,46.63z"/>
</g>
<g>
	<path fill="#6CAB85" d="M413.3,48.77c0.64-1.22,3.08-5.81,5.43-8.65c0.37-0.45,1.09-1.28,2.25-1.55c1.07-0.25,2.52-0.03,2.82,0.69
		c0.29,0.7-0.52,1.73-2.27,3.36C419.81,44.25,417.14,46.48,413.3,48.77z"/>
</g>
<g>
	<path fill="#6CAB85" d="M403.46,50.97c4.56,0.88,7.97,0.46,10.27-0.09c2.74-0.66,5.26-1.87,6.79-0.61
		c0.68,0.56,1.15,1.58,0.85,2.28c-0.49,1.16-2.91,1.14-4.91,1.13c-2.18-0.02-3.94-0.33-5.79-0.74
		C408.84,52.54,406.37,51.92,403.46,50.97z"/>
</g>
<g>
	<path fill="#6CAB85" d="M395.98,53.2c1.99-2.07,3.9-3.49,5.33-4.41c0.68-0.44,3.23-2.06,5.95-2.13c1.06-0.03,1.48,0.19,1.64,0.48
		c0.3,0.55-0.31,1.38-0.35,1.43c-0.96,1.27-3.06,1.21-3.81,1.23C402.77,49.82,399.9,50.46,395.98,53.2z"/>
</g>
<g>
	<path fill="#6CAB85" d="M438.2,37.78c-0.08-0.6,6.91-2.09,13.97-2.46c7.55-0.39,10.39,0.75,11.94,2.64
		c0.23,0.28,1.27,1.54,0.87,2.25c-0.76,1.34-5.83-1.09-12.77-2.16C443.8,36.75,438.28,38.32,438.2,37.78z"/>
</g>
<path fill="#6CAB85" d="M458.58,28.3"/>
<path fill="#6CAB85" d="M440.22,37.5"/>
<path fill="#6CAB85" d="M431.83,42.95"/>
<path fill="#6CAB85" d="M444.15,34.38c4.36,0.25,8.75,0.05,13.05-0.7c1.96-0.34,3.88-0.81,5.79-1.35c1.92-0.54,3.82-1.02,5.81-1.24
	c1.5-0.16,2.99-0.22,4.49-0.09c1.45,0.13,2.89,0.35,4.33,0.49c2.75,0.26,5.54,0.4,8.3,0.45c3.88,0.06,7.76-0.24,11.61-0.76
	c0.64-0.09,1.28-0.18,1.92-0.27c0.48-0.07,0.28-0.81-0.2-0.73c-4.1,0.62-8.25,1.02-12.4,1.01c-2.62,0-5.26-0.15-7.88-0.34
	c-2.94-0.21-5.86-0.83-8.81-0.63c-2,0.13-3.97,0.46-5.91,0.98c-1.99,0.53-3.96,1.12-5.98,1.52c-4,0.8-8.08,1.11-12.15,1
	c-0.66-0.02-1.32-0.05-1.99-0.08C443.66,33.59,443.66,34.36,444.15,34.38L444.15,34.38z"/>
<g>
	<path fill="#6CAB85" d="M471.47,30.54c2.75,2.32,5.28,3.77,7.1,4.66c1.22,0.6,6.57,3.25,7.52,2.03c0.46-0.59-0.29-1.85-0.42-2.05
		c-0.49-0.79-1.33-1.45-4.35-2.26c-2.18-0.59-3.15-0.63-5.15-1.05C474.29,31.47,472.7,30.98,471.47,30.54z"/>
</g>
<path fill="#6CAB85" d="M481.19,31.71c4.31-1.48,8.68-2.78,13.05-4.05c3.97-1.16,7.98-2.27,12.07-2.89
	c3.48-0.53,7.04-0.65,10.52-0.09c2.37,0.38,4.61,1.18,6.89,1.88c4.07,1.25,8.22,2.27,12.38,3.2c0.38,0.09,0.77,0.17,1.15,0.25
	c0.48,0.1,0.68-0.63,0.2-0.73c-4.17-0.9-8.33-1.91-12.42-3.12c-2.28-0.67-4.53-1.54-6.86-2.01c-3.48-0.7-7.05-0.75-10.57-0.32
	c-4.01,0.49-7.94,1.49-11.82,2.59c-4.6,1.31-9.2,2.67-13.73,4.19c-0.36,0.12-0.72,0.24-1.07,0.37
	C480.52,31.14,480.72,31.87,481.19,31.71L481.19,31.71z"/>
<g>
	<path fill="#6CAB85" d="M547.53,29.86c0.19-0.14,0.73-0.56,0.98-1.27c0.08-0.23,0.21-0.61,0.04-0.95c-0.13-0.28-0.4-0.4-0.49-0.45
		c-1.55-0.75-5.45,0.54-5.45,0.54c-4.89,1.61-5.27,1.66-5.26,1.91c0.05,1.1,7.15,1,7.6,0.99C545.39,30.62,546.55,30.59,547.53,29.86
		z"/>
</g>
<g>
	<path fill="#6CAB85" d="M488.53,28.72c4.61-3.95,8.24-6.99,10.48-8.99c0,0,2.26-2.01,4.54-1.99c0.62,0.01,0.84,0.22,0.93,0.32
		c0.39,0.5-0.09,1.45-0.27,1.82C503.08,22.12,491.35,27.45,488.53,28.72z"/>
</g>
<g>
	<path fill="#6CAB85" d="M514.31,23.73c4.85-1.13,8.87-1.35,11.83-1.3c4.22,0.07,6.92,0.7,7.44-0.4c0.53-1.11-1.39-3.51-3.69-4.45
		c-2.45-1-4.84-0.14-7.33,0.8C520.61,19.12,517.48,20.61,514.31,23.73z"/>
</g>
<g>
	<path fill="#6CAB85" d="M516.12,24.53c4.84,4.79,7.78,7.64,11.74,8.42c1.4,0.28,3.75,0.45,4.06-0.3c0.13-0.33-0.16-0.73-0.28-0.88
		c-1.49-2.03-13.56-6.91-16.29-8C515.52,23.93,515.79,24.2,516.12,24.53z"/>
</g>
<g>
	<path fill="#6CAB85" d="M469.23,30.67c-0.21-0.31,3.07-3.25,7.3-5.63c0.83-0.47,7.95-4.42,9.27-2.83c0.48,0.58,0.09,1.78-0.43,2.52
		c-1.41,2.02-4.21,1.24-8.32,2.24C472.1,28.17,469.42,30.96,469.23,30.67z"/>
</g>
<path fill="#6CAB85" d="M507.81,31.56c-0.55,0-1.12-0.01-1.7-0.02c-2.26-0.04-4.55-0.28-6.8-0.71l-0.98-0.19l0.92-0.39
	c2.07-0.88,4.19-1.65,6.3-2.28c2.09-0.62,3.44-0.9,4.37-0.9c0.7,0,1.21,0.15,1.66,0.49c0.8,0.6,1.43,1.76,1.08,2.63
	C512.22,31.33,510.4,31.56,507.81,31.56z"/>
<path fill="#6CAB85" d="M577.62,34.32c3.61,0.58,7.15,1.63,10.41,3.31c3.05,1.57,5.81,3.62,9.07,4.78c1.91,0.68,3.91,1.05,5.92,1.23
	c1.13,0.1,2.26,0.05,3.39,0.01c3.79-0.15,7.61-0.04,11.39,0.23c4.28,0.31,8.52,1.05,12.68,2.11c0.47,0.12,0.68-0.61,0.2-0.73
	c-3.84-0.98-7.74-1.68-11.68-2.04c-1.89-0.17-3.79-0.24-5.69-0.31c-1.92-0.07-3.83-0.12-5.74-0.07c-1.19,0.04-2.38,0.11-3.57,0.08
	c-1.77-0.05-3.57-0.34-5.27-0.81c-1.82-0.5-3.53-1.28-5.18-2.2c-1.49-0.83-2.93-1.77-4.43-2.59c-3.5-1.92-7.34-3.13-11.28-3.76
	C577.34,33.51,577.13,34.24,577.62,34.32L577.62,34.32z"/>
<g>
	<path fill="#6CAB85" d="M602.77,43.24c2.95-2.07,5.59-3.3,7.47-4.04c1.27-0.5,6.83-2.68,7.67-1.38c0.41,0.63-0.45,1.82-0.6,2.01
		c-0.56,0.74-1.46,1.33-4.53,1.88c-2.22,0.4-3.19,0.35-5.22,0.61C605.66,42.56,604.03,42.92,602.77,43.24z"/>
</g>
<g>
	<path fill="#6CAB85" d="M581.45,53.21c3.61-0.05,6.49,0.43,8.46,0.88c1.33,0.3,7.16,1.64,7.11,3.18c-0.02,0.75-1.41,1.24-1.64,1.32
		c-0.88,0.3-1.96,0.28-4.81-1c-2.06-0.92-2.83-1.5-4.64-2.44C584.22,54.27,582.69,53.65,581.45,53.21z"/>
</g>
<path fill="#6CAB85" d="M612.23,43.59c4.17,1.85,8.43,3.52,12.68,5.17c3.89,1.51,7.83,2.97,11.89,3.95
	c3.46,0.83,7.02,1.27,10.58,1.02c2.43-0.17,4.75-0.76,7.11-1.27c4.19-0.91,8.43-1.58,12.68-2.15c0.39-0.05,0.78-0.1,1.17-0.15
	c0.48-0.06,0.49-0.82,0-0.76c-4.22,0.54-8.43,1.18-12.6,2.03c-2.29,0.47-4.57,1.14-6.9,1.41c-3.49,0.41-7.01,0.17-10.45-0.55
	c-3.94-0.82-7.75-2.16-11.5-3.58c-4.44-1.68-8.87-3.42-13.23-5.31c-0.35-0.15-0.69-0.3-1.04-0.46
	C612.17,42.74,611.78,43.4,612.23,43.59L612.23,43.59z"/>
<g>
	<path fill="#6CAB85" d="M678.49,50.42c0.18,0.16,0.67,0.62,0.86,1.35c0.06,0.24,0.16,0.62-0.04,0.95
		c-0.16,0.26-0.43,0.37-0.53,0.41c-1.61,0.62-5.38-1-5.38-1c-4.73-2.03-5.11-2.1-5.07-2.36c0.15-1.09,7.21-0.39,7.66-0.34
		C676.42,49.48,677.57,49.61,678.49,50.42z"/>
</g>
<g>
	<path fill="#6CAB85" d="M619.6,46.52c-0.16,0.27,0.64,0.69,5.66,5.73c1.65,1.66,3.02,3.08,4.01,4.12c0,0,2.08,2.2,4.36,2.37
		c0.62,0.05,0.86-0.14,0.95-0.24c0.43-0.47,0.03-1.47-0.11-1.84C633.27,53.67,620.26,45.41,619.6,46.52z"/>
</g>
<g>
	<path fill="#6CAB85" d="M644.86,53.69c0.43-0.82,4.16,1.59,11.67,2.3c4.48,0.43,6.97-0.07,7.38,1.03c0.43,1.15-1.69,3.38-4.06,4.12
		c-2.48,0.77-4.72-0.24-7.23-1.42C648.58,57.82,644.39,54.59,644.86,53.69z"/>
</g>
<g>
	<path fill="#6CAB85" d="M600.54,42.93c-0.24,0.29,2.78,3.5,6.79,6.23c0.79,0.54,7.54,5.09,8.99,3.62c0.53-0.53,0.25-1.76-0.21-2.55
		c-1.23-2.13-4.09-1.59-8.1-2.94C603.19,45.66,600.77,42.66,600.54,42.93z"/>
</g>
<path fill="#6CAB85" d="M628.11,45.39c-0.08,0.49,2.37,0.68,8.51,3.04c2.61,1,4.34,1.8,5.7,0.95c0.74-0.46,1.4-1.43,1.17-2.19
	c-0.26-0.87-1.66-1.29-6.14-1.68C632.7,45.11,628.22,44.72,628.11,45.39z"/>
<path fill="#6CAB85" d="M427.7,43.18c8.6-0.89,17.33-0.4,25.76,1.56c2.47,0.57,4.91,1.27,7.31,2.08c0.46,0.16,0.66-0.58,0.2-0.73
	c-4.48-1.51-9.09-2.62-13.77-3.3c-4.37-0.63-8.79-0.89-13.2-0.78c-2.11,0.05-4.21,0.19-6.31,0.41
	C427.22,42.47,427.22,43.23,427.7,43.18z"/>
<path fill="#6CAB85" d="M442.27,42.86c6.21,3.48,12.75,6.24,19.45,8.63c3.48,1.24,7.02,2.3,10.7,2.81c2.83,0.39,5.7,0.51,8.55,0.35
	c4.13-0.23,8.22-1.02,12.16-2.28c0.46-0.15,0.27-0.88-0.2-0.73c-6.14,1.96-12.63,2.76-19.05,2.08c-3.66-0.39-7.21-1.33-10.68-2.52
	c-3.75-1.29-7.48-2.69-11.12-4.29c-3.21-1.42-6.36-2.98-9.42-4.7C442.23,41.96,441.84,42.62,442.27,42.86L442.27,42.86z"/>
<g>
	<path fill="#6CAB85" d="M491.84,51.92c-0.16-0.87,6.24-2.42,10.59-2.98c1.53-0.2,3.63-0.37,5.28,0.91
		c0.26,0.21,1.37,1.06,1.17,1.71c-0.28,0.92-2.94,0.73-8.67,0.63C493.12,52.08,491.91,52.3,491.84,51.92z"/>
</g>
<path fill="#6CAB85" d="M474.35,54.24c3.81-2.82,7.63-5.65,11.72-8.06c2.08-1.23,4.23-2.34,6.48-3.21c2-0.78,4.05-1.39,6.14-1.87
	c1.9-0.44,3.82-0.75,5.75-1.04c0.48-0.07,0.28-0.8-0.2-0.73c-3.8,0.55-7.57,1.31-11.19,2.64c-4.49,1.65-8.59,4.16-12.52,6.86
	c-2.23,1.53-4.4,3.14-6.58,4.75C473.58,53.88,473.96,54.54,474.35,54.24L474.35,54.24z"/>
<path fill="#6CAB85" d="M472.79,53.83c0.76-3.66,2.21-6.22,3.26-7.76c1.26-1.84,2.67-3.83,4.81-3.99c1.3-0.1,2.85,0.47,2.98,1.25
	c0.15,0.9-1.62,1.85-2.59,2.43C479.01,47.09,476,49.43,472.79,53.83z"/>
<path fill="#6CAB85" d="M494.06,42.63c4.23,1.63,8.46,3.27,12.7,4.89c2.1,0.8,4.26,1.4,6.41,2.07c1.82,0.57,3.63,1.17,5.44,1.78
	c0.46,0.16,0.66-0.58,0.2-0.73c-2.52-0.85-5.05-1.66-7.6-2.44c-1.24-0.38-2.47-0.74-3.68-1.19c-2.02-0.76-4.04-1.55-6.05-2.33
	c-2.4-0.93-4.81-1.85-7.21-2.78C493.8,41.72,493.6,42.46,494.06,42.63L494.06,42.63z"/>
<g>
	<path fill="#6CAB85" d="M512.39,49.24c0.75,1.85,2.22,4.68,5.13,6.87c2.82,2.13,6.59,3.35,7.04,2.66c0.53-0.81-3.45-4.21-3.92-4.6
		C517.65,51.63,514.65,50.14,512.39,49.24z"/>
</g>
<g>
	<path fill="#6CAB85" d="M484.11,53.63c0.15-0.35,4.13,2.67,9.98,2.56c0,0,7.56-0.16,8.75,1.21c0.15,0.17,1.1,1.27,0.76,2.3
		c-0.29,0.89-1.41,1.26-1.86,1.4c-1.12,0.37-2.12,0.17-2.5,0.09c-3.38-0.72-6.13-2.68-6.13-2.68
		C485.53,54.84,484.02,53.85,484.11,53.63z"/>
</g>
<g>
	<path fill="#6CAB85" d="M493.7,41.91c-0.22-0.18,0.99-1.99,1.81-3.09c1.18-1.58,1.94-2.6,3.29-3.42c1.84-1.11,4.23-1.53,4.53-0.98
		c0.25,0.46-1.03,1.59-1.34,1.87c-1.34,1.18-2.41,1.38-3.7,1.99C495.25,39.73,493.94,42.11,493.7,41.91z"/>
</g>
<g>
	<path fill="#6CAB85" d="M499.7,40.56c4.09,1.21,6.65,2.59,8.31,3.71c0.4,0.27,2.33,1.61,4.74,1.59c1.25-0.01,1.48-0.38,1.54-0.5
		c0.31-0.63-0.69-1.68-1.07-2.07C510.85,40.77,502.88,40.56,499.7,40.56z"/>
</g>
<g>
	<path fill="#6CAB85" d="M482.05,48.27c-0.06-0.18,1.75-1.05,4.13-1.76c5.03-1.52,11.02-1.9,11.38-0.67
		c0.07,0.22-0.07,0.44-0.21,0.67c-0.4,0.65-1.32,1.1-3.63,1.15c-1.82,0.04-3.05-0.2-3.87-0.31
		C485.51,46.76,482.13,48.52,482.05,48.27z"/>
</g>
<g>
	<path fill="#6CAB85" d="M455.27,48.09c3.09,3.78,6.27,6.06,8.42,7.36c0,0,4.45,2.7,8.82,2.54c0.33-0.01,1.23-0.04,1.35-0.42
		c0.16-0.5-0.41-0.91-0.9-1.13c-2.13-0.95-3.98-1.73-6.06-2.26c0,0-1.27-0.33-3.71-1.16C461.17,52.34,458.38,50.99,455.27,48.09z"/>
</g>
<path fill="#6CAB85" d="M516.36,51.38c2.36-3.37,6.42-4.94,10.2-6.09c4.36-1.32,8.78-2.56,13.27-3.38c1.85-0.34,3.72-0.61,5.6-0.65
	c0.49-0.01,0.49-0.77,0-0.76c-3.82,0.07-7.63,0.97-11.32,1.9c-2.45,0.62-4.89,1.3-7.31,2.02c-1.99,0.59-3.97,1.26-5.83,2.2
	c-2.07,1.05-3.94,2.46-5.28,4.38C515.43,51.4,516.09,51.78,516.36,51.38L516.36,51.38z"/>
<g>
	<path fill="#6CAB85" d="M520.17,47.5c3.78-0.1,6.85,0.11,9.02,0.33c2.4,0.25,4.76,0.63,8.04,0.14c2.78-0.42,4.26-1.16,4.99-2.41
		c0.19-0.33,0.63-1.07,0.35-1.59c-0.64-1.21-4.59-0.31-7.65,0.38C531.52,45.11,526.55,46.2,520.17,47.5z"/>
</g>
<g>
	<path fill="#6CAB85" d="M524.87,45.43c2.52-2.61,4.81-4.61,6.53-6.02c0.44-0.36,2.5-2.37,5.34-3.61c0.48-0.21,1.5-0.62,2.81-0.51
		c0.18,0.02,2.24,0.21,2.43,1.05c0.07,0.32-0.04,1.01-3.23,2.93c-2.86,1.73-5.26,2.68-6.24,3.06
		C530.88,43,528.26,44.04,524.87,45.43z"/>
</g>
<g>
	<path fill="#6CAB85" d="M542.89,41.13c-0.06-0.46,2.88-1.22,8.77-2.74c5.58-1.43,7.2-1.66,8.03-0.74c0.76,0.86,0.71,2.54-0.06,3.5
		c-1.05,1.31-3.06,0.85-8.13,0.52C545.25,41.27,542.96,41.61,542.89,41.13z"/>
</g>
<path fill="#6CAB85" d="M646.25,54.09c1.85-3.7,5.62-5.84,9.22-7.53c4.13-1.94,8.33-3.79,12.66-5.24c1.8-0.6,3.63-1.14,5.5-1.45
	c0.48-0.08,0.28-0.81-0.2-0.73c-3.76,0.62-7.38,2.05-10.89,3.49c-2.31,0.95-4.59,1.96-6.85,3c-1.91,0.88-3.81,1.83-5.53,3.05
	c-1.87,1.32-3.53,2.97-4.56,5.03C645.37,54.14,646.03,54.53,646.25,54.09L646.25,54.09z"/>
<g>
	<path fill="#6CAB85" d="M649.48,49.65c3.73-0.64,6.79-0.87,8.97-0.96c2.41-0.1,4.8-0.05,7.97-1.01c2.69-0.81,4.04-1.76,4.59-3.1
		c0.14-0.35,0.47-1.15,0.12-1.62c-0.81-1.11-4.58,0.35-7.52,1.47C660.36,45.67,655.6,47.46,649.48,49.65z"/>
</g>
<g>
	<path fill="#6CAB85" d="M653.83,46.94c2.12-2.95,4.09-5.25,5.6-6.89c0.39-0.42,2.13-2.7,4.77-4.33c0.44-0.27,1.4-0.83,2.71-0.91
		c0.18-0.01,2.24-0.11,2.56,0.7c0.12,0.3,0.1,1-2.77,3.36c-2.58,2.12-4.82,3.4-5.73,3.92C659.42,43.67,656.98,45.08,653.83,46.94z"
		/>
</g>
<g>
	<path fill="#6CAB85" d="M672.51,39.8l0.84-0.56c1.94-1.28,4.01-2.43,6.13-3.42c2.69-1.25,5.01-2.34,6.62-2.34
		c0.64,0,1.14,0.16,1.55,0.5c0.97,0.82,1.22,2.66,0.52,3.86c-0.66,1.13-2,1.57-8.22,1.83c-1.99,0.08-4.01,0.12-5.98,0.12
		L672.51,39.8z"/>
</g>
<path fill="#6CAB85" d="M515.42,40.38c-0.88,0-1.57-0.07-2.45-0.16c-0.61-0.06-1.31-0.14-2.21-0.2c-1.08-0.07-2.18-0.11-3.26-0.11
	c-1.04,0-2.09,0.03-3.14,0.1l-0.1-0.6c1.95-0.55,3.83-1.24,5.61-2.05c0.7-0.32,1.32-0.63,1.86-0.9c1.64-0.82,2.82-1.41,4.72-1.58
	c0.32-0.03,0.63-0.04,0.92-0.04c1.18,0,2.19,0.23,3.08,0.69c0.6,0.32,2.56,1.44,2.35,2.65c-0.29,1.68-4.65,2.08-6.51,2.18
	C516,40.37,515.71,40.38,515.42,40.38z"/>
<path fill="#6CAB85" d="M518.7,51c2.36,0.44,4.28,0.4,5.66,0.27c2.77-0.27,4.25-1.04,5.46-0.14c0.9,0.68,1.37,2.08,0.91,2.87
	c-0.53,0.92-2.19,0.82-3.39,0.75c-1.17-0.07-2.22-0.35-3.55-0.89C522.49,53.34,520.68,52.47,518.7,51z"/>
<path fill="#6CAB85" stroke="#245650" stroke-width="4" stroke-miterlimit="10" d="M520.32,46.32"/>
<path fill="#6CAB85" d="M457.7,45.86c2.79,0.16,4.96-0.2,6.47-0.58c2.65-0.67,4.24-1.66,5.19-0.88c0.7,0.57,0.8,1.91,0.29,2.68
	c-0.61,0.92-2.05,0.89-3.57,0.85c-0.82-0.02-1.81-0.13-4.39-0.83C460.68,46.82,459.31,46.42,457.7,45.86z"/>
<path fill="#6CAB85" d="M529.45,27c7.62-1.42,15.47-1.64,23.14-0.49c2.37,0.36,4.72,0.84,7.04,1.44c0.47,0.12,0.68-0.61,0.2-0.73
	c-8.09-2.1-16.52-2.69-24.82-1.8c-1.93,0.21-3.86,0.49-5.77,0.85C528.76,26.36,528.97,27.09,529.45,27L529.45,27z"/>
<path fill="#6CAB85" d="M544.02,25.74c6.53,2.88,13.3,5.02,20.22,6.76c3.6,0.91,7.25,1.63,10.97,1.79c2.86,0.12,5.73-0.05,8.56-0.48
	c4.09-0.62,8.07-1.81,11.87-3.44c0.45-0.19,0.06-0.85-0.38-0.66c-5.93,2.54-12.35,3.93-18.81,3.84c-3.66-0.05-7.26-0.65-10.82-1.51
	c-3.85-0.93-7.68-1.97-11.44-3.22c-3.32-1.1-6.58-2.35-9.78-3.76C543.96,24.89,543.58,25.54,544.02,25.74L544.02,25.74z"/>
<g>
	<path fill="#6CAB85" d="M594.29,30.38c-0.25-0.85,5.97-3,10.26-3.97c1.51-0.34,3.58-0.72,5.34,0.4c0.28,0.18,1.46,0.93,1.33,1.6
		c-0.19,0.95-2.86,1-8.57,1.45C595.59,30.43,594.4,30.75,594.29,30.38z"/>
</g>
<path fill="#6CAB85" d="M577.16,34.32c3.5-3.15,7.02-6.31,10.84-9.08c1.94-1.41,3.95-2.7,6.09-3.78c1.92-0.97,3.92-1.79,5.97-2.47
	c1.85-0.61,3.73-1.11,5.63-1.57c0.48-0.12,0.27-0.85-0.2-0.73c-3.77,0.92-7.47,2.04-10.97,3.72c-4.31,2.06-8.15,4.97-11.79,8.03
	c-2.07,1.74-4.08,3.55-6.09,5.36C576.26,34.11,576.8,34.64,577.16,34.32L577.16,34.32z"/>
<g>
	<path fill="#6CAB85" d="M575.52,34.09c0.4-3.72,1.6-6.4,2.5-8.04c1.08-1.95,2.29-4.06,4.41-4.43c1.28-0.22,2.88,0.2,3.08,0.97
		c0.24,0.88-1.43,2-2.35,2.67C581.07,26.79,578.29,29.4,575.52,34.09z"/>
</g>
<path fill="#6CAB85" d="M595.58,20.92c4.37,1.22,8.74,2.46,13.11,3.67c2.17,0.6,4.38,0.99,6.57,1.45c1.87,0.39,3.73,0.82,5.58,1.25
	c0.48,0.11,0.68-0.62,0.2-0.73c-2.59-0.61-5.19-1.18-7.79-1.71c-1.27-0.26-2.53-0.5-3.78-0.84c-2.09-0.56-4.17-1.16-6.25-1.75
	c-2.48-0.69-4.96-1.39-7.44-2.08C595.31,20.06,595.11,20.79,595.58,20.92L595.58,20.92z"/>
<g>
	<path fill="#6CAB85" d="M614.5,25.77c0.92,1.77,2.66,4.45,5.76,6.35c3.02,1.85,6.88,2.72,7.26,1.98c0.45-0.85-3.84-3.86-4.34-4.21
		C619.97,27.65,616.83,26.45,614.5,25.77z"/>
</g>
<g>
	<path fill="#6CAB85" d="M586.77,32.82c0.12-0.36,4.36,2.27,10.18,1.6c0,0,7.51-0.88,8.83,0.38c0.16,0.15,1.21,1.16,0.98,2.21
		c-0.21,0.92-1.29,1.39-1.71,1.57c-1.08,0.47-2.1,0.37-2.48,0.33c-3.43-0.4-6.36-2.09-6.36-2.09
		C588.29,33.89,586.7,33.04,586.77,32.82z"/>
</g>
<g>
	<path fill="#6CAB85" d="M576.41,49.06c0.36-0.12,0.74,4.83,4.69,9.12c0,0,5.13,5.54,4.89,7.31c-0.03,0.22-0.23,1.66-1.23,2.09
		c-0.87,0.37-1.89-0.22-2.29-0.45c-1.02-0.59-1.54-1.46-1.73-1.8c-1.69-2.99-2.04-6.33-2.04-6.34
		C576.44,50.91,576.19,49.13,576.41,49.06z"/>
</g>
<g>
	<path fill="#6CAB85" d="M594.63,20.74c0.23-0.99,0.66-2.44,1.54-4.04c0.51-0.93,1.33-2.57,3.11-3.9c1.31-0.97,3.13-1.71,4.23-1.71
		c0.5,0,0.85,0.15,1.05,0.45c0.4,0.6,0.05,1.39-1.21,2.74c-1.13,1.2-2.25,1.76-3.15,2.2c-0.28,0.14-0.48,0.24-0.5,0.25
		C598.9,17.13,597.45,18.16,594.63,20.74z"/>
</g>
<g>
	<path fill="#6CAB85" d="M601.04,18.33c4.18,0.81,6.87,1.94,8.63,2.91c0.42,0.23,2.48,1.38,4.87,1.13c1.24-0.13,1.44-0.52,1.49-0.64
		c0.25-0.65-0.85-1.61-1.26-1.96C612.16,17.49,604.19,18.04,601.04,18.33z"/>
</g>
<g>
	<path fill="#6CAB85" d="M584.21,27.68c-0.07-0.18,1.64-1.21,3.95-2.15c4.87-1.99,10.79-2.94,11.27-1.74
		c0.09,0.22-0.03,0.44-0.15,0.69c-0.34,0.69-1.21,1.22-3.5,1.49c-1.81,0.21-3.06,0.09-3.88,0.06
		C587.51,25.85,584.31,27.92,584.21,27.68z"/>
</g>
<g>
	<path fill="#6CAB85" d="M557.53,30.04c3.44,3.47,6.82,5.44,9.09,6.53c0,0,4.69,2.26,9.02,1.69c0.32-0.04,1.22-0.16,1.31-0.55
		c0.11-0.51-0.5-0.87-1-1.04c-2.22-0.75-4.12-1.35-6.25-1.68c0,0-1.3-0.2-3.8-0.8C563.81,33.7,560.9,32.63,557.53,30.04z"/>
</g>
<path fill="#6CAB85" d="M618.64,27.56c2.02-3.58,5.89-5.55,9.55-7.05c4.21-1.73,8.5-3.38,12.88-4.62c1.81-0.51,3.65-0.97,5.51-1.18
	c0.48-0.06,0.49-0.82,0-0.76c-3.8,0.44-7.5,1.67-11.08,2.95c-2.38,0.85-4.74,1.76-7.08,2.71c-1.92,0.78-3.84,1.62-5.59,2.74
	c-1.95,1.24-3.7,2.81-4.85,4.84C617.75,27.61,618.4,27.99,618.64,27.56L618.64,27.56z"/>
<g>
	<path fill="#6CAB85" d="M622.08,23.3c3.75-0.46,6.83-0.54,9.01-0.52c2.42,0.02,4.79,0.18,8.01-0.62c2.73-0.68,4.12-1.56,4.74-2.87
		c0.16-0.35,0.52-1.12,0.2-1.62c-0.75-1.14-4.6,0.13-7.58,1.1C633.15,19.85,628.3,21.4,622.08,23.3z"/>
</g>
<g>
	<path fill="#6CAB85" d="M626.56,20.8c2.26-2.84,4.35-5.04,5.93-6.61c0.41-0.4,2.26-2.6,4.97-4.09c0.46-0.25,1.44-0.76,2.75-0.77
		c0.18,0,2.25,0,2.52,0.82c0.1,0.31,0.05,1.01-2.93,3.22c-2.68,1.99-4.98,3.16-5.91,3.64C632.3,17.81,629.8,19.1,626.56,20.8z"/>
</g>
<g>
	<path fill="#6CAB85" d="M646.6,14.33c-0.16-0.68,3.16-1.93,6.26-3.1c6.63-2.5,7.62-1.77,7.92-1.49c0.84,0.78,0.95,2.46,0.28,3.49
		c-0.71,1.08-3.16,1.17-8.04,1.29C647.52,14.65,646.67,14.66,646.6,14.33z"/>
</g>
<path fill="#6CAB85" d="M605.58,17.04c-0.08-0.3,2.08-0.81,5.43-2.6c3.1-1.65,3.85-2.61,6.22-3.05c1.94-0.36,3.15-0.05,3.88,0.25
	c0.21,0.09,2.48,1.03,2.4,2.11c-0.12,1.61-5.43,2.42-6.01,2.5c-2.12,0.31-2.48,0.02-5.52,0.19
	C607.93,16.67,605.67,17.35,605.58,17.04z"/>
<path fill="#6CAB85" d="M684.67,44.23c3.5-3.15,7.02-6.31,10.84-9.08c1.94-1.41,3.95-2.7,6.09-3.78c1.92-0.97,3.92-1.79,5.97-2.47
	c1.85-0.61,3.73-1.11,5.63-1.57c0.48-0.12,0.27-0.85-0.2-0.73c-3.77,0.92-7.47,2.04-10.97,3.72c-4.31,2.06-8.15,4.97-11.79,8.03
	c-2.07,1.74-4.08,3.55-6.09,5.36C683.77,44.02,684.31,44.55,684.67,44.23L684.67,44.23z"/>
<g>
	<path fill="#6CAB85" d="M702.36,30.78c0.07-0.9,0.28-2.31,1.01-3.86c0.26-0.56,1.11-2.41,3.11-3.9c1.31-0.97,3.13-1.71,4.23-1.71
		c0.5,0,0.85,0.15,1.05,0.45c0.4,0.6,0.05,1.39-1.21,2.74c-1.13,1.2-2.25,1.76-3.15,2.2c-0.27,0.13-0.47,0.24-0.5,0.25
		C706.14,27.33,704.81,28.3,702.36,30.78z"/>
</g>
<path fill="#6CAB85" d="M707.23,34.13"/>
<g>
	<path fill="#6CAB85" d="M708.55,28.25c4.18,0.81,6.87,1.94,8.63,2.91c0.42,0.23,2.48,1.38,4.87,1.13c1.24-0.13,1.44-0.52,1.49-0.64
		c0.25-0.65-0.85-1.61-1.26-1.96C719.67,27.4,711.71,27.95,708.55,28.25z"/>
</g>
<g>
	<path fill="#6CAB85" d="M691.77,37.92c-0.18,0-0.28-0.11-0.33-0.21c-0.04-0.08-0.03-0.18,0-0.27c0.2-0.49,2.57-1.65,4.11-2.28
		c3.3-1.35,7.27-2.29,9.64-2.29c1.17,0,1.84,0.23,2.03,0.72c0.14,0.34-0.02,0.66-0.16,0.93c-0.45,0.91-1.57,1.4-3.74,1.65
		c-0.71,0.08-1.39,0.12-2.09,0.12c-0.55,0-1.02-0.02-1.4-0.04c-0.16-0.01-0.3-0.02-0.43-0.02c-0.16-0.01-0.33-0.01-0.49-0.01
		c-2.88,0-5.2,0.96-6.32,1.42C692.09,37.84,691.92,37.92,691.77,37.92z"/>
</g>
<path fill="#6CAB85" d="M712.98,26.67c1.88-0.73,3.7-1.6,5.39-2.58c0.67-0.39,1.25-0.75,1.77-1.07c1.55-0.97,2.68-1.67,4.55-2.02
	c0.6-0.11,1.17-0.17,1.71-0.17c0.86,0,1.62,0.14,2.34,0.43c0.63,0.26,2.68,1.19,2.59,2.41c-0.13,1.7-4.42,2.51-6.27,2.78
	c-1.03,0.15-1.77,0.18-2.64,0.18c-0.22,0-0.46,0-0.7,0c-0.27,0-0.56,0-0.87,0c-0.4,0-0.84,0-1.34,0.02
	c-2.12,0.06-4.26,0.26-6.36,0.6L712.98,26.67z"/>
<path fill="#6CAB85" d="M713.09,26.95c2.37-0.93,4.2-1.89,5.43-2.6c2.64-1.52,3.78-2.59,6.22-3.05c1.94-0.36,3.15-0.05,3.88,0.25
	c0.21,0.09,2.48,1.03,2.4,2.11c-0.12,1.61-5.43,2.42-6.01,2.5c-2.02,0.3-2.95,0.12-5.52,0.19
	C716.99,26.42,714.82,26.68,713.09,26.95z"/>
<path fill="#6CAB85" d="M620.95,26.93c2.4,0.22,4.3,0,5.66-0.27c2.73-0.54,4.13-1.44,5.42-0.65c0.97,0.59,1.56,1.94,1.18,2.77
	c-0.44,0.97-2.11,1.02-3.31,1.07c-1.17,0.04-2.25-0.14-3.62-0.55C624.94,28.9,623.06,28.2,620.95,26.93z"/>
<path fill="#6CAB85" stroke="#245650" stroke-width="4" stroke-miterlimit="10" d="M622.11,22.12"/>
<path fill="#6CAB85" d="M556.99,27.28c2.79-0.1,4.91-0.67,6.38-1.19c2.58-0.92,4.06-2.05,5.08-1.37c0.75,0.5,0.98,1.82,0.55,2.64
	c-0.52,0.98-1.95,1.08-3.48,1.19c-0.82,0.06-1.82,0.05-4.45-0.42C560.05,27.95,558.65,27.68,556.99,27.28z"/>
<path fill="#6CAB85" d="M458.4,26.25c0.4-1.32,1.33-3.57,3.51-5.19c0.93-0.69,2.77-2.06,4.4-1.37c0.71,0.3,1.56,1.07,1.5,1.87
	c-0.05,0.63-0.65,1.28-5.67,3.28C460.59,25.45,459.3,25.93,458.4,26.25z"/>
<path fill="#6CAB85" d="M527.06,27.5c6.88-0.74,13.63-2.49,19.94-5.35c1.98-0.9,3.91-1.9,5.78-3c0.42-0.25,0.04-0.91-0.38-0.66
	c-6.2,3.65-13.02,6.15-20.08,7.47c-1.74,0.33-3.49,0.58-5.25,0.77C526.58,26.8,526.57,27.56,527.06,27.5L527.06,27.5z"/>
<g>
	<path fill="#6CAB85" d="M543.88,23.02c1.53-1.95,2.24-3.68,2.6-4.91c0.37-1.24,0.74-2.59,1.87-3.89c0.43-0.49,1.07-0.94,1.7-0.73
		c0.51,0.17,0.72,0.79,0.77,0.96c0.5,1.49-0.77,3.21-1.51,4.19C548.45,19.77,546.8,21.58,543.88,23.02z"/>
</g>
<g>
	<path fill="#6CAB85" d="M541.28,24.09c5.3-0.63,8.94-2.02,11.34-3.21c1.45-0.72,3.52-1.91,4.68-1.09c0.74,0.52,1,1.77,0.59,2.61
		c-0.63,1.26-2.71,1.37-4.58,1.44C550.17,23.95,546.12,24.06,541.28,24.09z"/>
</g>
<path fill="#6CAB85" d="M551.98,19.44c0.5-1.29,1.59-3.46,3.89-4.92c0.98-0.62,2.92-1.85,4.49-1.04c0.68,0.35,1.47,1.18,1.35,1.98
	c-0.09,0.63-0.75,1.23-5.9,2.85C554.22,18.8,552.9,19.18,551.98,19.44z"/>
<path fill="#6CAB85" d="M614.5,43.9c5.3-3.79,10.89-7.2,16.84-9.87c4.39-1.97,8.99-3.53,13.71-4.46c3.39-0.67,6.79-0.9,10.24-0.95
	c4.53-0.06,9.04-0.33,13.53-1.01c6.6-1.01,13.05-2.87,19.16-5.56c0.58-0.25,1.15-0.52,1.72-0.78c0.44-0.21,0.06-0.86-0.38-0.66
	c-5.98,2.82-12.33,4.81-18.83,5.96c-4.71,0.84-9.48,1.2-14.26,1.28c-1.51,0.03-3.03,0.02-4.54,0.11c-1.86,0.11-3.71,0.33-5.55,0.64
	c-4.6,0.78-9.07,2.18-13.37,3.98c-5.8,2.43-11.27,5.57-16.46,9.12c-0.74,0.51-1.47,1.02-2.2,1.54
	C613.72,43.53,614.1,44.19,614.5,43.9L614.5,43.9z"/>
<g>
	<path fill="#6CAB85" d="M680.25,24.16c1.33-1.42,2.33-2.96,2.96-4.57l0.04-0.1c0.46-1.17,0.98-2.51,2.23-3.71
		c0.29-0.28,0.87-0.75,1.55-0.75c0.19,0,0.37,0.04,0.53,0.11c0.29,0.13,0.67,0.44,0.86,1.23c0.41,1.72-1.12,3.41-1.95,4.32
		c-1.55,1.71-3.54,3.05-5.9,3.97L680.25,24.16z"/>
</g>
<g>
	<path fill="#6CAB85" d="M691.25,26.35c-0.48,0-0.97-0.02-1.47-0.05c-3.91-0.19-7.95-0.46-12.01-0.78l0.01-0.61
		c4.26-0.14,8.12-0.88,11.47-2.2c0.13-0.05,0.27-0.11,0.41-0.17c1-0.4,2.25-0.91,3.28-0.91c0.56,0,1.02,0.15,1.37,0.44
		c0.8,0.68,1,2.09,0.42,3.04C694.07,26.21,692.52,26.35,691.25,26.35z"/>
</g>
<g>
	<path fill="#6CAB85" d="M763.67,13.9c4.23-0.53,8-1.63,11.21-3.25c0.13-0.06,0.26-0.13,0.4-0.2c1.05-0.54,2.37-1.22,3.46-1.22
		c0.44,0,0.82,0.11,1.13,0.33c0.86,0.6,1.19,1.99,0.71,2.99c-0.71,1.46-2.99,1.56-4.83,1.64c-3.91,0.17-7.96,0.28-12.03,0.33
		L763.67,13.9z"/>
</g>
<g>
	<path fill="#6CAB85" d="M663.43,27.54c0.58-2.73,1.48-5.29,2.67-7.63c0.7-1.38,1.59-2.91,3.32-3.72c0.74-0.34,1.4-0.52,1.97-0.52
		c0.52,0,0.95,0.14,1.29,0.42c0.81,0.67,0.75,1.86,0.68,2.33c-0.23,1.69-1.56,2.61-3.1,3.68c-0.45,0.31-0.92,0.64-1.39,1
		c-1.66,1.29-3.12,2.93-4.33,4.88L663.43,27.54z"/>
</g>
<g>
	<path fill="#6CAB85" d="M653.24,27.99c3.04-0.29,9.4-0.54,12.66,2.51c0.54,0.5,2.67,2.49,2.18,3.39c-0.06,0.12-0.21,0.3-0.66,0.4
		c-2.1,0.49-4.89-2.21-7.97-3.98C658.1,29.53,656.05,28.57,653.24,27.99z"/>
</g>
<g>
	<path fill="#6CAB85" d="M639.41,30.28c0.83-1.1,3.98-5.24,6.76-7.67c0.44-0.39,1.28-1.09,2.47-1.17c1.1-0.07,2.49,0.38,2.68,1.13
		c0.18,0.73-0.79,1.62-2.78,2.96C646.56,26.85,643.57,28.63,639.41,30.28z"/>
</g>
<g>
	<path fill="#6CAB85" d="M632.52,32.77c4.36,1.59,7.79,1.73,10.15,1.54c2.81-0.22,5.5-1,6.8,0.48c0.58,0.66,0.87,1.74,0.47,2.39
		c-0.67,1.07-3.06,0.66-5.03,0.33c-2.15-0.36-3.83-0.95-5.59-1.65C637.58,35.18,635.24,34.17,632.52,32.77z"/>
</g>
<g>
	<path fill="#6CAB85" d="M713.41,44.26c3.36-1.49,6.14-3.45,8.26-5.84c0.4-0.45,0.78-0.92,1.15-1.38c1.29-1.59,2.5-3.09,4.1-3.09
		c0.07,0,0.14,0,0.21,0.01c0.97,0.08,2.09,0.71,2.29,1.63c0.31,1.43-1.71,2.81-3.5,4.03c-1.75,1.19-3.36,1.95-5.23,2.72
		c-2.28,0.93-4.66,1.77-7.07,2.49L713.41,44.26z"/>
</g>
<g>
	<path fill="#6CAB85" d="M616.24,43.26c-0.1,0.32,2.15,1.19,6.65,2.93c0.83,0.32,3.63,1.38,6.25,0.94c1.04-0.18,1.42-0.47,1.52-0.79
		c0.19-0.59-0.57-1.29-0.63-1.34c-1.16-1.03-3.1-0.61-3.98-0.47C620.78,45.42,616.39,42.77,616.24,43.26z"/>
</g>
<path fill="#6CAB85" d="M688.97,20.68c0.74-1.51,2.14-3.58,4.57-4.84c0.79-0.41,2.11-1.1,3.46-1.1c0.64,0,1.22,0.16,1.71,0.47
	c0.73,0.46,1.72,1.58,1.44,2.75c-0.25,1.03-1.28,1.6-6.58,2.78c-1.3,0.29-2.63,0.56-3.94,0.8l-1.19,0.22L688.97,20.68z"/>
<path fill="#6CAB85" d="M439.9,37.18c1.6-5.02,2.87-10.18,3.77-15.41c0.24-1.38,0.45-2.77,0.64-4.16c0.07-0.53-0.66-0.76-0.73-0.22
	c-0.71,5.17-1.75,10.27-3.13,15.27c-0.4,1.44-0.83,2.88-1.28,4.3C439,37.47,439.74,37.69,439.9,37.18L439.9,37.18z"/>
<g>
	<path fill="#6CAB85" d="M441.15,31.27c-0.24,0.02,0.05-2.37-1.4-5.19c-0.77-1.5-1.65-2.38-2.11-4.42
		c-0.37-1.68-0.01-2.07,0.12-2.19c0.54-0.46,1.76-0.16,2.48,0.49c0.94,0.85,0.89,2.11,0.89,4.75
		C441.15,29.37,441.37,31.25,441.15,31.27z"/>
</g>
<g>
	<path fill="#6CAB85" d="M441.15,31.27c2.87-1.47,4.81-3.16,6-4.37c1.67-1.69,3.3-3.39,2.9-5.19c-0.15-0.7-0.68-1.65-1.34-1.69
		c-1.23-0.07-1.61,3.4-4.14,7.26C443.37,29.11,442.09,30.42,441.15,31.27z"/>
</g>
<path fill="#6CAB85" d="M439.52,15.38"/>
<path fill="#6CAB85" d="M443.77,19.79c0.03-1.67-0.1-3-0.21-3.9c-0.27-2.16-0.62-2.93-0.28-4.22c0.1-0.38,0.63-2.37,2.04-2.65
	c1.4-0.28,3.06,1.26,3.14,2.64c0.07,1.13-0.95,1.72-2.23,3.4C444.99,16.68,444.24,18.34,443.77,19.79z"/>
<path fill="#6CAB85" d="M557.2,30.23c3.54,4.61,7.4,8.97,11.58,13c4.14,3.98,8.62,7.62,13.15,11.15c2.42,1.88,4.87,3.71,7.37,5.49
	c0.4,0.28,0.78-0.37,0.38-0.66c-4.52-3.22-8.91-6.62-13.19-10.15c-4.17-3.45-8.14-7.11-11.81-11.08c-2.4-2.6-4.68-5.31-6.84-8.12
	C557.56,29.46,556.9,29.84,557.2,30.23L557.2,30.23z"/>
<g>
	<path fill="#6CAB85" d="M566.66,40.54c0.14-0.2,1.8,1.56,4.92,2.25c1.65,0.37,2.9,0.26,4.78,1.22c1.54,0.79,1.61,1.32,1.61,1.49
		c0.01,0.71-1,1.45-1.96,1.58c-1.26,0.17-2.2-0.67-4.25-2.35C568.13,41.76,566.53,40.72,566.66,40.54z"/>
</g>
<g>
	<path fill="#6CAB85" d="M565.34,38.73c-0.69,3.14-0.63,5.69-0.45,7.37c0.24,2.36,0.52,4.69,2.17,5.54
		c0.64,0.33,1.72,0.54,2.17,0.06c0.84-0.89-1.61-3.4-2.98-7.81C565.6,41.81,565.4,39.99,565.34,38.73z"/>
</g>
<path fill="#6CAB85" d="M594.85,58.24"/>
<path fill="#6CAB85" d="M586.41,57.26c1.52,0.91,2.72,1.61,3.45,2.03c2.19,1.27,2.83,1.62,3.45,2.48c0.23,0.32,1.43,2,0.75,3.25
	c-0.68,1.25-2.93,1.53-4.05,0.71c-0.94-0.69-0.67-1.89-1.21-3.88C588.24,59.76,587.2,58.22,586.41,57.26z"/>
<path fill="#6CAB85" d="M741.43,35.51c3.52-5.73,7.86-11.03,13.18-15.19c3.98-3.1,8.56-5.39,13.12-7.51
	c3.73-1.74,7.57-3.26,11.47-4.56c0.46-0.15,0.26-0.89-0.2-0.73c-6.14,2.05-12.1,4.65-17.8,7.71c-2.23,1.2-4.4,2.5-6.43,4.03
	c-2.21,1.66-4.27,3.53-6.17,5.54c-2.97,3.15-5.56,6.64-7.82,10.33C740.52,35.55,741.17,35.93,741.43,35.51L741.43,35.51z"/>
<g>
	<path fill="#6CAB85" d="M750.09,24.24c-0.2,0-0.31-0.12-0.35-0.23c-0.14-0.39,0.07-0.47,2.03-1.29c0.99-0.41,2.35-0.98,4.16-1.79
		l0.4-0.18c1.65-0.74,2.64-1.18,3.56-1.18c0.35,0,0.68,0.07,1.01,0.21c0.99,0.42,1.9,1.52,1.64,2.41c-0.16,0.55-0.88,0.95-2.19,1.23
		c-0.63,0.13-1.22,0.19-1.82,0.19c-0.64,0-1.22-0.07-1.78-0.14c-0.44-0.05-0.9-0.11-1.4-0.13c-0.18-0.01-0.35-0.01-0.52-0.01
		c-1.88,0-3.31,0.48-4.08,0.74C750.42,24.18,750.23,24.24,750.09,24.24L750.09,24.24z"/>
</g>
<g>
	<path fill="#6CAB85" d="M745.12,28.31c0.14-2.57,0.66-5.03,1.55-7.32c0.83-2.12,1.77-4.53,3.79-4.95c0.22-0.05,0.47-0.07,0.71-0.07
		c0.4,0,1.37,0.07,1.72,0.74c0.41,0.78-0.4,1.63-1.62,2.93c-0.99,1.05-2.22,2.35-3.35,4.12c-0.92,1.44-1.67,3.01-2.22,4.67
		L745.12,28.31z"/>
</g>
<path fill="#6CAB85" d="M771.57,10.38c1.34-1.21,2.44-2.59,3.26-4.09c0.31-0.57,0.54-1.07,0.73-1.51c0.45-1,0.78-1.73,1.63-2.05
	c0.28-0.11,0.6-0.16,0.94-0.16c1.29,0,2.88,0.81,3.18,2.13c0.24,1.02-0.36,2.17-1.69,3.24c-0.79,0.64-1.5,0.83-2.56,1.11
	c-0.44,0.12-0.93,0.25-1.53,0.43c-1.21,0.38-2.43,0.85-3.62,1.4L771.57,10.38z"/>
<path fill="#6CAB85" d="M737.78,70.14c-0.44,0-0.86-0.09-1.2-0.25c-0.82-0.4-1.08-1.14-1.45-2.18c-0.16-0.46-0.34-0.97-0.6-1.57
	c-0.69-1.56-1.66-3.03-2.9-4.35l0.37-0.47c1.14,0.65,2.31,1.23,3.49,1.71c0.58,0.24,1.06,0.41,1.49,0.56
	c1.04,0.37,1.72,0.62,2.46,1.32c1.23,1.18,1.74,2.38,1.41,3.37C740.45,69.49,738.97,70.14,737.78,70.14z"/>
<path fill="#6CAB85" d="M384.69,55.94c4.44,3.19,9.18,5.94,14.15,8.22c0.44,0.2,0.83-0.45,0.38-0.66
	c-4.97-2.28-9.71-5.04-14.15-8.22C384.67,55,384.29,55.65,384.69,55.94L384.69,55.94z"/>
<g>
	<path fill="#6CAB85" d="M388.8,58.26c0.04-0.22,2.04,0.63,4.85,0.06c1.49-0.31,2.47-0.86,4.36-0.76c1.55,0.09,1.8,0.5,1.86,0.65
		c0.26,0.59-0.3,1.58-1.04,2.05c-0.97,0.61-2.05,0.26-4.33-0.39C390.44,58.73,388.76,58.45,388.8,58.26z"/>
</g>
<g>
	<path fill="#6CAB85" d="M388.8,58.26c0.56,2.88,1.53,4.99,2.28,6.34c1.05,1.88,2.11,3.73,3.77,3.83c0.65,0.04,1.6-0.19,1.8-0.76
		c0.37-1.06-2.54-2.25-5.25-5.42C390.12,60.74,389.3,59.3,388.8,58.26z"/>
</g>
<path fill="#6CAB85" d="M402.97,60.76"/>
<path fill="#6CAB85" d="M398.08,63.39c1.44,0.43,2.63,0.66,3.43,0.78c1.94,0.3,2.7,0.18,3.73,0.8c0.3,0.18,1.89,1.14,1.78,2.44
	c-0.11,1.29-1.85,2.37-3.07,2.1c-1-0.22-1.25-1.25-2.39-2.8C400.47,65.23,399.22,64.16,398.08,63.39z"/>
<path fill="#6CAB85" d="M669.72,41.55c4.44,0.7,8.86,1.54,13.24,2.53c4.9,1.1,9.75,2.38,14.55,3.84s9.55,3.09,14.23,4.9
	c4.27,1.65,8.48,3.44,12.62,5.37c3.7,1.72,7.35,3.56,10.94,5.5c0.41,0.22,0.83,0.45,1.24,0.68c0.43,0.24,0.81-0.42,0.38-0.66
	c-3.54-1.95-7.14-3.79-10.79-5.52c-4.08-1.94-8.22-3.74-12.42-5.41c-4.6-1.83-9.27-3.49-14-4.97c-4.87-1.53-9.79-2.88-14.76-4.05
	c-4.46-1.05-8.96-1.94-13.49-2.69c-0.52-0.09-1.04-0.17-1.56-0.25C669.44,40.74,669.23,41.47,669.72,41.55L669.72,41.55z"/>
<g>
	<path fill="#6CAB85" d="M729.03,66.27c-0.7,0-1.29-0.51-1.58-0.82c-1.19-1.26-1.66-2.61-2.07-3.81l-0.04-0.11
		c-0.56-1.63-1.49-3.21-2.76-4.69l0.35-0.48c2.32,1.02,4.25,2.44,5.72,4.22c0.78,0.94,2.24,2.7,1.76,4.4
		c-0.22,0.78-0.62,1.08-0.91,1.19C729.35,66.24,729.19,66.27,729.03,66.27L729.03,66.27z"/>
</g>
<g>
	<path fill="#6CAB85" d="M726.84,56.72c-1.06,0-2.34-0.58-3.37-1.05c-0.14-0.06-0.28-0.12-0.41-0.18
		c-3.29-1.46-7.12-2.37-11.37-2.69l0.01-0.61c4.07-0.15,8.12-0.25,12.04-0.27h0.45c1.78,0,3.74,0.11,4.45,1.4
		c0.53,0.97,0.27,2.38-0.55,3.02C727.76,56.59,727.34,56.72,726.84,56.72L726.84,56.72z"/>
</g>
<g>
	<path fill="#6CAB85" d="M757.57,16.95c1.47-1.73,2.62-3.59,3.42-5.55c0.39-0.95,0.71-1.95,1.01-2.92c0.78-2.44,1.45-4.55,2.96-5.24
		c0.24-0.11,0.45-0.16,0.65-0.16c0.13,0,0.26,0.03,0.37,0.07c0.78,0.34,0.96,1.76,0.56,4.33c-0.65,4.13-5.02,7.67-8.57,9.92
		L757.57,16.95z"/>
</g>
<g>
	<path fill="#6CAB85" d="M706.65,56.86c-0.15,0-0.3-0.01-0.44-0.02c-1.33-0.14-2.22-0.99-2.6-1.35c-2.53-2.4-5.36-6.4-6.46-8
		l-0.61-0.89l0.99,0.44c3.29,1.47,6.31,3.21,8.97,5.16c1.96,1.44,3.04,2.45,2.77,3.4C709.02,56.43,707.77,56.86,706.65,56.86
		L706.65,56.86z"/>
</g>
<g>
	<path fill="#6CAB85" d="M685.3,43.98c2.28-1.06,4.62-2,6.95-2.81c1.91-0.66,3.61-1.16,5.72-1.43c0.89-0.11,1.9-0.24,2.78-0.24
		c1.36,0,2.17,0.3,2.53,0.93c0.47,0.82,0.05,2.03-0.62,2.73c-0.57,0.6-1.36,0.88-2.48,0.88c-0.85,0-1.8-0.16-2.81-0.32
		c-0.58-0.1-1.18-0.2-1.78-0.27c-0.82-0.1-1.65-0.15-2.49-0.15c-2.43,0-4.98,0.42-7.59,1.25L685.3,43.98z"/>
</g>
<path fill="#6CAB85" d="M701.63,48.89c3.97-1.86,8.14-3.3,12.44-4.19c1.94-0.4,3.89-0.66,5.86-0.86c1.94-0.21,3.85-0.49,5.73-1.02
	c1.45-0.4,2.87-0.91,4.21-1.59c1.3-0.65,2.55-1.4,3.84-2.06c2.43-1.26,4.95-2.42,7.48-3.48c3.55-1.49,7.23-2.64,10.95-3.59
	c0.64-0.16,1.27-0.32,1.91-0.47c0.48-0.11,0.27-0.85-0.2-0.73c-4.04,0.95-8.04,2.11-11.9,3.66c-2.42,0.97-4.79,2.08-7.14,3.21
	c-2.71,1.31-5.25,3.02-8.13,3.95c-1.88,0.61-3.81,1.02-5.77,1.25c-2.01,0.23-4.03,0.43-6.02,0.8c-4.07,0.75-8.02,2.01-11.82,3.64
	c-0.61,0.26-1.22,0.54-1.82,0.82C700.8,48.45,701.19,49.1,701.63,48.89L701.63,48.89z"/>
<g>
	<path fill="#6CAB85" d="M727.81,41.49c1.36-2.57,3-4.93,4.87-7.02c2.88-3.23,4.93-4.87,6.07-4.87c0.2,0,0.37,0.04,0.52,0.13
		c0.79,0.46,0.61,1.93,0.53,2.37c-0.18,1.04-0.78,2.01-3.3,3.91c-1.12,0.85-1.9,1.32-2.72,1.83c-0.51,0.31-1.03,0.63-1.67,1.06
		c-1.33,0.89-2.62,1.89-3.83,2.95L727.81,41.49z"/>
</g>
<path fill="#6CAB85" d="M736.69,37.7c4.58-0.23,9.14-0.65,13.7-1.1c4.04-0.39,8.09-0.84,12.05-1.75c3.37-0.77,6.66-1.9,9.68-3.61
	c2.2-1.25,4.08-2.84,6.03-4.43c3.39-2.76,6.94-5.32,10.54-7.79c0.34-0.23,0.68-0.46,1.01-0.69c0.4-0.27,0.02-0.93-0.38-0.66
	c-3.61,2.44-7.16,4.98-10.57,7.69c-1.92,1.52-3.73,3.19-5.8,4.5c-2.89,1.82-6.07,3.08-9.37,3.93c-3.8,0.98-7.71,1.48-11.61,1.89
	c-4.69,0.49-9.4,0.92-14.11,1.19c-0.39,0.02-0.79,0.04-1.18,0.06C736.21,36.96,736.2,37.72,736.69,37.7L736.69,37.7z"/>
<g>
	<path fill="#6CAB85" d="M789.99,18.44c-0.27,0-0.63,0-0.75-0.34c-0.39-1.11,3.51-2.86,6.86-4.13c0.27-0.1,0.99-0.38,1.87-0.38
		c0.34,0,0.67,0.04,0.99,0.12c0.61,0.16,1.16,0.48,1.54,0.91c0.17,0.19,0.51,0.57,0.47,1.09c-0.03,0.41-0.28,0.69-0.36,0.78
		c-1.22,1.35-5.29,1.61-5.46,1.63c-1.2,0.07-2.14,0.14-2.88,0.19C791.04,18.4,790.36,18.44,789.99,18.44z"/>
</g>
<g>
	<path fill="#6CAB85" d="M760.67,42.24c-1.6,0-3.02-0.5-3.08-0.53c-1.78-0.64-4.2-1.45-7.27-2.48c-1.76-0.59-3.71-1.24-5.84-1.96
		l0.11-0.59c5.98,0.24,16.29,0.89,18.06,2.44c0.38,0.33,1.25,1.1,1.03,1.9c-0.1,0.35-0.4,0.63-0.91,0.84
		C762.17,42.12,761.47,42.24,760.67,42.24L760.67,42.24z"/>
</g>
<g>
	<path fill="#6CAB85" d="M779.57,34.25c-3.13,0-6.26-0.65-9.31-1.92l-1-0.42l1.07-0.16c4.01-0.61,7.84-1.67,11.38-3.17
		c1.12-0.47,2.1-0.93,2.96-1.34c1.59-0.75,2.74-1.3,3.55-1.3c0.35,0,0.64,0.1,0.86,0.31c0.29,0.27,0.45,0.71,0.46,1.27
		c0.02,1.45-0.91,3.42-2.2,4.67c-2.02,1.95-4.7,2.01-7.3,2.06C779.9,34.24,779.74,34.25,779.57,34.25z"/>
</g>
<g>
	<path fill="#6CAB85" d="M771.05,31.5c0.09-0.21,0.24-0.56,0.42-1c2.59-6.03,4.3-10.01,7.83-12.3c0.83-0.54,2.51-1.45,3.52-1.45
		c0.32,0,0.57,0.09,0.74,0.26c0.36,0.38,0.21,0.98,0.15,1.21c-0.57,2.26-7.87,9.5-12.18,13.61L771.05,31.5z"/>
</g>
<g>
	<path fill="#6CAB85" d="M740.11,45.54c-2.46,0-5.02-0.34-5.31-0.38c-3.07-0.42-6.09-1.27-8.97-2.53l0.2-0.57
		c1.89,0.51,3.75,0.77,5.52,0.77c1.01,0,2.02-0.08,3-0.25c1.23-0.21,2.36-0.54,3.35-0.83c1.28-0.38,2.39-0.7,3.42-0.7
		c0.77,0,1.42,0.19,2.01,0.57c0.73,0.47,1.77,1.58,1.47,2.53C744.5,45.08,742.96,45.54,740.11,45.54z"/>
</g>
<path fill="#6CAB85" d="M755.27,31.9c-0.43,0-0.87,0-1.33-0.01l-2-0.04l1.68-1.08c1.94-1.24,3.99-2.32,6.09-3.2
	c2.06-0.87,4.01-1.69,5.39-1.69c0.66,0,1.18,0.19,1.53,0.56c0.75,0.79,0.61,2.25,0.03,3.21c-0.71,1.17-2.16,1.66-5.99,2.01
	C758.9,31.81,757.08,31.9,755.27,31.9L755.27,31.9z"/>
<path fill="#6CAB85" d="M677.5,42.58c3.87,3.8,7.37,7.96,10.45,12.42c0.28,0.4,0.94,0.02,0.66-0.38
	c-3.11-4.52-6.65-8.73-10.56-12.58C677.68,41.7,677.15,42.24,677.5,42.58L677.5,42.58z"/>
<g>
	<path fill="#6CAB85" d="M683.01,56.89c-0.09,0-0.18-0.01-0.26-0.03c-0.52-0.13-0.91-0.77-1.17-1.94c-0.3-1.33-0.2-2.25-0.09-3.22
		c0.05-0.4,0.09-0.81,0.11-1.25c0.07-1.9-0.44-3.31-0.71-4.06c-0.17-0.48-0.3-0.82,0.05-0.95l0.05-0.02h0.07
		c0.31,0,0.4,0.21,1.12,1.82c0.39,0.87,0.92,2.07,1.68,3.67l0.17,0.35c0.94,1.97,1.42,2.96,0.94,4.08
		C684.65,56.08,683.81,56.89,683.01,56.89L683.01,56.89z"/>
</g>
<g>
	<path fill="#6CAB85" d="M691.4,52.22c-0.62,0-1.29-0.59-2.31-1.48c-0.97-0.85-2.19-1.91-3.82-2.88c-1.33-0.79-2.79-1.41-4.31-1.85
		l0.09-0.6c2.37,0.06,4.64,0.46,6.76,1.2c1.97,0.69,4.2,1.47,4.62,3.28c0.15,0.65,0.12,1.83-0.61,2.22
		C691.7,52.18,691.56,52.22,691.4,52.22z"/>
</g>
<path fill="#6CAB85" d="M685.86,59.17"/>
<path fill="#6CAB85" d="M692.75,62.4c-0.82,0-1.72-0.53-2.56-1.5c-0.6-0.7-0.78-1.32-1.05-2.27c-0.11-0.39-0.24-0.82-0.41-1.35
	c-0.36-1.07-0.8-2.14-1.33-3.19l0.49-0.35c1.12,1.16,2.4,2.1,3.79,2.8c0.53,0.26,0.99,0.45,1.4,0.62c0.93,0.38,1.61,0.65,1.92,1.42
	c0.27,0.67,0.19,1.57-0.21,2.37c-0.37,0.73-0.94,1.24-1.58,1.4C693.06,62.38,692.91,62.4,692.75,62.4L692.75,62.4z"/>
<path fill="#6CAB85" stroke="#245650" stroke-width="4" stroke-miterlimit="10" d="M446.04,17.93"/>
<circle fill="#AD4A4A" cx="362.41" cy="43.69" r="4.31"/>
<circle fill="#AD4A4A" cx="83.99" cy="42.27" r="5.51"/>
<circle fill="#AD4A4A" cx="319.72" cy="16.37" r="5.51"/>
<circle fill="#AD4A4A" cx="360.45" cy="31.4" r="5.51"/>
<circle fill="#AD4A4A" cx="82.93" cy="30.56" r="4.87"/>
<circle fill="#AD4A4A" cx="640.37" cy="55.95" r="4.31"/>
<circle fill="#AD4A4A" cx="650.29" cy="60.21" r="5.51"/>
<circle fill="#AD4A4A" cx="649.23" cy="48.5" r="4.87"/>
<circle fill="#AD4A4A" cx="672.77" cy="12.85" r="4.87"/>
<circle fill="#AD4A4A" cx="732.43" cy="23.77" r="4.31"/>
<circle fill="#AD4A4A" cx="728.16" cy="33.68" r="5.51"/>
<circle fill="#AD4A4A" cx="739.87" cy="32.62" r="4.87"/>
<circle fill="#AD4A4A" cx="659.53" cy="20.45" r="5.51"/>
<circle fill="#AD4A4A" cx="671.24" cy="19.39" r="4.87"/>
<circle fill="#AD4A4A" cx="64.36" cy="12.53" r="4.7"/>
<circle fill="#AD4A4A" cx="310.81" cy="23.52" r="3.69"/>
<ellipse fill="#AD4A4A" cx="73.36" cy="10.94" rx="4.11" ry="3.69"/>
<circle fill="#AD4A4A" cx="187.82" cy="36.43" r="5.51"/>
<circle fill="#AD4A4A" cx="177.78" cy="30.23" r="4.87"/>
<ellipse fill="#AD4A4A" cx="230.27" cy="19.53" rx="4.11" ry="3.69"/>
<circle fill="#AD4A4A" cx="74.71" cy="48.6" r="3.76"/>
<circle fill="#AD4A4A" cx="494.44" cy="17.25" r="4.31"/>
<circle fill="#AD4A4A" cx="504.36" cy="21.52" r="5.51"/>
<circle fill="#AD4A4A" cx="495.08" cy="27.85" r="3.76"/>
<circle fill="#AD4A4A" cx="238.49" cy="14.83" r="4.31"/>
<circle fill="#AD4A4A" cx="309.79" cy="12.73" r="4.31"/>
<circle fill="#AD4A4A" cx="70.42" cy="20.64" r="4.31"/>
<circle fill="#AD4A4A" cx="239.12" cy="25.43" r="3.76"/>
<ellipse fill="#AD4A4A" cx="425.33" cy="48.79" rx="4.11" ry="3.69"/>
<ellipse fill="#AD4A4A" cx="369.92" cy="37.93" rx="4.11" ry="3.69"/>
<circle fill="#AD4A4A" cx="433.54" cy="44.08" r="4.31"/>
<circle fill="#AD4A4A" cx="434.18" cy="54.69" r="3.76"/>
<ellipse fill="#AD4A4A" cx="565.55" cy="22.11" rx="4.11" ry="3.69"/>
<ellipse fill="#AD4A4A" cx="515.08" cy="25.56" rx="4.11" ry="3.69"/>
<ellipse fill="#AD4A4A" cx="582.95" cy="18.91" rx="4.11" ry="3.69"/>
<circle fill="#AD4A4A" cx="573.77" cy="17.41" r="4.31"/>
<circle fill="#AD4A4A" cx="574.4" cy="28.01" r="3.76"/>
<circle fill="#AD4A4A" cx="664.31" cy="27.75" r="3.76"/>
<g>
	<path fill="#6CAB85" d="M756.93,70.82c1.16,0.61,5.54,2.94,8.25,5.18c0.43,0.36,1.22,1.04,1.48,2.15c0.23,1.02,0.03,2.41-0.66,2.69
		c-0.66,0.28-1.65-0.49-3.21-2.16C761.24,77.03,759.12,74.48,756.93,70.82z"/>
</g>
<g>
	<path fill="#6CAB85" d="M754.84,61.44c-0.83,4.35-0.44,7.6,0.09,9.79c0.63,2.61,1.78,5.02,0.58,6.47
		c-0.54,0.65-1.51,1.09-2.18,0.81c-1.1-0.47-1.09-2.77-1.08-4.68c0.02-2.08,0.31-3.75,0.7-5.52
		C753.34,66.57,753.93,64.22,754.84,61.44z"/>
</g>
<g>
	<path fill="#6CAB85" d="M752.71,54.31c1.98,1.9,3.33,3.72,4.21,5.08c0.42,0.65,1.96,3.08,2.03,5.67c0.03,1.01-0.18,1.41-0.46,1.56
		c-0.52,0.29-1.31-0.3-1.37-0.34c-1.21-0.91-1.16-2.92-1.17-3.64C755.93,60.78,755.32,58.05,752.71,54.31z"/>
</g>
<path fill="#6CAB85" d="M762.48,88.5"/>
<path fill="#6CAB85" d="M746.88,27.19c3.06,6.72,7.18,12.96,12.26,18.32c1.63,1.72,3.35,3.35,5.16,4.88
	c0.35,0.3,0.87-0.21,0.51-0.51c-6.03-5.11-11.06-11.3-14.88-18.22c-0.87-1.58-1.68-3.2-2.43-4.84
	C747.31,26.4,746.69,26.77,746.88,27.19L746.88,27.19z"/>
<path fill="#6CAB85" d="M754.19,39.58c5.96,3.57,11.46,7.79,16.7,12.34c2.49,2.17,4.86,4.47,6.86,7.11c1.6,2.11,3,4.37,4.17,6.74
	c1.71,3.46,2.94,7.14,3.73,10.91c0.1,0.46,0.8,0.26,0.7-0.19c-1.26-5.99-3.64-11.76-7.19-16.76c-1.96-2.76-4.28-5.22-6.8-7.47
	c-2.8-2.51-5.71-4.91-8.71-7.17c-2.92-2.2-5.95-4.24-9.09-6.12C754.15,38.71,753.79,39.34,754.19,39.58L754.19,39.58z"/>
<g>
	<path fill="#6CAB85" d="M785.63,75.5c0.55,4.89,1.71,8.26,2.52,10.19c0.65,1.57,1.51,3.23,3.24,3.94c0.29,0.12,1.52,0.62,1.97,0.15
		c0.61-0.65-0.77-2.94-3.56-7.48C789.02,81.02,786.59,77.06,785.63,75.5z"/>
</g>
<g>
	<path fill="#6CAB85" d="M778.24,58.82c-2.67,2.38-4.11,4.8-4.89,6.41c-0.93,1.92-1.91,4.04-1.04,5.89
		c0.53,1.12,1.73,2.13,2.44,1.87c0.82-0.3,0.77-2.22,0.79-3.31C775.6,67.19,776.12,63.58,778.24,58.82z"/>
</g>
<g>
	<path fill="#6CAB85" d="M783.58,68.05c0.57,0.39,1.13,0.81,1.66,1.23c2.21,1.58,4.43,2.88,6.58,3.87c0.12,0.06,3,1.4,5.2,3.86
		c0.61,0.68,1,1.44,1.17,2.25c0.04,0.21,0.12,0.59,0.12,1.01c0,0.6-0.16,1.09-0.48,1.44c-0.72,0.8-2.01,0.66-2.53,0.56
		c-1.94-0.37-2.91-2.27-4.05-4.48c-0.39-0.76-0.79-1.54-1.26-2.32c-1.28-2.12-3-4.05-5.1-5.74c-0.54-0.39-1.1-0.8-1.65-1.22
		L783.58,68.05z"/>
</g>
<g>
	<path fill="#6CAB85" d="M765.25,47.07c4.58,0.76,7.96,2.29,10.06,3.45c0,0,4.32,2.39,6.25,6.08c0.14,0.28,0.54,1.04,0.28,1.32
		c-0.34,0.37-0.95,0.09-1.35-0.2c-1.79-1.31-3.3-2.46-4.73-3.94c0,0-0.87-0.9-2.7-2.52C771.54,49.92,769.12,48.25,765.25,47.07z"/>
</g>
<path fill="#6CAB85" d="M762.78,48.27c1.65,2.54,2.47,4.79,2.92,6.42c0.79,2.87,0.71,4.91,1.95,5.38c0.92,0.35,2.23-0.28,2.69-1.19
	c0.54-1.08-0.26-2.42-1.11-3.84c-0.46-0.77-1.09-1.64-3.14-3.69C765.29,50.56,764.18,49.49,762.78,48.27z"/>
<path fill="#6CAB85" d="M750.1,43.54c-3.04,4.24-5.66,8.76-7.84,13.5c-0.19,0.42,0.43,0.79,0.63,0.37c2.18-4.74,4.8-9.26,7.84-13.5
	C751,43.52,750.37,43.16,750.1,43.54L750.1,43.54z"/>
<g>
	<path fill="#6CAB85" d="M747.88,47.46c0.21,0.04-0.6,1.94-0.05,4.62c0.29,1.42,0.82,2.36,0.72,4.16c-0.08,1.48-0.48,1.71-0.62,1.78
		c-0.56,0.25-1.51-0.29-1.96-0.99c-0.58-0.92-0.24-1.95,0.37-4.13C747.43,49.03,747.7,47.42,747.88,47.46z"/>
</g>
<g>
	<path fill="#6CAB85" d="M747.88,47.46c-2.75,0.53-4.76,1.46-6.04,2.17c-1.8,1-3.56,2.01-3.65,3.59c-0.04,0.62,0.18,1.53,0.72,1.72
		c1.01,0.35,2.14-2.43,5.17-5.01C745.51,48.72,746.9,47.94,747.88,47.46z"/>
</g>
<path fill="#6CAB85" d="M745.5,60.97"/>
<path fill="#6CAB85" d="M743.28,55.44c-0.41,1.37-0.63,2.5-0.75,3.27c-0.28,1.85-0.17,2.57-0.76,3.56c-0.17,0.29-1.08,1.81-2.33,1.7
	c-1.23-0.11-2.26-1.77-2-2.93c0.21-0.95,1.2-1.19,2.67-2.28C741.53,57.72,742.54,56.53,743.28,55.44z"/>
<circle fill="#AD4A4A" cx="789.74" cy="80.88" r="4.48"/>
<circle fill="#AD4A4A" cx="782.01" cy="86.66" r="4.11"/>
</svg>
