<?xml version="1.0" encoding="utf-8"?>
<!-- Generator: Adobe Illustrator 24.3.0, SVG Export Plug-In . SVG Version: 6.00 Build 0)  -->
<svg version="1.0" id="Layer_1" xmlns="http://www.w3.org/2000/svg" xmlns:xlink="http://www.w3.org/1999/xlink" x="0px" y="0px"
	 viewBox="0 0 259.7 55.2" enable-background="new 0 0 259.7 55.2" xml:space="preserve">
<path fill="none" stroke="#6CAB85" d="M64.4,39.8l-2.7,0.4"/>
<path fill="none" stroke="#6CAB85" d="M31.2,37.4L31.2,37.4 M40,34.5c0.4,0.1,0.7,0.2,1.1,0.3C40.8,34.6,40.4,34.5,40,34.5z"/>
<path fill="#6CAB85" stroke="#6CAB85" d="M33.6,34.7c0-0.1-0.1-0.2-0.1-0.4c0.1,0,0.2,0.1,0.3,0.1l0,0.5c0,0,0,0,0,0c0,0,0,0-0.1,0
	C33.7,34.8,33.7,34.8,33.6,34.7z"/>
<path fill="#6CAB85" stroke="#6CAB85" d="M73.8,39.1h-0.2c-1.1,0-2.1,0-3.2-0.1l3.2-0.4c-6.9-0.1-13.9-0.3-20.7-1.1
	c-4.1-0.5-8-1.3-11.9-2.6c-0.4-0.1-0.7-0.2-1.1-0.3c0,0,0,0,0,0c-2.1-0.7-4.2-1.6-6.3-2.5c-2.7-1.2-5.2-2.6-7.8-4
	c-1.2-0.7-2.1,1.1-0.9,1.8c3.4,1.9,6.8,3.7,10.4,5.2h-0.5c-0.2,0-0.4,0-0.5,0h0c-0.1,0-0.1,0-0.2,0c0,0,0,0,0,0c0,0,0,0-0.1,0h-0.1
	c0,0-0.1,0-0.1,0c-0.1,0-0.2,0-0.3,0c0,0-0.1,0-0.2,0c0,0,0,0-0.1,0c-0.3,0-0.5-0.1-0.7-0.1c-0.3-0.1-0.5-0.1-0.8-0.1l0,0
	c-0.3-0.1-0.7-0.2-1-0.3c-1-0.3-1.9-0.5-2.8-0.7c-1.3-0.2-2.7-0.2-4,0h0c-0.8,0.1-1.5,0.2-2.2,0.6c-0.6,0.3-1.1,0.7-1.2,1.4
	c-0.3,1.2,0.6,2.2,1.7,2.9v0c2.4,1.6,5.7,2.3,8.5,2c2.1-0.2,7.5-2.6,9.8-3.2c0.2,0,0.3-0.1,0.5-0.3c6.7,2.1,13.7,2.8,20.7,3.2l0-0.5
	c0.9,0,1.8,0.1,2.7,0.1c3.2,0.1,6.3,0.2,9.5,0.2h0c0.2,0,0.3-0.1,0.4-0.1c0.1-0.1,0.1-0.2,0.1-0.3C74.3,39.3,74.1,39.1,73.8,39.1z
	 M31,36.5L31,36.5C31,36.5,31,36.5,31,36.5L31,36.5C31,36.5,31,36.5,31,36.5C31.1,36.5,31.1,36.5,31,36.5
	C31.1,36.5,31.1,36.5,31,36.5z"/>
<path fill="#6CAB85" stroke="#6CAB85" d="M20.5,20.5c-1-1.4-1.6-2.8-1.7-4c0-0.1,0-0.2,0-0.3c0-0.4,0-0.9,0-1.4
	c0-0.3,0.1-0.6,0.2-0.8c0.1-0.2,0.2-0.3,0.2-0.3c0,0,0.2-0.1,0.4,0c0.3,0.1,0.7,0.2,1.4,0.8h0c2.5,1.9,3.5,4.8,3.9,5.8
	c0,0.1,0,0.1,0.1,0.2c0.8,2.4,2.1,5.5,4.6,9.4c-1.6-1.4-3.5-3-5.3-4.8C22.7,23.4,21.4,21.9,20.5,20.5z"/>
<path fill="#6CAB85" stroke="#6CAB85" d="M39.5,28L39.5,28L39.5,28c0-0.1,0-0.1,0.1-0.1c0.1-0.1,0.2-0.1,0.5-0.2l0,0l0,0
	c0.8-0.3,2.1-0.2,4.8,1.9l0,0c2,1.5,3.2,2.8,4,3.7c0.1,0.1,0.1,0.1,0.2,0.2v0l0,0c1.8,1.9,3.8,3.2,5.6,4.1c-0.5-0.2-1-0.4-1.6-0.6
	c-3.6-1.4-7.2-3.3-9.9-5.1c-1.3-0.9-2.4-1.8-3-2.5c-0.3-0.4-0.6-0.7-0.7-0.9C39.5,28.2,39.5,28,39.5,28z"/>
<path fill="#6CAB85" d="M59,38.7c0.2-0.2,0-0.1-0.3-0.2c-0.3,0-0.6-0.1-0.9-0.1c-0.8-0.2-1.7-0.5-2.5-0.7c-2.1-0.7-4.1-1.5-6.1-2.5
	c-3-1.4-6.3-3.2-8.7-5.6c-0.3-0.3-0.7-0.7-0.9-1.1c-0.4-0.6-0.2-0.8,0.5-1c1.2-0.3,2.4,0.4,3.4,1c3.1,2,5.2,4.9,8.2,7.1
	c1.5,1.1,3.1,2,4.8,2.6c0.6,0.2,1.2,0.5,1.8,0.7c0.2,0.1,0.3,0.2,0.6,0.2c0.4,0,0.1,0.3,0.1-0.2c0,0.6,1,0.6,1,0
	c0.1-0.7-1.4-1-1.8-1.1c-1.7-0.6-3.3-1.4-4.8-2.4c-3.7-2.4-6.2-6.3-10.2-8.3c-1.1-0.5-2.4-0.9-3.6-0.4c-1.1,0.5-1.1,1.5-0.6,2.4
	c0.8,1.2,2,2.2,3.2,2.9c1.9,1.3,3.8,2.4,5.7,3.4c2.5,1.2,5.1,2.3,7.7,3.2c1,0.3,1.9,0.6,2.9,0.8c0.4,0,1,0.2,1.4-0.2
	C60.2,38.9,59.5,38.2,59,38.7z"/>
<path fill="#6CAB85" stroke="#6CAB85" stroke-width="2" stroke-miterlimit="10" d="M25.5,28.9c-3.5-1.4-6.5-2.2-8.5-2.8
	c-4.4-1.1-6.7-1.1-9.8-3c-2.5-1.6-3.4-3.1-3.9-4.3c-0.1-0.3-1.6-3.6-0.4-4.7c1.8-1.6,8.4,2.9,9.1,3.4c2.5,1.7,3.3,2.9,6.1,5.4
	C20.7,25.5,23.3,27.5,25.5,28.9z"/>
<path fill="#6CAB85" stroke="#6CAB85" d="M230.2,26.6c2.4-1.7,4.6-3.6,6.8-5.5c1-0.9,2.2,0.7,1.2,1.6c-4.3,3.8-8.9,7.3-13.9,10.1
	 M230.2,26.6l0.3,0.4c0,0,0,0,0,0 M230.2,26.6l0.3,0.4c0,0,0,0,0,0 M230.2,26.6c-5.5,4.1-11.4,7-17.9,9.2
	c-6.5,2.2-13.3,3.7-20.1,5.2l12.1-0.8 M230.5,27c2.4-1.7,4.6-3.6,6.8-5.5l0,0l0,0c0.1-0.1,0.3-0.1,0.4-0.1c0.1,0,0.2,0.1,0.3,0.2
	c0.2,0.2,0.2,0.5-0.1,0.7l0,0c-4.3,3.8-8.8,7.2-13.8,10 M230.5,27c-5.6,4.1-11.5,7.1-18,9.2c-6.6,2.2-13.4,3.7-20.1,5.2l-0.2,0
	c-0.3,0.1-0.4,0.4-0.4,0.7c0,0.1,0.1,0.2,0.2,0.3c0.1,0,0.2,0.1,0.4,0l0,0l0,0c3.9-0.9,7.9-1.8,11.9-2.8 M224.1,32.4
	C224.1,32.4,224.1,32.4,224.1,32.4l0.2,0.4 M224.1,32.4C224.1,32.4,224.1,32.4,224.1,32.4l0.2,0.4 M224.1,32.4
	c-6.2,3.4-13,5.5-19.8,7.4 M224.4,32.8c-6.3,3.4-13.1,5.6-19.9,7.4 M204.4,40.2l-0.1-0.5c0,0,0,0,0,0 M204.4,40.2l-0.1-0.5
	c0,0,0,0,0,0"/>
<path fill="#6CAB85" stroke="#6CAB85" d="M233.7,30.5c-1.2,0.6-2.8,1.3-4.9,1.6c0.4,0.1,0.9,0.1,1.4,0.1v0l0,0
	c2.4,0.2,4.5,0.4,6.9-0.4v0l0,0c1.5-0.5,2.9-1.3,3.9-2c0.5-0.4,0.9-0.8,1.1-1.1c0.1-0.2,0.2-0.3,0.2-0.4c0,0,0,0,0,0
	c0,0-0.1,0-0.2-0.1c-0.2-0.1-0.5-0.1-0.9-0.1c-0.6,0-1.1,0.1-1.5,0.1c-0.1,0-0.2,0-0.2,0c-2.3,0.3-3.8,1.2-5,1.9
	C234.1,30.3,233.9,30.4,233.7,30.5L233.7,30.5L233.7,30.5z"/>
<path fill="none" stroke="#6CAB85" d="M240.2,29c0,0-0.1,0.1-0.1,0.1c0,0,0,0,0,0c0,0-0.1,0.1-0.2,0.1c0.1,0,0.3,0,0.4,0
	C240.2,29.2,240.2,29.1,240.2,29z M240.9,30l0,0.1C240.9,30.1,240.9,30.1,240.9,30C240.9,30,241,30,240.9,30
	C240.9,30,240.9,30,240.9,30z M238.5,29.2c0,0.1,0,0.2,0,0.3c0.1,0,0.2,0,0.3-0.1L238.5,29.2z M230.8,28.9c-0.1,0-0.2,0.1-0.3,0.1
	l0.1,0.5c0,0,0,0,0,0c0,0,0,0,0.1,0c0,0,0.1-0.1,0.1-0.2C230.8,29.2,230.9,29.1,230.8,28.9z M233.7,31.5L233.7,31.5 M226.6,30.2
	C226.6,30.2,226.6,30.2,226.6,30.2c0,0-0.1,0-0.1,0h0c0,0.1,0,0.2,0,0.3c0,0,0,0,0,0.1L226.6,30.2l0.1,0.5c0,0,0,0,0,0
	c0,0,0.1,0,0.1,0l0.1-0.5v0l0-0.1C226.8,30.2,226.7,30.2,226.6,30.2z"/>
<path fill="#6CAB85" stroke="#6CAB85" d="M238.9,29.4C238.9,29.4,238.9,29.4,238.9,29.4l-0.2-0.4c0,0,0,0,0,0c0,0,0,0,0,0
	L238.9,29.4L238.9,29.4C238.9,29.4,238.9,29.4,238.9,29.4z"/>
<path fill="#6CAB85" stroke="#6CAB85" d="M244,28.3c0,0.8-0.5,1.7-1.3,2.4c-2,2-5.1,3.4-8,3.6c-2.1,0.2-4.3,0-6.5-0.3
	c1.9-0.2,3.7-0.7,5.4-1.4c0.5-0.2,1-0.5,1.5-0.7h0c0.5-0.3,0.9-0.5,1.4-0.7h0l0,0c1.1-0.5,2-0.7,3.2-0.9c0.2,0,0.5,0,0.6,0
	c0,0,0,0,0,0h0.1c0,0,0,0,0,0c0,0,0,0,0,0c0,0,0.1,0,0.1,0c0,0,0.1,0,0.1,0c0,0,0,0,0,0c0,0,0.1,0,0.2,0c0.1,0,0.2,0,0.3,0h0
	c0,0,0.1,0,0.1,0c0,0,0.1,0,0.2,0c0,0,0.2,0,0.4-0.2c0.1-0.1,0.1-0.3,0.1-0.4v-0.1c0-0.1,0-0.1-0.1-0.2c0-0.1-0.1-0.1-0.1-0.1
	c0,0-0.1,0-0.1,0c0,0-0.1,0-0.1,0c0,0-0.1,0-0.1,0c0,0,0,0,0,0c-0.3-0.2-0.5-0.5-0.5-0.9c0-0.1,0-0.2,0-0.3v0h0v0h0v0h0v0h0v0h0v0h0
	v0l0,0c0-0.1,0-0.2-0.1-0.3c-0.1-0.1-0.1-0.1-0.2-0.1c-0.1,0-0.1,0-0.2,0c-0.1,0-0.1,0-0.2,0l-0.1-0.1h0v0h0v0h0v0h0v0h0v0l0,0v0h0
	v0h0v0h0v0h0v0h0v0h0v0l0,0v0h0c-0.2,0.1-0.3,0.3-0.3,0.4v0c-0.1,0.1-0.2,0.2-0.4,0.4l0,0l0,0c-0.2,0.2-0.5,0.4-0.7,0.5v0
	c0,0,0,0,0,0c0,0,0,0-0.1,0.1l0,0c-0.1,0-0.2,0.1-0.2,0.1l0,0c-0.1,0.1-0.2,0.1-0.2,0.1c-0.6,0.3-1.2,0.5-1.7,0.7h0l0,0
	c-0.3,0.1-0.9,0.3-1.6,0.4c-0.3,0-0.7,0-1.1,0.1v0h0c-0.1,0-0.2,0-0.3,0h-0.2l0,0h0c-1.3-0.1-2.7-0.2-4-0.3h0
	c-0.3,0-0.6-0.1-0.8-0.1c0.4-0.1,0.9-0.2,1.4-0.2c0.2,0,0.3-0.1,0.5-0.1h0c0.1,0,0.1,0,0.2,0c0,0,0,0,0,0h0c0,0,0,0,0,0
	c0.1,0,0.1,0,0.1,0c0,0,0.1,0,0.1,0c0.1,0,0.2-0.1,0.3-0.1c0,0,0.1,0,0.2-0.1c0,0,0,0,0.1,0c0.2-0.1,0.5-0.2,0.7-0.3
	c0.2-0.1,0.5-0.2,0.7-0.3l0,0l0,0c0.3-0.2,0.6-0.3,0.9-0.5c0.9-0.5,1.7-0.9,2.6-1.2c1.3-0.4,2.6-0.7,4-0.8c0.8,0,1.6-0.1,2.3,0.1
	c0.7,0.2,1.2,0.5,1.5,1.1C244,27.7,244,28,244,28.3z"/>
<path fill="#6CAB85" stroke="#6CAB85" d="M233.3,31.7c-2.8,1.2-5.7,1.6-8.7,1.5c-0.3,0-0.7-0.2-1-0.6c-0.2-0.3-0.4-0.6-0.4-0.9
	c0,0,0-0.1,0-0.1v0c0-0.2,0.1-0.4,0.1-0.5c0.5-0.6,1.2-0.8,2-0.6l0.7,0.2l0.1,0l0,0c0,0,0,0,0,0h0c0,0,0.1,0,0.1,0c0,0,0.1,0,0.1,0
	h0c0,0,0.1,0,0.2,0c0,0,0,0,0,0v0c0.2,0,0.5,0.1,0.8,0.2c0.1,0,0.2,0,0.3,0.1c0.4,0.1,0.8,0.1,1.2,0.2c1.4,0.2,2.8,0.3,4.1,0.3
	c0.1,0,0.2,0,0.3,0c0,0,0,0,0,0c0.1,0,0.2,0,0.2,0l0,0C233.6,31.5,233.5,31.6,233.3,31.7L233.3,31.7z"/>
<path fill="#6CAB85" stroke="#6CAB85" d="M233.5,31L233.5,31c0-0.2,0.1-0.2,0.1-0.3c0-0.1,0.1-0.1,0.1-0.1c0,0,0,0,0.1,0l0,0.5
	l0-0.3l0,0.3l0,0.5c0,0,0,0,0,0c0,0,0,0,0,0s0,0-0.1,0c0,0,0,0,0,0C233.6,31.3,233.5,31.2,233.5,31z"/>
<path fill="#6CAB85" stroke="#6CAB85" d="M239.2,6.8L239.2,6.8L239.2,6.8c-2.1,2.3-2.5,5.4-2.6,6.4c0,0.1,0,0.1,0,0.2
	c-0.3,2.5-1,5.8-2.6,10.1c1.3-1.7,2.9-3.7,4.2-5.8c1.1-1.7,2.1-3.4,2.7-5c0.7-1.6,1-3.1,0.9-4.2c0-0.1,0-0.2-0.1-0.3
	c-0.1-0.4-0.1-0.9-0.3-1.4c-0.1-0.3-0.2-0.6-0.3-0.8c-0.1-0.2-0.2-0.3-0.3-0.3c-0.1,0-0.2,0-0.4,0.1C240.2,5.9,239.8,6.2,239.2,6.8z
	"/>
<path fill="#6CAB85" stroke="#6CAB85" d="M223.7,23.9L223.7,23.9L223.7,23.9c0-0.1,0-0.1-0.1-0.1c-0.1,0-0.2-0.1-0.5-0.1l0,0l0,0
	c-0.8-0.2-2.1,0.2-4.4,2.8v0c-1.7,1.9-2.6,3.4-3.2,4.4c0,0.1-0.1,0.1-0.1,0.2l0,0l0,0c-1.4,2.2-3.1,3.9-4.7,5.2
	c0.5-0.3,0.9-0.6,1.4-0.9c3.3-2.1,6.4-4.7,8.7-7c1.1-1.1,2-2.2,2.5-3c0.3-0.4,0.4-0.8,0.5-1C223.8,24,223.7,23.9,223.7,23.9z"/>
<path fill="#6CAB85" d="M206.7,38.3c-0.2-0.1,0-0.1,0.2-0.2c0.3-0.1,0.5-0.2,0.8-0.3c0.7-0.4,1.5-0.8,2.3-1.1
	c1.9-1.1,3.8-2.3,5.5-3.7c2.7-2,5.5-4.3,7.4-7.2c0.3-0.4,0.6-0.8,0.7-1.3c0.2-0.6,0.1-0.8-0.7-0.9c-1.2-0.1-2.3,0.9-3.1,1.6
	c-2.7,2.5-4.2,5.9-6.6,8.6c-1.3,1.4-2.7,2.5-4.2,3.5c-0.5,0.3-1.1,0.7-1.6,1c-0.2,0.1-0.3,0.3-0.5,0.3c-0.4,0.1,0,0.3-0.1-0.2
	c0.2,0.6-0.8,0.8-1,0.2c-0.2-0.7,1.2-1.2,1.5-1.5c1.6-1,3-2,4.3-3.3c3.2-3.1,4.8-7.4,8.4-10.2c1-0.8,2.1-1.3,3.4-1.1
	c1.2,0.3,1.4,1.2,1.1,2.2c-0.5,1.3-1.6,2.5-2.6,3.5c-1.6,1.6-3.2,3.1-4.9,4.5c-2.2,1.7-4.5,3.3-6.9,4.6c-0.9,0.4-1.8,1-2.7,1.3
	c-0.4,0.1-1,0.4-1.4,0.1C205.6,38.7,206.2,37.9,206.7,38.3z"/>
<defs>
	<filter id="Adobe_OpacityMaskFilter" filterUnits="userSpaceOnUse" x="204.9" y="21.6" width="20.8" height="18.5">
		<feColorMatrix  type="matrix" values="1 0 0 0 0  0 1 0 0 0  0 0 1 0 0  0 0 0 1 0"/>
	</filter>
</defs>
<mask maskUnits="userSpaceOnUse" x="204.9" y="21.6" width="20.8" height="18.5" id="path-14-inside-2_1_">
	<path fill="#FFFFFF" filter="url(#Adobe_OpacityMaskFilter)" d="M206.7,38.3c-0.2-0.1,0-0.1,0.2-0.2c0.3-0.1,0.5-0.2,0.8-0.3
		c0.7-0.4,1.5-0.8,2.3-1.1c1.9-1.1,3.8-2.3,5.5-3.7c2.7-2,5.5-4.3,7.4-7.2c0.3-0.4,0.6-0.8,0.7-1.3c0.2-0.6,0.1-0.8-0.7-0.9
		c-1.2-0.1-2.3,0.9-3.1,1.6c-2.7,2.5-4.2,5.9-6.6,8.6c-1.3,1.4-2.7,2.5-4.2,3.5c-0.5,0.3-1.1,0.7-1.6,1c-0.2,0.1-0.3,0.3-0.5,0.3
		c-0.4,0.1,0,0.3-0.1-0.2c0.2,0.6-0.8,0.8-1,0.2c-0.2-0.7,1.2-1.2,1.5-1.5c1.6-1,3-2,4.3-3.3c3.2-3.1,4.8-7.4,8.4-10.2
		c1-0.8,2.1-1.3,3.4-1.1c1.2,0.3,1.4,1.2,1.1,2.2c-0.5,1.3-1.6,2.5-2.6,3.5c-1.6,1.6-3.2,3.1-4.9,4.5c-2.2,1.7-4.5,3.3-6.9,4.6
		c-0.9,0.4-1.8,1-2.7,1.3c-0.4,0.1-1,0.4-1.4,0.1C205.6,38.7,206.2,37.9,206.7,38.3z"/>
</mask>
<path mask="url(#path-14-inside-2_1_)" fill="#6CAB85" d="M207.7,37.8l0.4,0.9l0,0l0,0L207.7,37.8z M210,36.6l0.5,0.9l0,0l0,0
	L210,36.6z M215.5,33l-0.6-0.8l0,0l0,0L215.5,33z M223,25.8l-0.8-0.6l0,0l0,0L223,25.8z M223.7,24.5l-1-0.3l0,0l0,0L223.7,24.5z
	 M223,23.6l-0.1,1l0,0L223,23.6z M219.9,25.2l-0.7-0.7l0,0L219.9,25.2z M213.3,33.8l-0.7-0.7l0,0L213.3,33.8z M209.1,37.4l0.6,0.8
	l0,0l0,0L209.1,37.4z M207.5,38.4l0.5,0.9l0,0l0,0L207.5,38.4z M207,38.7l-0.3-1l0.1,0l0.1,0L207,38.7z M206.9,38.5l-1,0.2l2-0.4
	L206.9,38.5z M205.9,38.7l0.9-0.3l0,0l0,0L205.9,38.7z M207.4,37.2l-0.5-0.8l0,0l0,0L207.4,37.2z M211.7,34l-0.7-0.7l0,0L211.7,34z
	 M220.1,23.8l-0.6-0.8l0,0l0,0L220.1,23.8z M223.5,22.7l0.2-1l0,0l0,0L223.5,22.7z M224.6,24.9l1,0.3l0,0l0,0L224.6,24.9z M222,28.4
	l-0.7-0.7l0,0l0,0L222,28.4z M217.1,32.9l-0.6-0.8l0,0L217.1,32.9z M210.2,37.5l0.5,0.9l0,0l0,0L210.2,37.5z M207.5,38.8l0.3,0.9
	l0,0l0,0L207.5,38.8z M206.1,39l0.5-0.9l0.1,0l0.1,0L206.1,39z M206.1,39.1c0,0-0.1-0.1-0.2-0.1c0,0-0.2-0.2-0.3-0.4
	c0-0.1-0.1-0.3-0.1-0.5c0-0.2,0.1-0.4,0.2-0.5c0.2-0.2,0.4-0.3,0.4-0.3c0.1,0,0.1-0.1,0.2-0.1c0,0,0.1,0,0.1,0c0,0,0.1,0,0.1,0
	l0.7,1.9c-0.1,0-0.2,0.1-0.3,0.1c-0.1,0,0,0,0,0c0,0,0.2-0.1,0.4-0.3c0.1-0.1,0.2-0.3,0.2-0.5c0-0.2,0-0.4,0-0.5
	c-0.1-0.2-0.2-0.3-0.2-0.3c0,0-0.1-0.1-0.1,0L206.1,39.1z M206.6,37.1c0.1-0.1,0.3-0.1,0.4-0.2c0.1-0.1,0.3-0.1,0.4-0.2l0.7,1.9
	c-0.1,0.1-0.3,0.1-0.4,0.2c-0.1,0.1-0.3,0.1-0.4,0.2L206.6,37.1z M207.3,36.9c0.4-0.2,0.7-0.4,1.1-0.6c0.4-0.2,0.8-0.4,1.2-0.6
	l0.9,1.8c-0.4,0.2-0.7,0.4-1.1,0.6c-0.4,0.2-0.8,0.4-1.2,0.6L207.3,36.9z M209.5,35.7c1.9-1.1,3.7-2.2,5.4-3.6l1.2,1.6
	c-1.8,1.4-3.7,2.6-5.7,3.7L209.5,35.7z M215,32.2c2.7-2,5.4-4.3,7.2-7l1.7,1.1c-2,3-5,5.4-7.7,7.5L215,32.2z M222.2,25.2
	c0.3-0.4,0.5-0.7,0.6-1l1.9,0.6c-0.2,0.7-0.6,1.2-0.8,1.6L222.2,25.2z M222.8,24.1C222.8,24,222.8,24,222.8,24.1c0,0,0,0.1,0.2,0.3
	c0.1,0.1,0.1,0.1,0.2,0.2c0,0,0.1,0,0.1,0c0,0,0,0-0.1,0c0,0-0.1,0-0.2,0l0.1-2c0.2,0,0.5,0,0.7,0.1c0.2,0.1,0.5,0.2,0.8,0.5
	c0.2,0.3,0.3,0.7,0.3,0.9c0,0.3-0.1,0.5-0.2,0.7L222.8,24.1z M223,24.6c-0.3,0-0.7,0.1-1.1,0.3c-0.4,0.3-0.8,0.6-1.3,1l-1.4-1.5
	c0.4-0.4,1-0.9,1.6-1.3c0.6-0.4,1.4-0.7,2.3-0.6L223,24.6z M220.6,26c-1.2,1.2-2.2,2.6-3.3,4.1c-1,1.5-2,3-3.3,4.5l-1.5-1.4
	c1.2-1.3,2.1-2.7,3.2-4.2c1-1.5,2.1-3,3.5-4.4L220.6,26z M214,34.5c-1.3,1.4-2.8,2.6-4.3,3.7l-1.1-1.7c1.4-1,2.8-2.1,4-3.4L214,34.5
	z M209.6,38.2c-0.2,0.2-0.5,0.3-0.8,0.5c-0.3,0.2-0.6,0.4-0.8,0.5l-1-1.7c0.2-0.2,0.5-0.3,0.8-0.5c0.3-0.2,0.6-0.4,0.8-0.5
	L209.6,38.2z M208,39.3C208,39.2,208,39.2,208,39.3C208,39.2,208,39.3,208,39.3C208,39.3,207.9,39.3,208,39.3
	c-0.2,0.2-0.5,0.4-0.8,0.4l-0.3-2c-0.1,0-0.2,0.1-0.2,0.1c0,0,0,0,0,0c0,0,0,0,0.1-0.1c0.1,0,0.1-0.1,0.3-0.2L208,39.3z M207.3,39.6
	C207.3,39.6,207.3,39.6,207.3,39.6c0.1-0.1,0.2-0.1,0.3-0.3c0.1-0.1,0.3-0.4,0.2-0.8c-0.1-0.2-0.2-0.4-0.4-0.6
	c-0.2-0.1-0.4-0.2-0.5-0.2c-0.3,0-0.5,0.1-0.7,0.2c-0.1,0.1-0.2,0.2-0.2,0.3c0,0.1,0,0.2-0.1,0.2c0,0.1,0,0.1,0,0.1l2-0.3
	c0,0.2,0,0.5-0.1,0.8c-0.1,0.1-0.2,0.3-0.3,0.4c-0.1,0.1-0.4,0.3-0.7,0.3c-0.2,0-0.4-0.1-0.6-0.2c-0.2-0.1-0.3-0.4-0.4-0.6
	c-0.1-0.4,0.1-0.8,0.2-0.9c0.2-0.3,0.5-0.4,0.7-0.4L207.3,39.6z M207.9,38.3c0.1,0.4,0,0.9-0.3,1.3c-0.3,0.3-0.6,0.5-0.9,0.5
	c-0.6,0.1-1.5-0.1-1.8-1.1l1.9-0.5c0-0.1-0.1-0.3-0.3-0.3c-0.1-0.1-0.2-0.1-0.3,0c-0.1,0-0.2,0-0.3,0.2c-0.1,0.2-0.2,0.4-0.1,0.5
	L207.9,38.3z M205,39c-0.2-0.6,0-1.1,0.2-1.4c0.2-0.3,0.5-0.5,0.7-0.7c0.2-0.2,0.5-0.3,0.7-0.4c0.2-0.1,0.3-0.2,0.4-0.2l1.1,1.7
	c-0.1,0.1-0.4,0.2-0.5,0.3c-0.2,0.1-0.3,0.2-0.5,0.3c-0.1,0-0.1,0.1-0.2,0.1c0,0-0.1,0.1-0.1,0.1c0,0,0.1-0.2,0-0.4L205,39z
	 M206.9,36.4c1.5-0.9,2.9-1.9,4.1-3.1l1.4,1.4c-1.3,1.3-2.8,2.4-4.4,3.4L206.9,36.4z M211,33.3c1.5-1.5,2.6-3.2,3.9-5.1
	c1.3-1.8,2.6-3.7,4.5-5.2l1.2,1.6c-1.6,1.3-2.9,3-4.1,4.8c-1.2,1.8-2.5,3.7-4.2,5.3L211,33.3z M219.5,23c1.1-0.8,2.5-1.6,4.2-1.3
	l-0.4,2c-0.9-0.2-1.7,0.2-2.7,0.9L219.5,23z M223.7,21.7c0.9,0.2,1.5,0.7,1.8,1.4c0.3,0.7,0.2,1.5,0,2.1l-1.9-0.6
	c0.1-0.4,0.1-0.6,0.1-0.7c0,0,0-0.1-0.1-0.1c0,0-0.1-0.1-0.3-0.1L223.7,21.7z M225.5,25.3c-0.6,1.5-1.8,2.8-2.8,3.8l-1.4-1.4
	c1-1,1.9-2.1,2.3-3.2L225.5,25.3z M222.7,29.1c-1.6,1.7-3.3,3.2-5,4.6l-1.2-1.6c1.7-1.3,3.3-2.8,4.8-4.4L222.7,29.1z M217.7,33.7
	c-2.2,1.7-4.6,3.4-7,4.7l-1-1.7c2.4-1.3,4.6-2.9,6.8-4.6L217.7,33.7z M210.6,38.4c-0.4,0.2-0.8,0.4-1.3,0.7c-0.5,0.2-1,0.5-1.5,0.7
	l-0.7-1.9c0.4-0.1,0.8-0.3,1.2-0.6c0.4-0.2,0.9-0.5,1.4-0.7L210.6,38.4z M207.8,39.8c-0.1,0-0.5,0.2-0.8,0.2
	c-0.3,0.1-0.9,0.1-1.5-0.3l1.2-1.6c-0.1-0.1-0.2,0-0.1-0.1c0.1,0,0.1,0,0.2-0.1c0,0,0.1,0,0.2-0.1c0.1,0,0.1,0,0.2-0.1L207.8,39.8z
	 M205.7,39.9c-0.4-0.2-0.7-0.6-0.7-1.1c0-0.4,0.1-0.8,0.3-1c0.2-0.3,0.5-0.5,0.9-0.6c0.4-0.1,0.8,0,1.2,0.2l-1.2,1.6
	c0.1,0.1,0.2,0.1,0.4,0.1c0.1,0,0.2-0.1,0.3-0.2c0.1-0.1,0.1-0.2,0.1-0.4c0-0.3-0.2-0.4-0.3-0.5L205.7,39.9z"/>
<path fill="#6CAB85" stroke="#6CAB85" stroke-width="2" stroke-miterlimit="10" d="M237.6,22c3.1-2.1,5.9-3.5,7.8-4.4
	c4.1-1.9,6.4-2.4,9-4.9c2.1-2,2.7-3.8,3-4.9c0.1-0.4,0.9-3.9-0.5-4.7c-2.1-1.3-7.6,4.5-8.2,5.1c-2.1,2.1-2.7,3.5-4.9,6.5
	S239.5,20.1,237.6,22z"/>
<path fill="#6CAB85" stroke="#6CAB85" d="M183.9,37.4L183.9,37.4c-1.5,0.6-2.7,0.9-3.8,1.2c-0.2,0.1-0.4,0.1-0.6,0.2
	c-0.9,0.3-1.9,0.5-3.1,0.9c-1.6,0.5-3,1.1-4.3,1.6c2.9-2.7,5.7-4.6,7.7-6c0,0,0.1,0,0.1-0.1c1-0.6,3.1-1.9,5.3-3
	c1.1-0.5,2.2-1,3.1-1.2c0.5-0.1,0.8-0.2,1.1-0.1c0.3,0,0.4,0.1,0.5,0.2c0.1,0.1,0.1,0.2,0.2,0.5c0,0.2,0,0.5-0.1,0.8
	c-0.1,0.4-0.3,0.8-0.4,1.1c0,0.1-0.1,0.2-0.1,0.3C189.2,34.7,188.2,35.7,183.9,37.4z"/>
<path fill="#6CAB85" stroke="#6CAB85" d="M136.5,40.4L136.5,40.4c-2.4,0.8-5.8,1.7-9.9,2.2c3.1-0.9,5.4-2,7.1-3l0,0l0,0
	c1.6-1,2.8-1.8,3.6-2.3c0.4-0.3,0.7-0.5,0.9-0.6c0.1-0.1,0.2-0.1,0.2-0.2l0.1,0l0,0l0,0l0,0v0v0l-0.3-0.4l0.3,0.4l0,0
	c2.6-1.9,5.1-3.2,8.3-4.8l0,0l0,0c0.3-0.2,0.7-0.3,1-0.3c0.3,0,0.4,0,0.5,0.2c0,0,0,0,0,0.1c0,0.1-0.1,0.2-0.2,0.4
	c-0.2,0.3-0.4,0.5-0.5,0.8c0,0-0.1,0.1-0.1,0.1c-1.9,2.5-4.7,4.3-7,5.6c-1.1,0.6-2.2,1.1-2.9,1.4c-0.4,0.2-0.7,0.3-0.9,0.4
	C136.7,40.3,136.6,40.4,136.5,40.4L136.5,40.4L136.5,40.4z M148.3,31.6C148.3,31.6,148.3,31.6,148.3,31.6
	C148.3,31.6,148.3,31.6,148.3,31.6z"/>
<path fill="#6CAB85" stroke="#6CAB85" d="M120,43.9L120,43.9c-0.2,0-0.2-0.1-0.3-0.1c0-0.1-0.1-0.2,0-0.3c0.1-0.3,0.3-0.5,0.6-0.5
	l0,0l0,0c5.3,0.7,10.6,1.2,16,1.4l0,0c16.2,0.6,32.6-1.2,48.4-3.8c0.3,0,0.6,0.2,0.7,0.5c0,0.1,0,0.3,0,0.4c0,0.1-0.1,0.1-0.3,0.2
	c-4.5,0.7-9.1,1.4-13.6,1.9c-8.5,1-17,1.9-25.6,2C137.3,45.7,128.6,45,120,43.9z"/>
<path fill="#6CAB85" stroke="#6CAB85" d="M154.9,39L154.9,39L154.9,39c1.2-0.4,1.9-0.4,2.3-0.4c0.4,0,0.5,0.1,0.5,0.2c0,0,0,0,0,0
	c0.2,0.2,0.3,0.7,0.3,1.3c-0.1,0.6-0.3,1.3-0.7,1.7l0,0l0,0c-0.5,0.6-1.1,1-2.2,1.2c-1,0.2-2.2,0.3-3.8,0.5c-0.2,0-0.4,0-0.6,0.1
	c-1.8,0.2-3.4,0.3-4.7,0.5c0.9-0.4,1.8-0.8,2.8-1.4c0.6-0.3,1-0.7,1.5-1c0.1-0.1,0.2-0.1,0.3-0.2c0.4-0.3,0.7-0.5,1.1-0.8
	C152.5,40,153.5,39.5,154.9,39z"/>
<path fill="#6CAB85" stroke="#6CAB85" d="M146.4,50.7L146.4,50.7L146.4,50.7c-1.4-1.1-3.3-2.8-5.2-5.2c1,0.7,2.3,1.5,3.6,2.2
	c2.9,1.6,5.6,2.4,7.6,3c0.2,0,0.3,0.1,0.5,0.1c1,0.3,1.9,0.6,2.4,0.9c0.6,0.3,0.7,0.5,0.7,0.7l0,0v0c0,0.2-0.2,0.6-0.6,0.9
	c-0.4,0.3-0.9,0.6-1.4,0.8c-1.1,0.3-2.3,0.1-3.6-0.6C149.1,52.9,147.8,51.9,146.4,50.7z"/>
<path fill="#6CAB85" stroke="#6CAB85" d="M169.7,49.3L169.7,49.3L169.7,49.3c-1.4-1.1-3.3-2.8-5.2-5.2c1,0.7,2.3,1.5,3.6,2.2
	c2.9,1.6,5.6,2.4,7.6,3c0.2,0,0.3,0.1,0.5,0.1c1,0.3,1.8,0.6,2.4,0.9c0.6,0.3,0.7,0.5,0.7,0.7l0,0v0c0,0.2-0.2,0.6-0.6,0.9
	c-0.4,0.3-0.9,0.6-1.4,0.8c-1.1,0.3-2.3,0.1-3.6-0.6C172.4,51.5,171.1,50.4,169.7,49.3z"/>
<path fill="#6CAB85" stroke="#6CAB85" stroke-width="2" stroke-miterlimit="10" d="M178.6,42c2.5-0.2,4.4-0.6,5.8-0.8
	c3.2-0.7,4.3-1.3,6.2-1c0.6,0.1,3.6,0.6,4.3,2.7c0.6,2-1.4,4.7-3.5,5c-1.7,0.2-2.7-1.2-5.3-2.8C183.5,43.3,180.9,42.4,178.6,42z"/>
<path fill="#6CAB85" stroke="#6CAB85" d="M75.9,38.1L75.9,38.1c1.5,0.6,2.7,0.9,3.8,1.3c0.2,0.1,0.4,0.1,0.6,0.2
	c0.9,0.3,1.9,0.5,3.1,0.9c1.6,0.5,3,1.1,4.3,1.6c-2.9-2.8-5.6-4.7-7.7-6c0,0-0.1,0-0.1-0.1c-1-0.6-3.1-1.9-5.3-3
	c-1.1-0.5-2.2-1-3.1-1.2c-0.5-0.1-0.8-0.2-1.1-0.1c-0.3,0-0.4,0.1-0.5,0.2c-0.1,0.1-0.1,0.2-0.2,0.5c0,0.2,0,0.5,0.1,0.8
	c0.1,0.4,0.2,0.8,0.4,1.1c0,0.1,0.1,0.2,0.1,0.3C70.5,35.5,71.5,36.5,75.9,38.1z"/>
<path fill="#6CAB85" stroke="#6CAB85" d="M123.3,41.2L123.3,41.2c2.4,0.8,5.8,1.7,9.9,2.2c-3.1-0.9-5.4-2-7.1-3l0,0l0,0
	c-1.6-1-2.8-1.8-3.6-2.3c-0.4-0.3-0.7-0.5-0.9-0.6c-0.1-0.1-0.2-0.1-0.2-0.2l-0.1,0l0,0l0,0l0,0l0,0v0l0.3-0.4l-0.3,0.4l0,0
	c-2.6-1.9-5.1-3.2-8.3-4.8l0,0l0,0c-0.3-0.2-0.7-0.3-1-0.3c-0.3,0-0.4,0-0.5,0.2c0,0,0,0,0,0.1c0,0.1,0.1,0.2,0.2,0.4
	c0.2,0.3,0.3,0.5,0.5,0.8c0,0,0.1,0.1,0.1,0.1c1.9,2.5,4.7,4.3,7,5.6c1.1,0.6,2.2,1.1,2.9,1.4c0.4,0.2,0.7,0.3,0.9,0.4
	C123.1,41.1,123.1,41.2,123.3,41.2L123.3,41.2L123.3,41.2z M111.4,32.4C111.4,32.4,111.4,32.4,111.4,32.4
	C111.4,32.4,111.4,32.4,111.4,32.4z"/>
<path fill="#6CAB85" stroke="#6CAB85" d="M139.7,44.7L139.7,44.7c0.2,0,0.2-0.1,0.3-0.1c0-0.1,0.1-0.2,0-0.3
	c-0.1-0.3-0.3-0.5-0.6-0.5l0,0l0,0c-5.3,0.7-10.6,1.2-16,1.4l0,0c-16.2,0.6-32.6-1.2-48.4-3.8c-0.3,0-0.6,0.2-0.7,0.5
	c0,0.1,0,0.3,0,0.4c0,0.1,0.1,0.1,0.3,0.2c4.5,0.7,9.1,1.4,13.6,1.9c8.5,1,17,1.9,25.6,2C122.4,46.5,131.1,45.8,139.7,44.7z"/>
<path fill="#6CAB85" stroke="#6CAB85" d="M104.9,39.8L104.9,39.8L104.9,39.8c-1.2-0.4-1.9-0.4-2.3-0.4c-0.4,0-0.5,0.1-0.5,0.2
	c0,0,0,0,0,0c-0.2,0.2-0.3,0.7-0.3,1.3c0.1,0.6,0.3,1.3,0.7,1.7v0l0,0c0.5,0.6,1.1,1,2.2,1.2c1,0.2,2.2,0.3,3.8,0.5
	c0.2,0,0.4,0,0.6,0.1c1.8,0.2,3.4,0.3,4.7,0.5c-0.9-0.4-1.8-0.8-2.8-1.4c-0.6-0.3-1-0.7-1.5-1c-0.1-0.1-0.2-0.1-0.3-0.2
	c-0.4-0.3-0.7-0.5-1.1-0.8C107.3,40.8,106.3,40.3,104.9,39.8z"/>
<path fill="#6CAB85" stroke="#6CAB85" d="M112,51.6L112,51.6L112,51.6c1.4-1.1,3.3-2.8,5.2-5.2c-1,0.7-2.3,1.5-3.6,2.2
	c-2.9,1.6-5.6,2.4-7.6,3c-0.2,0-0.3,0.1-0.5,0.1c-1,0.3-1.8,0.6-2.4,0.9c-0.6,0.3-0.7,0.5-0.7,0.7v0l0,0c0,0.2,0.2,0.6,0.6,0.9
	c0.4,0.3,0.9,0.6,1.4,0.8c1.1,0.3,2.3,0.1,3.6-0.6C109.3,53.7,110.6,52.7,112,51.6z"/>
<path fill="#6CAB85" stroke="#6CAB85" d="M92.8,49.9L92.8,49.9L92.8,49.9c1.4-1.1,3.3-2.8,5.2-5.2c-1,0.7-2.3,1.5-3.6,2.2
	c-2.9,1.6-5.6,2.4-7.6,3c-0.2,0-0.3,0.1-0.5,0.1c-1,0.3-1.8,0.6-2.4,0.9c-0.6,0.3-0.7,0.5-0.7,0.7l0,0l0,0c0,0.2,0.2,0.6,0.6,0.9
	c0.4,0.3,0.9,0.6,1.4,0.8c1.1,0.3,2.3,0.1,3.6-0.6C90.1,52.1,91.5,51.1,92.8,49.9z"/>
<path fill="#6CAB85" stroke="#6CAB85" stroke-width="2" stroke-miterlimit="10" d="M81.1,42.8c-2.5-0.2-4.4-0.6-5.8-0.8
	c-3.2-0.7-4.3-1.3-6.2-1c-0.6,0.1-3.6,0.6-4.3,2.7c-0.6,2,1.4,4.7,3.5,5c1.7,0.2,2.7-1.2,5.3-2.8C76.3,44.1,78.8,43.2,81.1,42.8z"/>
<circle fill="#AE4A4A" cx="201" cy="41.5" r="4.4"/>
<circle fill="#AE4A4A" cx="59.8" cy="39.4" r="4.4"/>
<circle fill="#AE4A4A" cx="192.6" cy="38.7" r="3.2"/>
<circle fill="#AE4A4A" cx="64.7" cy="32" r="3.2"/>
<circle fill="#AE4A4A" cx="128.4" cy="37.8" r="3.2"/>
<circle fill="#AE4A4A" cx="208.2" cy="34.3" r="2.8"/>
<circle fill="#AE4A4A" cx="130.4" cy="43.1" r="2.8"/>
<circle fill="#AE4A4A" cx="74.1" cy="32.5" r="2.8"/>
<circle fill="#AE4A4A" cx="199.8" cy="31.5" r="4"/>
<circle fill="#AE4A4A" cx="121.2" cy="41.9" r="4"/>
<circle fill="#AE4A4A" cx="127.6" cy="49.9" r="4.8"/>
<circle fill="#AE4A4A" cx="69.8" cy="40.9" r="4"/>
</svg>
