<?xml version="1.0" encoding="UTF-8" standalone="no"?>
<svg
   xmlns:dc="http://purl.org/dc/elements/1.1/"
   xmlns:cc="http://creativecommons.org/ns#"
   xmlns:rdf="http://www.w3.org/1999/02/22-rdf-syntax-ns#"
   xmlns:svg="http://www.w3.org/2000/svg"
   xmlns="http://www.w3.org/2000/svg"
   xmlns:sodipodi="http://sodipodi.sourceforge.net/DTD/sodipodi-0.dtd"
   xmlns:inkscape="http://www.inkscape.org/namespaces/inkscape"
   width="300mm"
   height="300mm"
   viewBox="0 0 300 300"
   version="1.1"
   id="svg8"
   inkscape:version="1.0.1 (3bc2e813f5, 2020-09-07)"
   sodipodi:docname="bck.svg">
  <defs
     id="defs2" />
  <sodipodi:namedview
     id="base"
     pagecolor="#ffffff"
     bordercolor="#666666"
     borderopacity="1.0"
     inkscape:pageopacity="0.0"
     inkscape:pageshadow="2"
     inkscape:zoom="0.35"
     inkscape:cx="400"
     inkscape:cy="560"
     inkscape:document-units="mm"
     inkscape:current-layer="layer1"
     inkscape:document-rotation="0"
     showgrid="false"
     width="300mm"
     inkscape:window-width="2560"
     inkscape:window-height="1377"
     inkscape:window-x="-8"
     inkscape:window-y="-8"
     inkscape:window-maximized="1" />
  <metadata
     id="metadata5">
    <rdf:RDF>
      <cc:Work
         rdf:about="">
        <dc:format>image/svg+xml</dc:format>
        <dc:type
           rdf:resource="http://purl.org/dc/dcmitype/StillImage" />
        <dc:title></dc:title>
      </cc:Work>
    </rdf:RDF>
  </metadata>
  <g
     inkscape:label="Layer 1"
     inkscape:groupmode="layer"
     id="layer1">
    <path
       sodipodi:type="star"
       style="fill:#d4aa00;stroke-width:0.264583"
       id="path90"
       sodipodi:sides="5"
       sodipodi:cx="10.583333"
       sodipodi:cy="13.607142"
       sodipodi:r1="8.6191835"
       sodipodi:r2="2.23473"
       sodipodi:arg1="0.90975316"
       sodipodi:arg2="1.5380717"
       inkscape:flatsided="false"
       inkscape:rounded="0"
       inkscape:randomized="0"
       d="m 15.875,20.410714 -5.218549,-4.570038 -4.9084842,4.90156 2.7337442,-6.375355 -6.1784654,-3.15358 6.9080959,0.629852 1.0899825,-6.8505794 1.535694,6.7646244 6.852111,-1.08031 -5.958985,3.550915 z"
       inkscape:transform-center-x="0.087145803"
       inkscape:transform-center-y="-0.7397378" />
    <path
       sodipodi:type="star"
       style="fill:#d4aa00;stroke-width:0.264583"
       id="path90-7"
       sodipodi:sides="5"
       sodipodi:cx="111.21215"
       sodipodi:cy="130.00759"
       sodipodi:r1="8.6191835"
       sodipodi:r2="2.23473"
       sodipodi:arg1="0.90975316"
       sodipodi:arg2="1.5380717"
       inkscape:flatsided="false"
       inkscape:rounded="0"
       inkscape:randomized="0"
       d="m 116.50382,136.81116 -5.21855,-4.57004 -4.90849,4.90156 2.73375,-6.37536 -6.17847,-3.15358 6.9081,0.62985 1.08998,-6.85058 1.5357,6.76463 6.85211,-1.08031 -5.95899,3.55091 z"
       inkscape:transform-center-x="0.087145803"
       inkscape:transform-center-y="-0.7397378" />
    <path
       sodipodi:type="star"
       style="fill:#d4aa00;stroke-width:0.264583"
       id="path90-4"
       sodipodi:sides="5"
       sodipodi:cx="224.605"
       sodipodi:cy="21.906404"
       sodipodi:r1="8.6191835"
       sodipodi:r2="2.23473"
       sodipodi:arg1="0.90975316"
       sodipodi:arg2="1.5380717"
       inkscape:flatsided="false"
       inkscape:rounded="0"
       inkscape:randomized="0"
       d="m 229.89666,28.709976 -5.21855,-4.570038 -4.90848,4.90156 2.73374,-6.375355 -6.17846,-3.15358 6.90809,0.629852 1.08999,-6.850579 1.53569,6.764624 6.85211,-1.08031 -5.95898,3.550915 z"
       inkscape:transform-center-x="0.087145803"
       inkscape:transform-center-y="-0.7397378" />
    <path
       sodipodi:type="star"
       style="fill:#d4aa00;stroke-width:0.264583"
       id="path90-6"
       sodipodi:sides="5"
       sodipodi:cx="229.89667"
       sodipodi:cy="173.09688"
       sodipodi:r1="8.6191835"
       sodipodi:r2="2.23473"
       sodipodi:arg1="0.90975316"
       sodipodi:arg2="1.5380717"
       inkscape:flatsided="false"
       inkscape:rounded="0"
       inkscape:randomized="0"
       d="m 235.18833,179.90045 -5.21854,-4.57004 -4.90849,4.90156 2.73375,-6.37535 -6.17847,-3.15358 6.9081,0.62985 1.08998,-6.85058 1.53569,6.76462 6.85211,-1.08031 -5.95898,3.55092 z"
       inkscape:transform-center-x="0.087145803"
       inkscape:transform-center-y="-0.7397378" />
    <path
       sodipodi:type="star"
       style="fill:#d4aa00;stroke-width:0.264583"
       id="path90-2"
       sodipodi:sides="5"
       sodipodi:cx="110.45619"
       sodipodi:cy="63.483785"
       sodipodi:r1="8.6191835"
       sodipodi:r2="2.23473"
       sodipodi:arg1="0.90975316"
       sodipodi:arg2="1.5380717"
       inkscape:flatsided="false"
       inkscape:rounded="0"
       inkscape:randomized="0"
       d="m 115.74786,70.287355 -5.21855,-4.570038 -4.90848,4.90156 2.73374,-6.375354 -6.17847,-3.153581 6.9081,0.629853 1.08998,-6.85058 1.5357,6.764625 6.85211,-1.080311 -5.95899,3.550916 z"
       inkscape:transform-center-x="0.087145803"
       inkscape:transform-center-y="-0.7397378" />
    <path
       sodipodi:type="star"
       style="fill:#d4aa00;stroke-width:0.264583"
       id="path90-0"
       sodipodi:sides="5"
       sodipodi:cx="31.837146"
       sodipodi:cy="154.95402"
       sodipodi:r1="8.6191835"
       sodipodi:r2="2.23473"
       sodipodi:arg1="0.90975316"
       sodipodi:arg2="1.5380717"
       inkscape:flatsided="false"
       inkscape:rounded="0"
       inkscape:randomized="0"
       d="m 37.128814,161.7576 -5.21855,-4.57004 -4.908483,4.90156 2.733744,-6.37536 -6.178466,-3.15358 6.908096,0.62986 1.089982,-6.85058 1.535694,6.76462 6.852112,-1.08031 -5.958985,3.55092 z"
       inkscape:transform-center-x="0.087145803"
       inkscape:transform-center-y="-0.7397378" />
    <path
       sodipodi:type="star"
       style="fill:#d4aa00;stroke-width:0.264583"
       id="path90-8"
       sodipodi:sides="5"
       sodipodi:cx="67.366908"
       sodipodi:cy="267.59093"
       sodipodi:r1="8.6191835"
       sodipodi:r2="2.23473"
       sodipodi:arg1="0.90975316"
       sodipodi:arg2="1.5380717"
       inkscape:flatsided="false"
       inkscape:rounded="0"
       inkscape:randomized="0"
       d="m 72.658572,274.39451 -5.218549,-4.57003 -4.908484,4.90156 2.733744,-6.37536 -6.178465,-3.15358 6.908096,0.62985 1.089982,-6.85058 1.535694,6.76463 6.852111,-1.08031 -5.958985,3.55091 z"
       inkscape:transform-center-x="0.087145803"
       inkscape:transform-center-y="-0.7397378" />
    <path
       sodipodi:type="star"
       style="fill:#d4aa00;stroke-width:0.264583"
       id="path90-1"
       sodipodi:sides="5"
       sodipodi:cx="25.033574"
       sodipodi:cy="204.84688"
       sodipodi:r1="8.6191835"
       sodipodi:r2="2.23473"
       sodipodi:arg1="0.90975316"
       sodipodi:arg2="1.5380717"
       inkscape:flatsided="false"
       inkscape:rounded="0"
       inkscape:randomized="0"
       d="m 30.32524,211.65045 -5.218549,-4.57004 -4.908484,4.90156 2.733744,-6.37535 -6.178465,-3.15358 6.908096,0.62985 1.089982,-6.85058 1.535694,6.76462 6.852111,-1.08031 -5.958985,3.55092 z"
       inkscape:transform-center-x="0.087145803"
       inkscape:transform-center-y="-0.7397378" />
    <path
       sodipodi:type="star"
       style="fill:#d4aa00;stroke-width:0.264583"
       id="path90-60"
       sodipodi:sides="5"
       sodipodi:cx="34.860955"
       sodipodi:cy="74.067119"
       sodipodi:r1="8.6191835"
       sodipodi:r2="2.23473"
       sodipodi:arg1="0.90975316"
       sodipodi:arg2="1.5380717"
       inkscape:flatsided="false"
       inkscape:rounded="0"
       inkscape:randomized="0"
       d="m 40.152621,80.870687 -5.218549,-4.570038 -4.908484,4.90156 2.733744,-6.375354 -6.178465,-3.153581 6.908096,0.629853 1.089982,-6.85058 1.535694,6.764625 6.852111,-1.080311 -5.958985,3.550916 z"
       inkscape:transform-center-x="0.087145803"
       inkscape:transform-center-y="-0.7397378" />
    <path
       sodipodi:type="star"
       style="fill:#d4aa00;stroke-width:0.264583"
       id="path90-9"
       sodipodi:sides="5"
       sodipodi:cx="171.68834"
       sodipodi:cy="27.954023"
       sodipodi:r1="8.6191835"
       sodipodi:r2="2.23473"
       sodipodi:arg1="0.90975316"
       sodipodi:arg2="1.5380717"
       inkscape:flatsided="false"
       inkscape:rounded="0"
       inkscape:randomized="0"
       d="m 176.98001,34.757595 -5.21855,-4.570038 -4.90849,4.90156 2.73375,-6.375355 -6.17847,-3.15358 6.9081,0.629852 1.08998,-6.850579 1.53569,6.764624 6.85212,-1.080311 -5.95899,3.550916 z"
       inkscape:transform-center-x="0.087145803"
       inkscape:transform-center-y="-0.7397378" />
    <path
       sodipodi:type="star"
       style="fill:#d4aa00;stroke-width:0.264583"
       id="path90-94"
       sodipodi:sides="5"
       sodipodi:cx="99.87286"
       sodipodi:cy="13.590928"
       sodipodi:r1="8.6191835"
       sodipodi:r2="2.23473"
       sodipodi:arg1="0.90975316"
       sodipodi:arg2="1.5380717"
       inkscape:flatsided="false"
       inkscape:rounded="0"
       inkscape:randomized="0"
       d="m 105.16453,20.3945 -5.218549,-4.570038 -4.908483,4.90156 2.733744,-6.375355 -6.178466,-3.15358 6.908096,0.629852 1.089982,-6.8505797 1.535696,6.7646247 6.85211,-1.080311 -5.95899,3.550916 z"
       inkscape:transform-center-x="0.087145803"
       inkscape:transform-center-y="-0.7397378" />
    <path
       sodipodi:type="star"
       style="fill:#d4aa00;stroke-width:0.264583"
       id="path90-00"
       sodipodi:sides="5"
       sodipodi:cx="216.28953"
       sodipodi:cy="89.186166"
       sodipodi:r1="8.6191835"
       sodipodi:r2="2.23473"
       sodipodi:arg1="0.90975316"
       sodipodi:arg2="1.5380717"
       inkscape:flatsided="false"
       inkscape:rounded="0"
       inkscape:randomized="0"
       d="m 221.5812,95.989737 -5.21855,-4.570039 -4.90848,4.90156 2.73374,-6.375354 -6.17846,-3.153581 6.90809,0.629853 1.08999,-6.85058 1.53569,6.764625 6.85211,-1.080311 -5.95898,3.550916 z"
       inkscape:transform-center-x="0.087145803"
       inkscape:transform-center-y="-0.7397378" />
    <path
       sodipodi:type="star"
       style="fill:#d4aa00;stroke-width:0.264583"
       id="path90-08"
       sodipodi:sides="5"
       sodipodi:cx="279.03357"
       sodipodi:cy="18.882595"
       sodipodi:r1="8.6191835"
       sodipodi:r2="2.23473"
       sodipodi:arg1="0.90975316"
       sodipodi:arg2="1.5380717"
       inkscape:flatsided="false"
       inkscape:rounded="0"
       inkscape:randomized="0"
       d="m 284.32524,25.686167 -5.21855,-4.570038 -4.90849,4.90156 2.73375,-6.375355 -6.17847,-3.15358 6.9081,0.629852 1.08998,-6.85058 1.53569,6.764625 6.85212,-1.080311 -5.95899,3.550916 z"
       inkscape:transform-center-x="0.087145803"
       inkscape:transform-center-y="-0.7397378" />
    <path
       sodipodi:type="star"
       style="fill:#d4aa00;stroke-width:0.264583"
       id="path90-74"
       sodipodi:sides="5"
       sodipodi:cx="275.25381"
       sodipodi:cy="124.71593"
       sodipodi:r1="8.6191835"
       sodipodi:r2="2.23473"
       sodipodi:arg1="0.90975316"
       sodipodi:arg2="1.5380717"
       inkscape:flatsided="false"
       inkscape:rounded="0"
       inkscape:randomized="0"
       d="m 280.54548,131.5195 -5.21855,-4.57004 -4.90848,4.90156 2.73374,-6.37535 -6.17846,-3.15358 6.90809,0.62985 1.08999,-6.85058 1.53569,6.76462 6.85211,-1.08031 -5.95898,3.55092 z"
       inkscape:transform-center-x="0.087145803"
       inkscape:transform-center-y="-0.7397378" />
    <path
       sodipodi:type="star"
       style="fill:#d4aa00;stroke-width:0.264583"
       id="path90-13"
       sodipodi:sides="5"
       sodipodi:cx="287.34905"
       sodipodi:cy="198.04331"
       sodipodi:r1="8.6191835"
       sodipodi:r2="2.23473"
       sodipodi:arg1="0.90975316"
       sodipodi:arg2="1.5380717"
       inkscape:flatsided="false"
       inkscape:rounded="0"
       inkscape:randomized="0"
       d="m 292.64073,204.84688 -5.21855,-4.57004 -4.90849,4.90156 2.73375,-6.37536 -6.17847,-3.15358 6.9081,0.62986 1.08998,-6.85058 1.53569,6.76462 6.85212,-1.08031 -5.95899,3.55092 z"
       inkscape:transform-center-x="0.087145803"
       inkscape:transform-center-y="-0.7397378" />
    <path
       sodipodi:type="star"
       style="fill:#d4aa00;stroke-width:0.264583"
       id="path90-27"
       sodipodi:sides="5"
       sodipodi:cx="210.24191"
       sodipodi:cy="243.40045"
       sodipodi:r1="8.6191835"
       sodipodi:r2="2.23473"
       sodipodi:arg1="0.90975316"
       sodipodi:arg2="1.5380717"
       inkscape:flatsided="false"
       inkscape:rounded="0"
       inkscape:randomized="0"
       d="m 215.53358,250.20402 -5.21855,-4.57003 -4.90848,4.90156 2.73374,-6.37536 -6.17846,-3.15358 6.90809,0.62985 1.08998,-6.85058 1.5357,6.76463 6.85211,-1.08031 -5.95899,3.55091 z"
       inkscape:transform-center-x="0.087145803"
       inkscape:transform-center-y="-0.7397378" />
    <path
       sodipodi:type="star"
       style="fill:#d4aa00;stroke-width:0.264583"
       id="path90-084"
       sodipodi:sides="5"
       sodipodi:cx="140.69429"
       sodipodi:cy="183.68021"
       sodipodi:r1="8.6191835"
       sodipodi:r2="2.23473"
       sodipodi:arg1="0.90975316"
       sodipodi:arg2="1.5380717"
       inkscape:flatsided="false"
       inkscape:rounded="0"
       inkscape:randomized="0"
       d="m 145.98596,190.48378 -5.21855,-4.57004 -4.90849,4.90156 2.73375,-6.37535 -6.17847,-3.15359 6.9081,0.62986 1.08998,-6.85058 1.53569,6.76462 6.85212,-1.08031 -5.95899,3.55092 z"
       inkscape:transform-center-x="0.087145803"
       inkscape:transform-center-y="-0.7397378" />
    <path
       sodipodi:type="star"
       style="fill:#d4aa00;stroke-width:0.264583"
       id="path90-26"
       sodipodi:sides="5"
       sodipodi:cx="119.52762"
       sodipodi:cy="277.41831"
       sodipodi:r1="8.6191835"
       sodipodi:r2="2.23473"
       sodipodi:arg1="0.90975316"
       sodipodi:arg2="1.5380717"
       inkscape:flatsided="false"
       inkscape:rounded="0"
       inkscape:randomized="0"
       d="m 124.81929,284.22188 -5.21855,-4.57004 -4.90849,4.90156 2.73375,-6.37536 -6.17847,-3.15358 6.9081,0.62986 1.08998,-6.85058 1.53569,6.76462 6.85211,-1.08031 -5.95898,3.55092 z"
       inkscape:transform-center-x="0.087145803"
       inkscape:transform-center-y="-0.7397378" />
    <path
       sodipodi:type="star"
       style="fill:#d4aa00;stroke-width:0.264583"
       id="path90-98"
       sodipodi:sides="5"
       sodipodi:cx="87.777622"
       sodipodi:cy="210.13855"
       sodipodi:r1="8.6191835"
       sodipodi:r2="2.23473"
       sodipodi:arg1="0.90975316"
       sodipodi:arg2="1.5380717"
       inkscape:flatsided="false"
       inkscape:rounded="0"
       inkscape:randomized="0"
       d="m 93.069285,216.94212 -5.218549,-4.57004 -4.908484,4.90156 2.733744,-6.37535 -6.178465,-3.15358 6.908096,0.62985 1.089982,-6.85058 1.535694,6.76463 6.852112,-1.08032 -5.958985,3.55092 z"
       inkscape:transform-center-x="0.087145803"
       inkscape:transform-center-y="-0.7397378" />
    <path
       sodipodi:type="star"
       style="fill:#d4aa00;stroke-width:0.264583"
       id="path90-85"
       sodipodi:sides="5"
       sodipodi:cx="156.56929"
       sodipodi:cy="266.07902"
       sodipodi:r1="8.6191835"
       sodipodi:r2="2.23473"
       sodipodi:arg1="0.90975316"
       sodipodi:arg2="1.5380717"
       inkscape:flatsided="false"
       inkscape:rounded="0"
       inkscape:randomized="0"
       d="m 161.86096,272.88258 -5.21855,-4.57004 -4.90849,4.90156 2.73375,-6.37535 -6.17847,-3.15358 6.9081,0.62985 1.08998,-6.85058 1.53569,6.76463 6.85212,-1.08031 -5.95899,3.55091 z"
       inkscape:transform-center-x="0.087145803"
       inkscape:transform-center-y="-0.7397378" />
    <path
       sodipodi:type="star"
       style="fill:#d4aa00;stroke-width:0.264583"
       id="path90-25"
       sodipodi:sides="5"
       sodipodi:cx="177.73596"
       sodipodi:cy="146.63855"
       sodipodi:r1="8.6191835"
       sodipodi:r2="2.23473"
       sodipodi:arg1="0.90975316"
       sodipodi:arg2="1.5380717"
       inkscape:flatsided="false"
       inkscape:rounded="0"
       inkscape:randomized="0"
       d="m 183.02763,153.44212 -5.21855,-4.57004 -4.90848,4.90156 2.73374,-6.37535 -6.17847,-3.15358 6.9081,0.62985 1.08998,-6.85058 1.5357,6.76463 6.85211,-1.08032 -5.95899,3.55092 z"
       inkscape:transform-center-x="0.087145803"
       inkscape:transform-center-y="-0.7397378" />
    <path
       sodipodi:type="star"
       style="fill:#d4aa00;stroke-width:0.264583"
       id="path90-99"
       sodipodi:sides="5"
       sodipodi:cx="162.61691"
       sodipodi:cy="79.358785"
       sodipodi:r1="8.6191835"
       sodipodi:r2="2.23473"
       sodipodi:arg1="0.90975316"
       sodipodi:arg2="1.5380717"
       inkscape:flatsided="false"
       inkscape:rounded="0"
       inkscape:randomized="0"
       d="m 167.90858,86.162359 -5.21855,-4.570038 -4.90848,4.90156 2.73374,-6.375355 -6.17846,-3.15358 6.90809,0.629852 1.08998,-6.850579 1.5357,6.764624 6.85211,-1.08031 -5.95899,3.550915 z"
       inkscape:transform-center-x="0.087145803"
       inkscape:transform-center-y="-0.7397378" />
    <path
       sodipodi:type="star"
       style="fill:#d4aa00;stroke-width:0.264583"
       id="path90-88"
       sodipodi:sides="5"
       sodipodi:cx="245.01572"
       sodipodi:cy="264.56712"
       sodipodi:r1="8.6191835"
       sodipodi:r2="2.23473"
       sodipodi:arg1="0.90975316"
       sodipodi:arg2="1.5380717"
       inkscape:flatsided="false"
       inkscape:rounded="0"
       inkscape:randomized="0"
       d="m 250.30738,271.37068 -5.21855,-4.57004 -4.90848,4.90156 2.73374,-6.37535 -6.17846,-3.15358 6.9081,0.62985 1.08998,-6.85058 1.53569,6.76462 6.85211,-1.08031 -5.95898,3.55092 z"
       inkscape:transform-center-x="0.087145803"
       inkscape:transform-center-y="-0.7397378" />
    <path
       sodipodi:type="star"
       style="fill:#d4aa00;stroke-width:0.264583"
       id="path90-06"
       sodipodi:sides="5"
       sodipodi:cx="202.68238"
       sodipodi:cy="278.17426"
       sodipodi:r1="8.6191835"
       sodipodi:r2="2.23473"
       sodipodi:arg1="0.90975316"
       sodipodi:arg2="1.5380717"
       inkscape:flatsided="false"
       inkscape:rounded="0"
       inkscape:randomized="0"
       d="m 207.97404,284.97783 -5.21855,-4.57004 -4.90848,4.90156 2.73374,-6.37536 -6.17846,-3.15358 6.90809,0.62986 1.08998,-6.85058 1.5357,6.76462 6.85211,-1.08031 -5.95899,3.55092 z"
       inkscape:transform-center-x="0.087145803"
       inkscape:transform-center-y="-0.7397378" />
    <path
       sodipodi:type="star"
       style="fill:#d4aa00;stroke-width:0.264583"
       id="path90-23"
       sodipodi:sides="5"
       sodipodi:cx="279.78953"
       sodipodi:cy="277.41831"
       sodipodi:r1="8.6191835"
       sodipodi:r2="2.23473"
       sodipodi:arg1="0.90975316"
       sodipodi:arg2="1.5380717"
       inkscape:flatsided="false"
       inkscape:rounded="0"
       inkscape:randomized="0"
       d="m 285.08119,284.22188 -5.21855,-4.57004 -4.90849,4.90156 2.73375,-6.37536 -6.17847,-3.15358 6.9081,0.62986 1.08998,-6.85058 1.53569,6.76462 6.85212,-1.08031 -5.95899,3.55092 z"
       inkscape:transform-center-x="0.087145803"
       inkscape:transform-center-y="-0.7397378" />
    <path
       sodipodi:type="star"
       style="fill:#d4aa00;stroke-width:0.264583"
       id="path90-43"
       sodipodi:sides="5"
       sodipodi:cx="248.79548"
       sodipodi:cy="219.96593"
       sodipodi:r1="8.6191835"
       sodipodi:r2="2.23473"
       sodipodi:arg1="0.90975316"
       sodipodi:arg2="1.5380717"
       inkscape:flatsided="false"
       inkscape:rounded="0"
       inkscape:randomized="0"
       d="m 254.08715,226.7695 -5.21855,-4.57004 -4.90848,4.90156 2.73374,-6.37535 -6.17846,-3.15358 6.90809,0.62985 1.08999,-6.85058 1.53569,6.76462 6.85211,-1.08031 -5.95898,3.55092 z"
       inkscape:transform-center-x="0.087145803"
       inkscape:transform-center-y="-0.7397378" />
    <path
       sodipodi:type="star"
       style="fill:#d4aa00;stroke-width:0.264583"
       id="path90-068"
       sodipodi:sides="5"
       sodipodi:cx="280.54548"
       sodipodi:cy="61.215928"
       sodipodi:r1="8.6191835"
       sodipodi:r2="2.23473"
       sodipodi:arg1="0.90975316"
       sodipodi:arg2="1.5380717"
       inkscape:flatsided="false"
       inkscape:rounded="0"
       inkscape:randomized="0"
       d="m 285.83714,68.019499 -5.21855,-4.570038 -4.90848,4.90156 2.73374,-6.375355 -6.17847,-3.15358 6.9081,0.629852 1.08998,-6.85058 1.5357,6.764625 6.85211,-1.080311 -5.95899,3.550916 z"
       inkscape:transform-center-x="0.087145803"
       inkscape:transform-center-y="-0.7397378" />
    <path
       sodipodi:type="star"
       style="fill:#d4aa00;stroke-width:0.264583"
       id="path90-886"
       sodipodi:sides="5"
       sodipodi:cx="10.670479"
       sodipodi:cy="288.00164"
       sodipodi:r1="8.6191835"
       sodipodi:r2="2.23473"
       sodipodi:arg1="0.90975316"
       sodipodi:arg2="1.5380717"
       inkscape:flatsided="false"
       inkscape:rounded="0"
       inkscape:randomized="0"
       d="m 15.962146,294.80522 -5.21855,-4.57004 -4.9084834,4.90156 2.7337442,-6.37535 -6.1784654,-3.15358 6.9080959,0.62985 1.0899827,-6.85058 1.535693,6.76462 6.852112,-1.08031 -5.958985,3.55092 z"
       inkscape:transform-center-x="0.087145803"
       inkscape:transform-center-y="-0.7397378" />
    <path
       sodipodi:type="star"
       style="fill:#d4aa00;stroke-width:0.264583"
       id="path90-3"
       sodipodi:sides="5"
       sodipodi:cx="71.146669"
       sodipodi:cy="110.35283"
       sodipodi:r1="8.6191835"
       sodipodi:r2="2.23473"
       sodipodi:arg1="0.90975316"
       sodipodi:arg2="1.5380717"
       inkscape:flatsided="false"
       inkscape:rounded="0"
       inkscape:randomized="0"
       d="m 76.438334,117.1564 -5.218549,-4.57004 -4.908484,4.90156 2.733744,-6.37535 -6.178465,-3.15358 6.908096,0.62985 1.089982,-6.85058 1.535694,6.76462 6.852112,-1.08031 -5.958985,3.55092 z"
       inkscape:transform-center-x="0.087145803"
       inkscape:transform-center-y="-0.7397378" />
  </g>
</svg>
