<?xml version="1.0" encoding="utf-8"?>
<!-- Generator: Adobe Illustrator 24.3.0, SVG Export Plug-In . SVG Version: 6.00 Build 0)  -->
<svg version="1.2" baseProfile="tiny" id="Layer_1" xmlns="http://www.w3.org/2000/svg" xmlns:xlink="http://www.w3.org/1999/xlink"
	 x="0px" y="0px" viewBox="0 0 792.84 93.87" overflow="visible" xml:space="preserve">
<path fill="#6CAB85" d="M2.91,56.33c7.13-0.87,14.22-2.04,21.25-3.55c6.44-1.39,12.83-3.07,19.11-5.05
	c5.81-1.83,11.54-3.93,17.16-6.29c5.16-2.17,10.22-4.56,15.17-7.17c4.68-2.47,9.26-5.14,13.71-8.01c0.77-0.5,1.54-1,2.31-1.51
	c0.41-0.27,0.03-0.93-0.38-0.66c-4.59,3.05-9.32,5.9-14.16,8.53c-4.86,2.64-9.83,5.05-14.9,7.25c-5.5,2.39-11.12,4.51-16.82,6.38
	c-6.17,2.03-12.44,3.76-18.78,5.21c-6.91,1.58-13.9,2.83-20.93,3.76c-0.91,0.12-1.82,0.24-2.73,0.35
	C2.43,55.63,2.43,56.39,2.91,56.33L2.91,56.33z"/>
<g>
	<path fill="#6CAB85" d="M83.06,29.24c1.38-2.06,1.96-3.84,2.23-5.09c0.27-1.26,0.55-2.64,1.57-4.01c0.39-0.52,1-1.01,1.64-0.85
		c0.52,0.13,0.78,0.74,0.84,0.9c0.61,1.45-0.53,3.26-1.2,4.29C87.37,25.67,85.86,27.59,83.06,29.24z"/>
</g>
<g>
	<path fill="#6CAB85" d="M80.55,30.5c5.24-1.02,8.77-2.67,11.06-4.04c1.39-0.83,3.36-2.16,4.58-1.43c0.77,0.46,1.13,1.69,0.78,2.56
		c-0.53,1.31-2.6,1.56-4.45,1.77C89.4,29.71,85.36,30.12,80.55,30.5z"/>
</g>
<g>
	<path fill="#6CAB85" d="M62.81,38.82c0-4.52,1.4-7.96,1.4-7.96c1.13-2.77,2.02-3.75,2.68-4.2c0.84-0.57,1.6-0.86,2.26-0.86
		c0.35,0,0.67,0.08,0.94,0.24c0.91,0.53,1.03,1.71,1.05,2.19c0.04,1.71-1.12,2.83-2.46,4.12c-0.83,0.8-0.69,0.61-1.21,1.21
		c-1.35,1.57-1.81,3.06-3.49,5.51c-0.25,0.36-0.64,0.91-0.9,0.83C62.83,39.83,62.81,39.2,62.81,38.82z"/>
</g>
<g>
	<path fill="#6CAB85" d="M69.58,36.92c2.96-0.77,9.19-2.03,12.9,0.45c0.61,0.41,3.04,2.03,2.7,3c-0.04,0.13-0.16,0.33-0.59,0.5
		c-2,0.81-5.18-1.4-8.51-2.65C74.63,37.66,72.46,37.05,69.58,36.92z"/>
</g>
<path fill="#6CAB85" d="M48.91,45.73c4.17-0.69,8.48-0.86,12.65-0.08c1.25,0.23,2.48,0.58,3.7,0.92c1.75,0.49,3.52,0.96,5.29,1.37
	c2.53,0.6,5.09,1.11,7.66,1.54c0.48,0.08,0.68-0.65,0.2-0.73c-4.22-0.71-8.4-1.65-12.53-2.79c-1.24-0.35-2.48-0.71-3.75-0.96
	c-1.75-0.35-3.53-0.54-5.3-0.6c-2.72-0.08-5.44,0.16-8.12,0.6C48.23,45.07,48.43,45.81,48.91,45.73L48.91,45.73z"/>
<g>
	<path fill="#6CAB85" d="M78.07,48.56c2.08-0.06,3.6,0.25,4.77,0.65c0.95,0.32,1.92,0.66,2,1.31c0.05,0.39-0.23,0.84-0.59,1.05
		c-0.48,0.27-1.05,0.09-1.32,0c-1.14-0.37-3.86-1.36-7.44-2.74C76.16,48.7,77.04,48.59,78.07,48.56z"/>
</g>
<g>
	<path fill="#6CAB85" d="M66.71,46.16c3.23-1.52,5.89-1.8,7.57-1.8c0.39,0,4.36-0.02,4.59,1.06c0.08,0.37-0.32,0.75-0.47,0.89
		c-1.33,1.25-3.55,0.52-8.03,0.09C68.96,46.26,67.72,46.19,66.71,46.16z"/>
</g>
<g>
	<path fill="#6CAB85" d="M57.49,44.8c2.24,1.65,3.8,3.25,4.82,4.44c2.27,2.64,3.42,5,5.5,5.09c0.17,0.01,1.27,0.06,1.65-0.56
		c0.07-0.11,0.34-0.62-0.35-1.84c-1.15-2.03-3.27-3.06-4.46-3.64C61.78,46.89,59.44,45.75,57.49,44.8z"/>
</g>
<g>
	<path fill="#6CAB85" d="M46.33,46.94c0.64-1.22,3.08-5.81,5.43-8.65c0.37-0.45,1.09-1.28,2.25-1.55c1.07-0.25,2.52-0.03,2.82,0.69
		c0.29,0.7-0.52,1.73-2.27,3.36C52.83,42.42,50.17,44.65,46.33,46.94z"/>
</g>
<g>
	<path fill="#6CAB85" d="M36.49,49.14c4.56,0.88,7.97,0.46,10.27-0.09c2.74-0.66,5.26-1.87,6.79-0.61c0.68,0.56,1.15,1.58,0.85,2.28
		c-0.49,1.16-2.91,1.14-4.91,1.13c-2.18-0.02-3.94-0.33-5.79-0.74C41.87,50.7,39.4,50.09,36.49,49.14z"/>
</g>
<g>
	<path fill="#6CAB85" d="M29.01,51.36c1.99-2.07,3.9-3.49,5.33-4.41c0.68-0.44,3.23-2.06,5.95-2.13c1.06-0.03,1.48,0.19,1.64,0.48
		c0.3,0.55-0.31,1.38-0.35,1.43c-0.96,1.27-3.07,1.22-3.82,1.23C35.8,47.99,32.93,48.63,29.01,51.36z"/>
</g>
<g>
	<path fill="#6CAB85" d="M70.08,36.56c-0.11-0.59,7.2-2.59,15.12-3.08c7.49-0.46,10.38,0.74,11.94,2.64
		c0.23,0.28,1.27,1.54,0.87,2.25c-0.77,1.36-5.98-1.17-12.77-2.16C76.26,34.9,70.18,37.11,70.08,36.56z"/>
</g>
<path fill="#6CAB85" d="M91.61,26.47"/>
<path fill="#6CAB85" d="M73.24,35.67"/>
<path fill="#6CAB85" d="M64.86,41.12"/>
<path fill="#6CAB85" d="M77.18,32.55c4.36,0.25,8.75,0.05,13.05-0.7c1.96-0.34,3.88-0.81,5.79-1.35c1.92-0.54,3.82-1.02,5.81-1.24
	c1.5-0.16,2.99-0.22,4.49-0.09c1.45,0.13,2.89,0.35,4.33,0.49c2.75,0.26,5.54,0.4,8.3,0.45c3.88,0.06,7.76-0.24,11.61-0.76
	c0.64-0.09,1.28-0.18,1.92-0.27c0.48-0.07,0.28-0.81-0.2-0.73c-4.1,0.62-8.25,1.02-12.4,1.01c-2.62,0-5.26-0.15-7.88-0.34
	c-2.94-0.21-5.86-0.83-8.81-0.63c-2,0.13-3.97,0.46-5.91,0.98c-1.99,0.53-3.96,1.12-5.98,1.52c-4,0.8-8.08,1.11-12.15,1
	c-0.66-0.02-1.32-0.05-1.99-0.08C76.69,31.76,76.69,32.52,77.18,32.55z"/>
<g>
	<path fill="#6CAB85" d="M104.5,28.71c2.75,2.32,5.28,3.77,7.1,4.66c1.22,0.6,6.57,3.25,7.52,2.03c0.46-0.59-0.29-1.85-0.42-2.05
		c-0.49-0.79-1.33-1.45-4.35-2.26c-2.18-0.59-3.15-0.63-5.15-1.05C107.32,29.64,105.73,29.15,104.5,28.71z"/>
</g>
<path fill="#6CAB85" d="M114.22,29.88c4.31-1.48,8.68-2.78,13.05-4.05c3.97-1.16,7.98-2.27,12.07-2.89
	c3.48-0.53,7.04-0.65,10.52-0.09c2.37,0.38,4.61,1.18,6.89,1.88c4.07,1.25,8.22,2.27,12.38,3.2c0.38,0.09,0.77,0.17,1.15,0.25
	c0.48,0.1,0.68-0.63,0.2-0.73c-4.17-0.9-8.33-1.91-12.42-3.12c-2.28-0.67-4.53-1.54-6.86-2.01c-3.48-0.7-7.05-0.75-10.57-0.32
	c-4.01,0.49-7.94,1.49-11.82,2.59c-4.6,1.31-9.2,2.67-13.73,4.19c-0.36,0.12-0.72,0.24-1.07,0.37
	C113.55,29.31,113.75,30.04,114.22,29.88L114.22,29.88z"/>
<g>
	<path fill="#6CAB85" d="M180.56,28.03c0.19-0.14,0.73-0.56,0.98-1.27c0.08-0.23,0.21-0.61,0.04-0.95c-0.13-0.28-0.4-0.4-0.49-0.45
		c-1.55-0.75-5.45,0.54-5.45,0.54c-4.89,1.61-5.27,1.66-5.26,1.91c0.05,1.1,7.15,1,7.6,0.99C178.41,28.79,179.57,28.76,180.56,28.03
		z"/>
</g>
<g>
	<path fill="#6CAB85" d="M121.55,26.88c4.61-3.95,8.24-6.99,10.48-8.99c0,0,2.26-2.01,4.54-1.99c0.62,0.01,0.84,0.22,0.93,0.32
		c0.39,0.5-0.09,1.45-0.27,1.82C136.11,20.29,124.37,25.62,121.55,26.88z"/>
</g>
<g>
	<path fill="#6CAB85" d="M147.34,21.9c4.85-1.13,8.87-1.35,11.83-1.3c4.22,0.07,6.92,0.7,7.44-0.4c0.53-1.11-1.39-3.51-3.69-4.45
		c-2.45-1-4.84-0.14-7.33,0.8C153.64,17.28,150.51,18.77,147.34,21.9z"/>
</g>
<g>
	<path fill="#6CAB85" d="M149.15,22.7c4.84,4.79,7.78,7.64,11.74,8.42c1.4,0.28,3.75,0.45,4.06-0.3c0.13-0.33-0.16-0.73-0.28-0.88
		c-1.49-2.03-13.56-6.91-16.29-8C148.55,22.1,148.82,22.37,149.15,22.7z"/>
</g>
<g>
	<path fill="#6CAB85" d="M102.25,28.84c1.59-1.62,3.99-3.75,7.3-5.63c0.47-0.27,7.92-4.46,9.27-2.83c0.48,0.58,0.09,1.78-0.43,2.52
		c-1.44,2.06-4.52,1.43-8.32,2.24C108.07,25.57,105.33,26.52,102.25,28.84z"/>
</g>
<path fill="#6CAB85" d="M140.84,30.04c-0.55,0-1.13-0.01-1.71-0.02c-2.28-0.04-4.58-0.28-6.85-0.71l-1.97-0.37l1.84-0.78
	c2.08-0.88,4.21-1.65,6.33-2.29c2.12-0.63,3.49-0.92,4.46-0.92c0.77,0,1.33,0.17,1.84,0.55c0.89,0.67,1.58,1.98,1.18,2.99
	C145.46,29.78,143.63,30.04,140.84,30.04z"/>
<path fill="#6CAB85" d="M210.64,32.48c3.61,0.58,7.15,1.63,10.41,3.31c3.05,1.57,5.81,3.62,9.07,4.78c1.91,0.68,3.91,1.05,5.92,1.23
	c1.13,0.1,2.26,0.05,3.39,0.01c3.79-0.15,7.61-0.04,11.39,0.23c4.28,0.31,8.52,1.05,12.68,2.11c0.47,0.12,0.68-0.61,0.2-0.73
	c-3.84-0.98-7.74-1.68-11.68-2.04c-1.89-0.17-3.79-0.24-5.69-0.31c-1.92-0.07-3.83-0.12-5.74-0.07c-1.19,0.04-2.38,0.11-3.57,0.08
	c-1.77-0.05-3.57-0.34-5.27-0.81c-1.82-0.5-3.53-1.28-5.18-2.2c-1.49-0.83-2.93-1.77-4.43-2.59c-3.5-1.92-7.34-3.13-11.28-3.76
	C210.37,31.67,210.16,32.41,210.64,32.48L210.64,32.48z"/>
<path fill="#6CAB85" d="M235.79,41.41c2.95-2.07,5.59-3.3,7.47-4.04c1.27-0.5,6.83-2.68,7.67-1.38c0.41,0.63-0.45,1.82-0.6,2.01
	c-0.56,0.74-1.46,1.33-4.53,1.88c-2.22,0.4-3.19,0.35-5.22,0.61C238.68,40.73,237.06,41.08,235.79,41.41z"/>
<path fill="#6CAB85" d="M214.48,51.37c3.61-0.05,6.49,0.43,8.46,0.88c1.33,0.3,7.16,1.64,7.11,3.18c-0.02,0.75-1.41,1.24-1.64,1.32
	c-0.88,0.3-1.96,0.28-4.81-1c-2.06-0.92-2.83-1.5-4.64-2.44C217.25,52.44,215.71,51.82,214.48,51.37z"/>
<path fill="#6CAB85" d="M245.25,41.76c4.17,1.85,8.43,3.52,12.68,5.17c3.89,1.51,7.83,2.97,11.89,3.95
	c3.46,0.83,7.02,1.27,10.58,1.02c2.43-0.17,4.75-0.76,7.11-1.27c4.19-0.91,8.43-1.58,12.68-2.15c0.39-0.05,0.78-0.1,1.17-0.15
	c0.48-0.06,0.49-0.82,0-0.76c-4.22,0.54-8.43,1.18-12.6,2.03c-2.29,0.47-4.57,1.14-6.9,1.41c-3.49,0.41-7.01,0.17-10.45-0.55
	c-3.94-0.82-7.75-2.16-11.5-3.58c-4.44-1.68-8.87-3.42-13.23-5.31c-0.35-0.15-0.69-0.3-1.04-0.46
	C245.19,40.91,244.81,41.57,245.25,41.76L245.25,41.76z"/>
<path fill="#6CAB85" d="M311.52,48.59c0.18,0.16,0.67,0.62,0.86,1.35c0.06,0.24,0.16,0.62-0.04,0.95c-0.16,0.26-0.43,0.37-0.53,0.41
	c-1.61,0.62-5.38-1-5.38-1c-4.73-2.03-5.11-2.1-5.07-2.36c0.15-1.09,7.21-0.39,7.66-0.34C309.44,47.65,310.6,47.78,311.52,48.59z"/>
<path fill="#6CAB85" d="M252.63,44.69c4.25,4.33,7.61,7.67,9.67,9.85c0,0,2.08,2.2,4.36,2.37c0.62,0.05,0.86-0.14,0.95-0.24
	c0.43-0.47,0.04-1.46-0.11-1.84C266.56,52.5,255.33,46.19,252.63,44.69z"/>
<path fill="#6CAB85" d="M277.89,51.86c4.73,1.55,8.72,2.1,11.67,2.3c4.21,0.29,6.96-0.11,7.38,1.03c0.43,1.15-1.69,3.38-4.06,4.12
	c-2.53,0.78-4.83-0.28-7.23-1.42C283.77,57,280.77,55.24,277.89,51.86z"/>
<path fill="#6CAB85" d="M233.57,41.1c1.45,1.75,3.66,4.07,6.79,6.23c0.45,0.31,7.51,5.12,8.99,3.62c0.53-0.53,0.25-1.76-0.21-2.55
	c-1.26-2.18-4.38-1.81-8.1-2.94C239.08,44.85,236.43,43.67,233.57,41.1z"/>
<path fill="#6CAB85" d="M263.59,43.8c2.41,1.28,4.5,2.18,6.05,2.79c3.7,1.46,4.85,1.48,5.7,0.95c0.74-0.46,1.4-1.43,1.17-2.19
	c-0.38-1.28-3.21-1.48-6.14-1.68C268.6,43.56,266.3,43.52,263.59,43.8z"/>
<path fill="#6CAB85" d="M61.79,40.89c7.76-0.7,15.62-0.17,23.18,1.71c2.33,0.58,4.62,1.28,6.87,2.1c0.46,0.17,0.66-0.57,0.2-0.73
	c-7.83-2.85-16.15-4.23-24.48-4.13c-1.93,0.02-3.86,0.12-5.78,0.3C61.3,40.17,61.3,40.93,61.79,40.89L61.79,40.89z"/>
<path fill="#6CAB85" d="M75.3,40.73c6.21,3.48,12.75,6.24,19.45,8.63c3.48,1.24,7.02,2.3,10.7,2.81c2.83,0.39,5.7,0.51,8.55,0.35
	c4.13-0.23,8.22-1.02,12.16-2.28c0.46-0.15,0.27-0.88-0.2-0.73c-6.14,1.96-12.63,2.76-19.05,2.08c-3.66-0.39-7.21-1.33-10.68-2.52
	c-3.75-1.29-7.48-2.69-11.12-4.29c-3.21-1.42-6.36-2.98-9.42-4.7C75.25,39.83,74.87,40.49,75.3,40.73z"/>
<g>
	<path fill="#6CAB85" d="M124.86,50.09c4.74-2.03,8.41-2.71,10.59-2.98c1.77-0.21,3.73-0.3,5.28,0.91c0.26,0.21,1.37,1.06,1.17,1.71
		c-0.27,0.89-3.08,0.82-8.67,0.63C131.68,50.31,126.79,50.15,124.86,50.09z"/>
</g>
<path fill="#6CAB85" d="M107.38,52.41c3.81-2.82,7.63-5.65,11.72-8.06c2.08-1.23,4.23-2.34,6.48-3.21c2-0.78,4.05-1.39,6.14-1.87
	c1.9-0.44,3.82-0.75,5.75-1.04c0.48-0.07,0.28-0.8-0.2-0.73c-3.8,0.55-7.57,1.31-11.19,2.64c-4.49,1.65-8.59,4.16-12.52,6.86
	c-2.23,1.53-4.4,3.14-6.58,4.75C106.61,52.04,106.98,52.7,107.38,52.41L107.38,52.41z"/>
<g>
	<path fill="#6CAB85" d="M105.82,52c0.76-3.66,2.21-6.22,3.26-7.76c1.26-1.84,2.67-3.83,4.81-3.99c1.3-0.1,2.85,0.47,2.98,1.25
		c0.15,0.9-1.62,1.85-2.59,2.43C112.04,45.26,109.03,47.6,105.82,52z"/>
</g>
<path fill="#6CAB85" d="M127.08,40.8c4.23,1.63,8.46,3.27,12.7,4.89c2.1,0.8,4.26,1.4,6.41,2.07c1.82,0.57,3.63,1.17,5.44,1.78
	c0.46,0.16,0.66-0.58,0.2-0.73c-2.52-0.85-5.05-1.66-7.6-2.44c-1.24-0.38-2.47-0.74-3.68-1.19c-2.02-0.76-4.04-1.55-6.05-2.33
	c-2.4-0.93-4.81-1.85-7.21-2.78C126.83,39.89,126.63,40.63,127.08,40.8L127.08,40.8z"/>
<g>
	<path fill="#6CAB85" d="M145.42,47.41c0.75,1.85,2.22,4.68,5.13,6.87c2.82,2.13,6.59,3.35,7.04,2.66c0.53-0.81-3.45-4.21-3.92-4.6
		C150.68,49.8,147.68,48.3,145.42,47.41z"/>
</g>
<g>
	<path fill="#6CAB85" d="M117.14,51.8c4.12,1.99,7.54,2.49,9.98,2.56c3.7,0.1,7.05-0.76,8.75,1.21c0.15,0.17,1.1,1.27,0.76,2.3
		c-0.29,0.89-1.41,1.26-1.86,1.4c-1.12,0.37-2.12,0.17-2.5,0.09c-3.38-0.72-6.13-2.68-6.13-2.68
		C124.22,55.31,121.35,53.55,117.14,51.8z"/>
</g>
<g>
	<path fill="#6CAB85" d="M126.79,40.13c0.52-1.11,1.15-2.18,1.86-3.18c0.96-1.35,1.87-2.62,3.47-3.58c1.27-0.77,2.96-1.31,4.1-1.31
		c0.65,0,1.08,0.19,1.28,0.56c0.34,0.63-0.08,1.39-1.47,2.61c-1.24,1.09-2.41,1.53-3.35,1.89c-0.18,0.07-0.36,0.14-0.53,0.21
		c-1.59,0.65-3.05,1.81-4.34,3.44L126.79,40.13z"/>
</g>
<g>
	<path fill="#6CAB85" d="M132.73,38.73c4.09,1.21,6.65,2.59,8.31,3.71c0.4,0.27,2.33,1.61,4.74,1.59c1.25-0.01,1.48-0.38,1.54-0.5
		c0.31-0.63-0.69-1.68-1.07-2.07C143.88,38.94,135.9,38.73,132.73,38.73z"/>
</g>
<g>
	<path fill="#6CAB85" d="M115.08,46.44c-0.06-0.18,1.75-1.05,4.13-1.76c5.03-1.52,11.02-1.9,11.38-0.67
		c0.07,0.22-0.07,0.44-0.21,0.67c-0.4,0.65-1.32,1.1-3.63,1.15c-1.82,0.04-3.05-0.2-3.87-0.31
		C118.54,44.93,115.16,46.69,115.08,46.44z"/>
</g>
<g>
	<path fill="#6CAB85" d="M88.3,46.26c3.09,3.78,6.27,6.06,8.42,7.36c0,0,4.45,2.7,8.82,2.54c0.33-0.01,1.23-0.04,1.35-0.42
		c0.16-0.5-0.41-0.91-0.9-1.13c-2.13-0.95-3.98-1.73-6.06-2.26c0,0-1.27-0.33-3.71-1.16C94.2,50.51,91.41,49.16,88.3,46.26z"/>
</g>
<path fill="#6CAB85" d="M149.39,49.55c2.36-3.37,6.42-4.94,10.2-6.09c4.36-1.32,8.78-2.56,13.27-3.38c1.85-0.34,3.72-0.61,5.6-0.65
	c0.49-0.01,0.49-0.77,0-0.76c-3.82,0.07-7.63,0.97-11.32,1.9c-2.45,0.62-4.89,1.3-7.31,2.02c-1.99,0.59-3.97,1.26-5.83,2.2
	c-2.07,1.05-3.94,2.46-5.28,4.38C148.45,49.57,149.11,49.95,149.39,49.55L149.39,49.55z"/>
<g>
	<path fill="#6CAB85" d="M153.2,45.67c3.78-0.1,6.85,0.11,9.02,0.33c2.4,0.25,4.76,0.63,8.04,0.14c2.78-0.42,4.26-1.16,4.99-2.41
		c0.19-0.33,0.63-1.07,0.35-1.59c-0.64-1.21-4.59-0.31-7.65,0.38C164.55,43.28,159.58,44.37,153.2,45.67z"/>
</g>
<g>
	<path fill="#6CAB85" d="M157.9,43.6c2.52-2.61,4.81-4.61,6.53-6.02c0.44-0.36,2.5-2.37,5.34-3.61c0.48-0.21,1.5-0.62,2.81-0.51
		c0.18,0.02,2.24,0.21,2.43,1.05c0.07,0.32-0.04,1.01-3.23,2.93c-2.86,1.73-5.26,2.68-6.24,3.06
		C163.91,41.17,161.29,42.21,157.9,43.6z"/>
</g>
<g>
	<path fill="#6CAB85" d="M189.89,40.8c-1.18,0-2.81-0.11-5.12-0.35c-2.14-0.22-4.29-0.49-6.39-0.8l-2-0.3l1.83-0.86
		c2.12-0.99,4.35-1.84,6.61-2.52c2.43-0.73,4.72-1.42,6.33-1.42c1.05,0,1.81,0.28,2.33,0.86c0.95,1.07,0.93,3.07-0.04,4.29
		C192.8,40.5,191.84,40.8,189.89,40.8z"/>
</g>
<path fill="#6CAB85" d="M279.27,52.26c1.85-3.7,5.62-5.84,9.22-7.53c4.13-1.94,8.33-3.79,12.66-5.24c1.8-0.6,3.63-1.14,5.5-1.45
	c0.48-0.08,0.28-0.81-0.2-0.73c-3.76,0.62-7.38,2.05-10.89,3.49c-2.31,0.95-4.58,1.96-6.85,3c-1.91,0.88-3.81,1.83-5.53,3.05
	c-1.87,1.32-3.53,2.97-4.56,5.03C278.4,52.31,279.05,52.7,279.27,52.26L279.27,52.26z"/>
<g>
	<path fill="#6CAB85" d="M282.5,47.82c3.73-0.64,6.79-0.87,8.97-0.96c2.41-0.1,4.8-0.05,7.97-1.01c2.69-0.81,4.04-1.76,4.59-3.1
		c0.14-0.35,0.47-1.15,0.12-1.62c-0.81-1.11-4.58,0.35-7.52,1.47C293.39,43.84,288.63,45.62,282.5,47.82z"/>
</g>
<g>
	<path fill="#6CAB85" d="M286.85,45.11c2.12-2.95,4.09-5.25,5.6-6.89c0.39-0.42,2.13-2.7,4.77-4.33c0.44-0.27,1.4-0.83,2.71-0.91
		c0.18-0.01,2.24-0.11,2.56,0.7c0.12,0.3,0.1,1-2.77,3.36c-2.58,2.12-4.82,3.4-5.73,3.92C292.45,41.84,290.01,43.25,286.85,45.11z"
		/>
</g>
<g>
	<path fill="#6CAB85" d="M305.64,37.67c1.39-0.91,3.45-2.17,6.1-3.4c3.81-1.78,6.51-3,7.84-1.88c0.88,0.74,1.07,2.41,0.45,3.47
		c-0.57,0.98-1.83,1.42-7.97,1.68C309.41,37.65,307.21,37.67,305.64,37.67z"/>
</g>
<path fill="#6CAB85" d="M137.38,37.87c2.45-0.7,4.36-1.48,5.65-2.07c2.78-1.26,4.01-2.22,6.48-2.45c1.96-0.18,3.14,0.25,3.84,0.61
	c0.2,0.11,2.37,1.26,2.19,2.33c-0.28,1.59-5.64,1.9-6.22,1.92c-2.04,0.1-2.95-0.16-5.51-0.34
	C141.31,37.71,139.12,37.76,137.38,37.87z"/>
<path fill="#6CAB85" d="M150.2,48.56c2.36,0.44,4.28,0.4,5.66,0.27c2.77-0.27,4.25-1.04,5.46-0.14c0.9,0.68,1.37,2.08,0.91,2.87
	c-0.53,0.92-2.19,0.82-3.39,0.75c-1.17-0.07-2.22-0.35-3.55-0.89C153.99,50.9,152.19,50.03,150.2,48.56z"/>
<path fill="#6CAB85" stroke="#245650" stroke-width="4" stroke-miterlimit="10" d="M153.34,44.49"/>
<path fill="#6CAB85" d="M99.96,46.72c-0.29,0-0.58-0.01-0.88-0.01c-2.31-0.05-4.17-0.74-4.53-0.86c-1.01-0.32-1.93-0.78-3.78-1.68
	c-0.5-0.25-1.57-0.78-1.52-0.91c0.04-0.09,0.56,0.08,1.51,0.17c0.48,0.04,0.82,0.04,1.31,0.04c2.72-0.02,4.97-0.6,4.97-0.6
	c0.77-0.2,1.46-0.42,2.07-0.62c0.96-0.32,1.72-0.56,2.4-0.56c0.5,0,0.91,0.14,1.26,0.42c0.93,0.76,1.12,2.42,0.41,3.49
	C102.52,46.58,101.24,46.72,99.96,46.72z"/>
<path fill="#6CAB85" d="M0.58,57.48c7.05-3.21,13.59-7.53,19.21-12.85c1.8-1.71,3.51-3.51,5.12-5.41c0.31-0.37-0.22-0.91-0.54-0.54
	c-5.36,6.32-11.85,11.6-19.1,15.6c-1.66,0.91-3.35,1.76-5.07,2.55C-0.25,57.03,0.13,57.69,0.58,57.48L0.58,57.48z"/>
<path fill="#6CAB85" d="M13.56,49.82c3.74-6.25,8.16-12.02,12.94-17.51c2.27-2.61,4.69-5.1,7.45-7.2c2.21-1.68,4.58-3.14,7.07-4.37
	c3.62-1.79,7.48-3.08,11.44-3.91c0.48-0.1,0.28-0.83-0.2-0.73c-6.28,1.32-12.33,3.82-17.58,7.54c-2.9,2.06-5.47,4.49-7.84,7.13
	c-2.63,2.94-5.15,5.99-7.52,9.14c-2.31,3.06-4.45,6.24-6.42,9.53C12.66,49.85,13.31,50.24,13.56,49.82L13.56,49.82z"/>
<g>
	<path fill="#6CAB85" d="M51.23,16.85c5.13-0.58,8.66-1.8,10.68-2.65c1.64-0.69,3.39-1.59,4.13-3.39c0.13-0.31,0.65-1.6,0.15-2.06
		c-0.68-0.64-3.08,0.8-7.84,3.72C57.02,13.29,52.87,15.84,51.23,16.85z"/>
</g>
<g>
	<path fill="#6CAB85" d="M33.74,24.59c2.49,2.8,5.03,4.31,6.72,5.13c2.02,0.97,4.23,2,6.17,1.09c1.18-0.55,2.23-1.81,1.96-2.56
		c-0.32-0.86-2.33-0.81-3.47-0.83C42.52,27.37,38.73,26.82,33.74,24.59z"/>
</g>
<g>
	<path fill="#6CAB85" d="M43.42,19c0.41-0.6,0.85-1.18,1.29-1.74c1.65-2.32,3.02-4.64,4.06-6.9c0.06-0.13,1.47-3.14,4.05-5.45
		c0.71-0.64,1.51-1.05,2.36-1.22c0.22-0.04,0.62-0.13,1.06-0.13c0.63,0,1.14,0.17,1.51,0.5c0.84,0.76,0.69,2.11,0.59,2.65
		c-0.39,2.03-2.38,3.06-4.69,4.24c-0.8,0.41-1.62,0.83-2.43,1.33c-2.22,1.34-4.25,3.14-6.02,5.34c-0.41,0.57-0.84,1.15-1.28,1.73
		L43.42,19z"/>
</g>
<g>
	<path fill="#6CAB85" d="M21.41,38.21c0.79-4.81,2.4-8.35,3.62-10.55c0,0,2.51-4.53,6.38-6.56c0.29-0.15,1.09-0.57,1.39-0.3
		c0.39,0.36,0.1,0.99-0.21,1.42c-1.37,1.88-2.58,3.46-4.13,4.96c0,0-0.94,0.91-2.64,2.83C24.41,31.62,22.66,34.16,21.41,38.21z"/>
</g>
<path fill="#6CAB85" d="M22.67,40.8c2.67-1.73,5.02-2.59,6.74-3.06c3.01-0.83,5.15-0.75,5.64-2.05c0.37-0.96-0.29-2.34-1.25-2.82
	c-1.13-0.57-2.53,0.27-4.03,1.17c-0.8,0.48-1.72,1.14-3.87,3.3C25.08,38.18,23.95,39.34,22.67,40.8z"/>
<path fill="#6CAB85" d="M162.47,25.17c7.62-1.42,15.47-1.64,23.14-0.49c2.37,0.36,4.72,0.84,7.04,1.44c0.47,0.12,0.68-0.61,0.2-0.73
	c-8.09-2.1-16.52-2.69-24.82-1.8c-1.93,0.21-3.86,0.49-5.77,0.85C161.79,24.52,161.99,25.26,162.47,25.17L162.47,25.17z"/>
<path fill="#6CAB85" d="M177.05,23.91c6.53,2.88,13.3,5.02,20.22,6.76c3.6,0.91,7.25,1.63,10.97,1.79c2.86,0.12,5.73-0.05,8.56-0.48
	c4.09-0.62,8.07-1.81,11.87-3.44c0.45-0.19,0.06-0.85-0.38-0.66c-5.93,2.54-12.35,3.93-18.81,3.84c-3.66-0.05-7.26-0.65-10.82-1.51
	c-3.85-0.93-7.68-1.97-11.44-3.22c-3.32-1.1-6.58-2.35-9.78-3.76C176.99,23.06,176.6,23.71,177.05,23.91L177.05,23.91z"/>
<g>
	<path fill="#6CAB85" d="M227.32,28.55c4.53-2.47,8.11-3.5,10.26-3.97c1.74-0.38,3.69-0.65,5.34,0.4c0.28,0.18,1.46,0.93,1.33,1.6
		c-0.19,0.91-2.98,1.11-8.57,1.45C234.13,28.13,229.25,28.44,227.32,28.55z"/>
</g>
<path fill="#6CAB85" d="M210.19,32.48c3.5-3.15,7.02-6.31,10.84-9.08c1.94-1.41,3.95-2.7,6.09-3.78c1.92-0.97,3.92-1.79,5.97-2.47
	c1.85-0.61,3.73-1.11,5.63-1.57c0.48-0.12,0.27-0.85-0.2-0.73c-3.77,0.92-7.47,2.04-10.97,3.72c-4.31,2.06-8.15,4.97-11.79,8.03
	c-2.07,1.74-4.08,3.55-6.09,5.36C209.28,32.27,209.82,32.81,210.19,32.48L210.19,32.48z"/>
<g>
	<path fill="#6CAB85" d="M208.55,32.26c0.4-3.72,1.6-6.4,2.5-8.04c1.08-1.95,2.29-4.06,4.41-4.43c1.28-0.22,2.88,0.2,3.08,0.97
		c0.24,0.88-1.43,2-2.35,2.67C214.1,24.96,211.32,27.57,208.55,32.26z"/>
</g>
<path fill="#6CAB85" d="M228.61,19.09c4.37,1.22,8.74,2.46,13.11,3.67c2.17,0.6,4.38,0.99,6.57,1.45c1.87,0.39,3.73,0.82,5.58,1.25
	c0.48,0.11,0.68-0.62,0.2-0.73c-2.59-0.61-5.19-1.18-7.79-1.71c-1.27-0.26-2.53-0.5-3.78-0.84c-2.09-0.56-4.17-1.16-6.25-1.75
	c-2.48-0.69-4.96-1.39-7.44-2.08C228.34,18.23,228.13,18.96,228.61,19.09L228.61,19.09z"/>
<g>
	<path fill="#6CAB85" d="M247.53,23.94c0.92,1.77,2.66,4.45,5.76,6.35c3.02,1.85,6.88,2.72,7.26,1.98c0.45-0.85-3.84-3.86-4.34-4.21
		C252.99,25.82,249.86,24.62,247.53,23.94z"/>
</g>
<g>
	<path fill="#6CAB85" d="M219.5,31.08c0.1-0.4,4.4,1.91,10.42,1.16c0,0,7.46-0.92,8.84,0.49c0.16,0.17,1.23,1.25,1,2.36
		c-0.2,0.97-1.27,1.46-1.7,1.66c-1.06,0.48-2.07,0.38-2.48,0.33c-3.16-0.41-6.39-2.28-6.39-2.28
		C223.92,31.72,219.41,31.47,219.5,31.08z"/>
</g>
<g>
	<path fill="#6CAB85" d="M209.44,47.23c1.23,4.38,3.12,7.26,4.69,9.12c2.38,2.82,5.25,4.74,4.89,7.31
		c-0.03,0.22-0.23,1.66-1.23,2.09c-0.87,0.37-1.89-0.22-2.29-0.45c-1.02-0.59-1.54-1.46-1.73-1.8c-1.69-2.99-2.04-6.33-2.04-6.34
		C211.48,54.82,210.91,51.52,209.44,47.23z"/>
</g>
<g>
	<path fill="#6CAB85" d="M227.93,18.31c0.41-1.14,0.92-2.25,1.53-3.29c0.81-1.4,1.58-2.73,3.03-3.8c1.44-1.07,3.16-1.65,4.05-1.65
		c0.39,0,0.66,0.11,0.8,0.31c0.3,0.44-0.07,1.17-1.18,2.36c-1.09,1.16-2.18,1.7-3.06,2.13c-0.18,0.09-0.35,0.17-0.51,0.26
		c-1.57,0.83-2.95,2.15-4.1,3.94L227.93,18.31z"/>
</g>
<g>
	<path fill="#6CAB85" d="M234.07,16.5c4.18,0.81,6.87,1.94,8.63,2.91c0.42,0.23,2.48,1.38,4.87,1.13c1.24-0.13,1.44-0.52,1.49-0.64
		c0.25-0.65-0.85-1.61-1.26-1.96C245.18,15.66,237.22,16.21,234.07,16.5z"/>
</g>
<g>
	<path fill="#6CAB85" d="M217.24,25.85c-0.07-0.18,1.64-1.21,3.95-2.15c4.87-1.99,10.79-2.94,11.27-1.74
		c0.09,0.22-0.03,0.44-0.15,0.69c-0.34,0.69-1.21,1.22-3.5,1.49c-1.81,0.21-3.06,0.09-3.88,0.06
		C220.53,24.02,217.34,26.09,217.24,25.85z"/>
</g>
<g>
	<path fill="#6CAB85" d="M190.56,28.21c3.44,3.47,6.82,5.44,9.09,6.53c0,0,4.69,2.26,9.02,1.69c0.32-0.04,1.22-0.16,1.31-0.55
		c0.11-0.51-0.5-0.87-1-1.04c-2.22-0.75-4.12-1.35-6.25-1.68c0,0-1.3-0.2-3.8-0.8C196.84,31.87,193.93,30.8,190.56,28.21z"/>
</g>
<path fill="#6CAB85" d="M251.67,25.73c2.02-3.58,5.89-5.55,9.55-7.05c4.21-1.73,8.5-3.38,12.88-4.62c1.81-0.51,3.65-0.97,5.51-1.18
	c0.48-0.06,0.49-0.82,0-0.76c-3.8,0.44-7.5,1.67-11.08,2.95c-2.38,0.85-4.74,1.76-7.08,2.71c-1.92,0.78-3.84,1.62-5.59,2.74
	c-1.95,1.24-3.7,2.81-4.85,4.84C250.77,25.77,251.43,26.16,251.67,25.73L251.67,25.73z"/>
<path fill="#6CAB85" d="M255.11,21.47c3.75-0.46,6.83-0.54,9.01-0.52c2.42,0.02,4.79,0.18,8.01-0.62c2.73-0.68,4.12-1.56,4.74-2.87
	c0.16-0.35,0.52-1.12,0.2-1.62c-0.75-1.14-4.6,0.13-7.58,1.1C266.17,18.02,261.33,19.57,255.11,21.47z"/>
<path fill="#6CAB85" d="M259.58,18.97c2.26-2.84,4.35-5.04,5.93-6.61c0.41-0.4,2.26-2.6,4.97-4.09c0.46-0.25,1.44-0.76,2.75-0.77
	c0.18,0,2.25,0,2.52,0.82c0.1,0.31,0.05,1.01-2.93,3.22c-2.68,1.99-4.98,3.16-5.91,3.64C265.33,15.98,262.83,17.27,259.58,18.97z"/>
<path fill="#6CAB85" d="M277.72,12.79c1.62-0.87,4.03-2.07,7.09-3.23c4.41-1.67,7.52-2.81,8.93-1.65c0.93,0.77,1.02,2.45,0.24,3.5
	c-0.72,0.97-2.16,1.37-9.06,1.45C281.95,12.89,279.48,12.84,277.72,12.79z"/>
<path fill="#6CAB85" d="M238.5,14.93c1.88-0.73,3.7-1.6,5.39-2.58c0.67-0.39,1.25-0.75,1.77-1.07c1.55-0.97,2.68-1.67,4.55-2.02
	c0.6-0.11,1.17-0.17,1.71-0.17c0.86,0,1.62,0.14,2.34,0.43c0.63,0.26,2.68,1.19,2.59,2.41c-0.13,1.7-4.42,2.51-6.27,2.78
	c-1.03,0.15-1.77,0.18-2.64,0.18c-0.22,0-0.45,0-0.7,0c-0.27,0-0.56,0-0.87,0c-0.4,0-0.84,0-1.34,0.02
	c-2.12,0.06-4.26,0.26-6.36,0.6L238.5,14.93z"/>
<path fill="#6CAB85" d="M317.7,42.4c3.5-3.15,7.02-6.31,10.84-9.08c1.94-1.41,3.95-2.7,6.09-3.78c1.92-0.97,3.92-1.79,5.97-2.47
	c1.85-0.61,3.73-1.11,5.63-1.57c0.48-0.12,0.27-0.85-0.2-0.73c-3.77,0.92-7.47,2.04-10.97,3.72c-4.31,2.06-8.15,4.97-11.79,8.03
	c-2.07,1.74-4.08,3.55-6.09,5.36C316.8,42.19,317.34,42.72,317.7,42.4L317.7,42.4z"/>
<g>
	<path fill="#6CAB85" d="M335.73,28.33c-0.23-0.16,0.79-2.07,1.5-3.24c1.03-1.69,1.68-2.77,2.95-3.71c1.73-1.28,4.07-1.92,4.41-1.41
		c0.29,0.44-0.87,1.68-1.15,1.98c-1.22,1.31-2.27,1.6-3.49,2.33C337.06,26.01,335.99,28.51,335.73,28.33z"/>
</g>
<g>
	<path fill="#6CAB85" d="M341.58,26.41c4.18,0.81,6.87,1.94,8.63,2.91c0.42,0.23,2.48,1.38,4.87,1.13c1.24-0.13,1.44-0.52,1.49-0.64
		c0.25-0.65-0.85-1.61-1.26-1.96C352.7,25.57,344.74,26.12,341.58,26.41z"/>
</g>
<g>
	<path fill="#6CAB85" d="M324.75,35.76c-0.07-0.18,1.64-1.21,3.95-2.15c4.87-1.99,10.79-2.94,11.27-1.74
		c0.09,0.22-0.03,0.44-0.15,0.69c-0.34,0.69-1.21,1.22-3.5,1.49c-1.81,0.21-3.06,0.09-3.88,0.06
		C328.05,33.93,324.85,36,324.75,35.76z"/>
</g>
<path fill="#6CAB85" d="M346.12,25.12c2.37-0.93,4.2-1.89,5.43-2.6c2.64-1.52,3.78-2.59,6.22-3.05c1.94-0.36,3.15-0.05,3.88,0.25
	c0.21,0.09,2.48,1.03,2.4,2.11c-0.12,1.61-5.43,2.42-6.01,2.5c-2.02,0.3-2.95,0.12-5.52,0.19
	C350.01,24.59,347.85,24.85,346.12,25.12z"/>
<path fill="#6CAB85" d="M253.98,25.1c2.4,0.22,4.3,0,5.66-0.27c2.73-0.54,4.13-1.44,5.42-0.65c0.97,0.59,1.56,1.94,1.18,2.77
	c-0.44,0.97-2.11,1.02-3.31,1.07c-1.17,0.04-2.25-0.14-3.62-0.55C257.97,27.07,256.09,26.37,253.98,25.1z"/>
<path fill="#6CAB85" stroke="#245650" stroke-width="4" stroke-miterlimit="10" d="M255.14,20.29"/>
<path fill="#6CAB85" d="M200.63,27.05c-0.84,0-1.94-0.11-3.89-0.45c-1.37-0.24-2.76-0.53-4.12-0.86l-4.31-1.04l4.43-0.16
	c2.19-0.08,4.28-0.47,6.2-1.16c0.75-0.27,1.41-0.56,2-0.81c1.47-0.64,2.64-1.15,3.63-0.49c0.99,0.67,1.35,2.3,0.74,3.44
	c-0.68,1.27-2.35,1.39-3.97,1.51C201.12,27.04,200.89,27.05,200.63,27.05z"/>
<path fill="#6CAB85" d="M90.84,24.24c0.49-1.61,1.53-3.87,3.73-5.51c0.79-0.59,2.26-1.68,3.81-1.68c0.42,0,0.82,0.08,1.19,0.24
	c0.8,0.34,1.95,1.28,1.86,2.48c-0.08,1.06-1,1.79-6.05,3.8c-1.25,0.5-2.51,0.97-3.76,1.42l-1.14,0.41L90.84,24.24z"/>
<path fill="#6CAB85" d="M160.09,25.67c6.88-0.74,13.63-2.49,19.94-5.35c1.98-0.9,3.91-1.9,5.78-3c0.42-0.25,0.04-0.91-0.38-0.66
	c-6.2,3.65-13.02,6.15-20.08,7.47c-1.74,0.33-3.49,0.58-5.25,0.77C159.61,24.96,159.6,25.73,160.09,25.67L160.09,25.67z"/>
<g>
	<path fill="#6CAB85" d="M176.91,21.19c1.53-1.95,2.24-3.68,2.6-4.91c0.37-1.24,0.74-2.59,1.87-3.89c0.43-0.49,1.07-0.94,1.7-0.73
		c0.51,0.17,0.72,0.79,0.77,0.96c0.5,1.49-0.77,3.21-1.51,4.19C181.48,17.94,179.83,19.75,176.91,21.19z"/>
</g>
<g>
	<path fill="#6CAB85" d="M174.31,22.26c5.3-0.63,8.94-2.02,11.34-3.21c1.45-0.72,3.52-1.91,4.68-1.09c0.74,0.52,1,1.77,0.59,2.61
		c-0.63,1.26-2.71,1.37-4.58,1.44C183.2,22.12,179.14,22.23,174.31,22.26z"/>
</g>
<path fill="#6CAB85" d="M190.05,16.78c0.61-1.57,1.82-3.75,4.13-5.22c0.77-0.49,2.21-1.4,3.67-1.4c0.51,0,0.99,0.11,1.42,0.33
	c0.77,0.4,1.85,1.42,1.67,2.61c-0.16,1.05-1.14,1.71-6.32,3.34c-1.27,0.4-2.57,0.79-3.85,1.14l-1.17,0.32L190.05,16.78z"/>
<path fill="#6CAB85" d="M247.53,42.07c5.3-3.79,10.89-7.2,16.84-9.87c4.39-1.97,8.99-3.53,13.71-4.46c3.39-0.67,6.79-0.9,10.24-0.95
	c4.53-0.06,9.04-0.33,13.53-1.01c6.6-1.01,13.05-2.87,19.16-5.56c0.58-0.25,1.15-0.52,1.72-0.78c0.44-0.21,0.06-0.86-0.38-0.66
	c-5.98,2.82-12.33,4.81-18.83,5.96c-4.71,0.84-9.48,1.2-14.26,1.28c-1.51,0.03-3.03,0.02-4.54,0.11c-1.86,0.11-3.71,0.33-5.55,0.64
	c-4.6,0.78-9.07,2.18-13.37,3.98c-5.8,2.43-11.27,5.57-16.46,9.12c-0.74,0.51-1.47,1.02-2.2,1.54
	C246.75,41.7,247.13,42.36,247.53,42.07L247.53,42.07z"/>
<g>
	<path fill="#6CAB85" d="M313.5,22.53c1.7-1.81,2.55-3.47,3.02-4.67s0.96-2.51,2.2-3.71c0.47-0.45,1.15-0.84,1.75-0.58
		c0.49,0.21,0.65,0.85,0.69,1.02c0.36,1.53-1.05,3.13-1.88,4.04C318.33,19.7,316.53,21.35,313.5,22.53z"/>
</g>
<g>
	<path fill="#6CAB85" d="M310.82,23.38c5.33-0.17,9.08-1.24,11.57-2.22c1.5-0.59,3.67-1.6,4.75-0.68c0.69,0.58,0.84,1.85,0.36,2.65
		c-0.73,1.21-2.82,1.13-4.68,1.04C319.69,24.01,315.64,23.77,310.82,23.38z"/>
</g>
<g>
	<path fill="#6CAB85" d="M396.74,12.38c5.29-0.67,8.93-2.08,11.31-3.29c1.44-0.73,3.5-1.93,4.67-1.12c0.74,0.51,1.01,1.77,0.61,2.6
		c-0.62,1.27-2.7,1.39-4.57,1.47C405.63,12.18,401.57,12.32,396.74,12.38z"/>
</g>
<g>
	<path fill="#6CAB85" d="M297.05,25.84c1.56-2.5,3.22-4.06,4.48-5.04c2.01-1.56,4-2.41,4.26-4.28c0.03-0.23,0.15-1.27-0.47-1.78
		c-0.8-0.67-2.31,0.04-2.62,0.18c-1.47,0.68-2.28,1.96-3.03,3.44C298.84,19.99,297.77,22.49,297.05,25.84z"/>
</g>
<g>
	<path fill="#6CAB85" d="M286.26,26.16c3.04-0.29,9.4-0.54,12.66,2.51c0.54,0.5,2.67,2.49,2.18,3.39c-0.06,0.12-0.21,0.3-0.66,0.4
		c-2.1,0.49-4.89-2.21-7.97-3.98C291.12,27.7,289.08,26.74,286.26,26.16z"/>
</g>
<g>
	<path fill="#6CAB85" d="M272.44,28.45c0.83-1.1,3.98-5.24,6.76-7.67c0.44-0.39,1.28-1.09,2.47-1.17c1.1-0.07,2.49,0.38,2.68,1.13
		c0.18,0.73-0.79,1.62-2.78,2.96C279.59,25.02,276.6,26.79,272.44,28.45z"/>
</g>
<g>
	<path fill="#6CAB85" d="M265.55,30.94c4.36,1.59,7.79,1.73,10.15,1.54c2.81-0.22,5.5-1,6.8,0.48c0.58,0.66,0.87,1.74,0.47,2.39
		c-0.67,1.07-3.06,0.66-5.03,0.33c-2.15-0.36-3.83-0.95-5.59-1.65C270.6,33.35,268.27,32.34,265.55,30.94z"/>
</g>
<g>
	<path fill="#6CAB85" d="M343.82,43.32c4.24-1.87,6.8-4.15,8.36-5.91c1.86-2.1,3.24-4.52,5.21-4.36c0.88,0.07,1.85,0.65,2.01,1.39
		c0.27,1.23-1.73,2.59-3.37,3.72c-1.8,1.23-3.42,1.97-5.17,2.68C349.13,41.54,346.75,42.44,343.82,43.32z"/>
</g>
<g>
	<path fill="#6CAB85" d="M249.83,41.05c2.36,1.65,4.51,2.67,6.09,3.3c0.75,0.3,3.57,1.4,6.25,0.94c1.04-0.18,1.42-0.47,1.52-0.79
		c0.19-0.59-0.57-1.29-0.63-1.34c-1.19-1.06-3.24-0.6-3.98-0.47C257.15,43.06,254.21,42.98,249.83,41.05z"/>
</g>
<path fill="#6CAB85" d="M321.63,19.72c0.61-1.24,1.89-3.31,4.3-4.57c1.03-0.54,3.07-1.59,4.56-0.65c0.65,0.41,1.36,1.3,1.17,2.09
	c-0.15,0.62-0.85,1.16-6.12,2.33C323.92,19.28,322.57,19.55,321.63,19.72z"/>
<path fill="#6CAB85" d="M72.93,35.08c1.6-4.66,2.87-9.44,3.77-14.29c0.24-1.28,0.45-2.57,0.64-3.85c0.07-0.49-0.66-0.71-0.73-0.21
	c-0.71,4.79-1.75,9.52-3.13,14.15c-0.4,1.34-0.83,2.67-1.28,3.99C72.03,35.34,72.76,35.55,72.93,35.08L72.93,35.08z"/>
<path fill="#6CAB85" d="M74.18,29.44c-0.24,0.02,0.05-2.37-1.4-5.19c-0.77-1.5-1.65-2.38-2.11-4.42c-0.37-1.68-0.01-2.07,0.12-2.19
	c0.54-0.46,1.76-0.16,2.48,0.49c0.94,0.85,0.89,2.11,0.89,4.75C74.18,27.54,74.39,29.42,74.18,29.44z"/>
<path fill="#6CAB85" d="M74.18,29.44c2.87-1.47,4.81-3.16,6-4.37c1.67-1.69,3.3-3.39,2.9-5.19c-0.15-0.7-0.68-1.65-1.34-1.69
	c-1.23-0.07-1.61,3.4-4.14,7.26C76.4,27.27,75.12,28.59,74.18,29.44z"/>
<path fill="#6CAB85" d="M72.55,13.55"/>
<path fill="#6CAB85" d="M76.49,19.18c0.03-1.67-0.1-3-0.21-3.9c-0.27-2.16-0.62-2.93-0.28-4.22c0.1-0.38,0.63-2.37,2.04-2.65
	c1.4-0.28,3.06,1.26,3.14,2.64c0.07,1.13-0.95,1.72-2.23,3.4C77.71,16.07,76.96,17.73,76.49,19.18z"/>
<path fill="#6CAB85" d="M190.23,28.4c3.54,4.61,7.4,8.97,11.58,13c4.14,3.98,8.62,7.62,13.15,11.15c2.42,1.88,4.87,3.71,7.37,5.49
	c0.4,0.28,0.78-0.37,0.38-0.66c-4.52-3.22-8.91-6.62-13.19-10.15c-4.17-3.45-8.14-7.11-11.81-11.08c-2.4-2.6-4.68-5.31-6.84-8.12
	C190.59,27.63,189.93,28.01,190.23,28.4L190.23,28.4z"/>
<g>
	<path fill="#6CAB85" d="M199.69,38.71c0.14-0.2,1.8,1.56,4.92,2.25c1.65,0.37,2.9,0.26,4.78,1.22c1.54,0.79,1.61,1.32,1.61,1.49
		c0.01,0.71-1,1.45-1.96,1.58c-1.26,0.17-2.2-0.67-4.25-2.35C201.16,39.93,199.56,38.89,199.69,38.71z"/>
</g>
<g>
	<path fill="#6CAB85" d="M198.37,36.9c-0.69,3.14-0.63,5.69-0.45,7.37c0.24,2.36,0.52,4.69,2.17,5.54c0.64,0.33,1.72,0.54,2.17,0.06
		c0.84-0.89-1.61-3.4-2.98-7.81C198.63,39.98,198.43,38.16,198.37,36.9z"/>
</g>
<path fill="#6CAB85" d="M226.18,66.19c-0.7,0-1.34-0.19-1.8-0.52c-0.73-0.54-0.85-1.32-1.02-2.41c-0.12-0.81-0.17-0.98-0.3-1.65
	c-0.19-0.96-0.62-3.07-2.05-4.8c-0.47-0.56-0.96-0.99-0.89-1.08c0.09-0.12,1.03,0.48,1.35,0.68c1.47,0.94,1.72,1.42,3.12,2.31
	c0.5,0.32,1.21,0.74,1.36,0.82c0.95,0.55,1.58,0.92,2.18,1.74c1,1.39,1.27,2.66,0.77,3.57C228.44,65.67,227.38,66.19,226.18,66.19z"
	/>
<path fill="#6CAB85" d="M374.46,33.68c3.52-5.73,7.86-11.03,13.18-15.19c3.98-3.1,8.56-5.39,13.12-7.51
	c3.73-1.74,7.57-3.26,11.47-4.56c0.46-0.15,0.26-0.89-0.2-0.73c-6.14,2.05-12.1,4.65-17.8,7.71c-2.23,1.2-4.4,2.5-6.43,4.03
	c-2.21,1.66-4.27,3.53-6.17,5.54c-2.97,3.15-5.56,6.64-7.82,10.33C373.54,33.72,374.2,34.1,374.46,33.68L374.46,33.68z"/>
<g>
	<path fill="#6CAB85" d="M383.06,22.08c0.08,0.23,2.15-1.03,5.34-0.88c1.69,0.08,2.86,0.52,4.93,0.08c1.7-0.35,1.91-0.84,1.96-1.01
		c0.2-0.68-0.58-1.66-1.47-2.04c-1.16-0.5-2.3,0.07-4.72,1.15C384.8,21.29,382.98,21.87,383.06,22.08z"/>
</g>
<g>
	<path fill="#6CAB85" d="M378.46,26.5c0.17-3.21,0.92-5.65,1.53-7.23c0.86-2.21,1.75-4.38,3.57-4.77c0.71-0.15,1.8-0.07,2.1,0.52
		c0.57,1.08-2.46,2.86-4.96,6.74C379.53,23.6,378.85,25.3,378.46,26.5z"/>
</g>
<path fill="#6CAB85" d="M404.8,8.78c1.52-0.71,2.8-1.15,3.66-1.42c2.09-0.65,2.95-0.64,3.99-1.49c0.31-0.25,1.92-1.55,1.59-2.94
	c-0.32-1.38-2.41-2.25-3.72-1.75c-1.07,0.41-1.19,1.56-2.2,3.42C407.15,6.39,405.94,7.75,404.8,8.78z"/>
<path fill="#6CAB85" d="M364.88,59.76c1.45,0.84,2.69,1.38,3.53,1.72c2.03,0.82,2.88,0.89,3.85,1.82c0.28,0.27,1.78,1.7,1.33,3.06
	c-0.44,1.35-2.6,2.03-3.85,1.43c-1.03-0.49-1.05-1.66-1.9-3.6C367.02,62.33,365.93,60.87,364.88,59.76z"/>
<path fill="#6CAB85" d="M17.72,54.11c4.44,3.19,9.18,5.94,14.15,8.22c0.44,0.2,0.83-0.45,0.38-0.66c-4.97-2.28-9.71-5.04-14.15-8.22
	C17.7,53.16,17.32,53.82,17.72,54.11L17.72,54.11z"/>
<g>
	<path fill="#6CAB85" d="M21.83,56.43c0.04-0.22,2.04,0.63,4.85,0.06c1.49-0.31,2.47-0.86,4.36-0.76c1.55,0.09,1.8,0.5,1.86,0.65
		c0.26,0.59-0.3,1.58-1.04,2.05c-0.97,0.61-2.05,0.26-4.33-0.39C23.47,56.9,21.79,56.62,21.83,56.43z"/>
</g>
<g>
	<path fill="#6CAB85" d="M21.83,56.43c0.56,2.88,1.53,4.99,2.28,6.34c1.05,1.88,2.11,3.73,3.77,3.83c0.65,0.04,1.6-0.19,1.8-0.76
		c0.37-1.06-2.54-2.25-5.25-5.42C23.14,58.91,22.33,57.46,21.83,56.43z"/>
</g>
<path fill="#6CAB85" d="M35.99,58.93"/>
<path fill="#6CAB85" d="M30.2,61.25c1.44,0.43,2.63,0.66,3.43,0.78c1.94,0.3,2.7,0.18,3.73,0.8c0.3,0.18,1.89,1.14,1.78,2.44
	c-0.11,1.29-1.85,2.37-3.07,2.1c-1-0.22-1.25-1.25-2.39-2.8C32.59,63.09,31.34,62.03,30.2,61.25z"/>
<path fill="#6CAB85" d="M301.95,39.14c4.49,0.72,8.96,1.58,13.4,2.59c4.95,1.13,9.87,2.44,14.73,3.94c4.86,1.49,9.66,3.17,14.4,5.02
	c4.32,1.69,8.58,3.52,12.77,5.5c3.74,1.77,7.44,3.65,11.07,5.64c0.42,0.23,0.84,0.46,1.25,0.69c0.43,0.24,0.82-0.43,0.39-0.67
	c-3.58-1.99-7.22-3.88-10.92-5.66c-4.13-1.99-8.32-3.83-12.56-5.54c-4.66-1.87-9.38-3.57-14.16-5.1c-4.92-1.57-9.9-2.95-14.93-4.15
	c-4.52-1.07-9.07-1.99-13.65-2.76c-0.53-0.09-1.05-0.17-1.58-0.26C301.67,38.32,301.46,39.07,301.95,39.14L301.95,39.14z"/>
<g>
	<path fill="#6CAB85" d="M355.85,54.82c1.62,1.88,2.4,3.58,2.82,4.79c0.42,1.22,0.85,2.55,2.04,3.8c0.45,0.47,1.12,0.89,1.73,0.65
		c0.5-0.19,0.68-0.82,0.73-0.99c0.43-1.51-0.91-3.17-1.7-4.12C360.55,57.86,358.82,56.13,355.85,54.82z"/>
</g>
<g>
	<path fill="#6CAB85" d="M344.75,50.66c5.32,0.4,9.02,1.63,11.47,2.71c1.48,0.66,3.6,1.75,4.72,0.88c0.71-0.55,0.92-1.82,0.47-2.63
		c-0.68-1.24-2.77-1.25-4.63-1.24C353.64,50.41,349.58,50.48,344.75,50.66z"/>
</g>
<g>
	<path fill="#6CAB85" d="M390.83,15.31c2.58-1.63,7.74-5.31,8.43-9.71c0.11-0.72,0.56-3.59-0.38-4.01c-0.12-0.05-0.35-0.1-0.77,0.09
		c-1.96,0.9-2.48,4.73-3.82,8C393.71,11.13,392.69,13.13,390.83,15.31z"/>
</g>
<g>
	<path fill="#6CAB85" d="M330.43,45.48c0.78,1.13,3.75,5.41,6.42,7.95c0.43,0.4,1.24,1.14,2.42,1.27c1.09,0.12,2.51-0.27,2.72-1.02
		c0.21-0.73-0.72-1.66-2.65-3.07C337.43,49.21,334.52,47.31,330.43,45.48z"/>
</g>
<g>
	<path fill="#6CAB85" d="M318.76,42.12c4.42-1.4,7.86-1.39,10.2-1.11c2.8,0.34,5.45,1.24,6.81-0.19c0.61-0.64,0.95-1.71,0.57-2.37
		c-0.62-1.09-3.02-0.79-5.01-0.54c-2.16,0.27-3.87,0.79-5.66,1.41C323.91,39.93,321.53,40.84,318.76,42.12z"/>
</g>
<g>
	<path fill="#6CAB85" d="M334.59,47.01l-0.26-0.55c4.59-2.16,9.28-3.68,13.95-4.51c1.83-0.33,3.23-0.47,4.47-0.6
		c1.92-0.2,3.58-0.38,6.13-1.12c2.46-0.72,3.59-1.35,5.32-2.3c1.25-0.69,2.81-1.56,5.39-2.72c0.33-0.15,0.68-0.31,1.07-0.49
		c2.81-1.31,7.51-3.52,16.25-5.57l0.14,0.59c-8.68,2.04-13.34,4.22-16.13,5.53c-0.39,0.18-0.74,0.35-1.07,0.5
		c-2.55,1.16-4.1,2.01-5.34,2.7c-1.7,0.94-2.92,1.62-5.44,2.35c-2.6,0.76-4.29,0.94-6.24,1.14c-1.23,0.13-2.63,0.28-4.43,0.6
		C343.78,43.37,339.14,44.87,334.59,47.01z"/>
</g>
<path fill="#6CAB85" d="M334.66,47.06c3.97-1.86,8.14-3.3,12.44-4.19c1.94-0.4,3.89-0.66,5.86-0.86c1.94-0.21,3.85-0.49,5.73-1.02
	c1.45-0.4,2.87-0.91,4.21-1.59c1.3-0.65,2.55-1.4,3.84-2.06c2.43-1.26,4.95-2.42,7.48-3.48c3.55-1.49,7.23-2.64,10.95-3.59
	c0.64-0.16,1.27-0.32,1.91-0.47c0.48-0.11,0.27-0.85-0.2-0.73c-4.04,0.95-8.04,2.11-11.9,3.66c-2.42,0.97-4.79,2.08-7.14,3.21
	c-2.71,1.31-5.25,3.02-8.13,3.95c-1.88,0.61-3.81,1.02-5.77,1.25c-2.01,0.23-4.03,0.43-6.02,0.8c-4.07,0.75-8.02,2.01-11.82,3.64
	c-0.61,0.26-1.22,0.54-1.82,0.82C333.83,46.61,334.22,47.27,334.66,47.06L334.66,47.06z"/>
<g>
	<path fill="#6CAB85" d="M360.83,39.66c1.36-2.57,3-4.93,4.87-7.02c2.88-3.23,4.93-4.87,6.07-4.87c0.2,0,0.37,0.04,0.52,0.13
		c0.79,0.46,0.61,1.93,0.53,2.37c-0.18,1.04-0.78,2.01-3.3,3.91c-1.12,0.85-1.9,1.32-2.72,1.83c-0.51,0.31-1.03,0.63-1.67,1.06
		c-1.33,0.9-2.62,1.89-3.83,2.95L360.83,39.66z"/>
</g>
<g>
	<path fill="#6CAB85" d="M369.74,35.79l-0.03-0.61c1.99-0.1,4.03-0.24,6.05-0.41l1.26-0.11c13.28-1.15,22.05-1.91,29.63-6.97
		c1.01-0.67,1.79-1.32,2.88-2.22c1.32-1.09,3.13-2.59,6.34-4.95c2.14-1.58,4.34-3.12,6.52-4.6l0.34,0.5
		c-2.18,1.47-4.36,3.01-6.5,4.58c-3.19,2.34-4.99,3.84-6.31,4.93c-1.1,0.91-1.9,1.57-2.93,2.26c-7.71,5.15-16.55,5.91-29.92,7.07
		l-1.26,0.11C373.78,35.55,371.74,35.69,369.74,35.79z"/>
</g>
<path fill="#6CAB85" d="M369.72,35.86c4.58-0.23,9.14-0.65,13.7-1.1c4.04-0.39,8.09-0.84,12.05-1.75c3.37-0.77,6.66-1.9,9.68-3.61
	c2.2-1.25,4.08-2.84,6.03-4.43c3.39-2.76,6.94-5.32,10.54-7.79c0.34-0.23,0.68-0.46,1.01-0.69c0.4-0.27,0.02-0.93-0.38-0.66
	c-3.61,2.44-7.16,4.98-10.57,7.69c-1.92,1.52-3.73,3.19-5.8,4.5c-2.89,1.82-6.07,3.08-9.37,3.93c-3.8,0.98-7.71,1.48-11.61,1.89
	c-4.69,0.49-9.4,0.92-14.11,1.19c-0.39,0.02-0.79,0.04-1.18,0.06C369.23,35.13,369.23,35.89,369.72,35.86L369.72,35.86z"/>
<g>
	<path fill="#6CAB85" d="M423.02,16.61c-0.27,0-0.63,0-0.75-0.34c-0.39-1.11,3.51-2.86,6.86-4.13c0.27-0.1,0.99-0.38,1.87-0.38
		c0.34,0,0.67,0.04,0.99,0.12c0.61,0.16,1.16,0.48,1.54,0.91c0.17,0.19,0.51,0.57,0.47,1.09c-0.03,0.41-0.28,0.69-0.36,0.78
		c-1.22,1.35-5.29,1.61-5.46,1.63c-1.2,0.07-2.14,0.14-2.88,0.19C424.07,16.56,423.39,16.61,423.02,16.61z"/>
</g>
<g>
	<path fill="#6CAB85" d="M393.7,40.41c-1.6,0-3.02-0.5-3.08-0.53c-1.79-0.64-4.2-1.45-7.27-2.48c-1.76-0.59-3.71-1.24-5.84-1.96
		l0.11-0.59c5.98,0.24,16.29,0.89,18.06,2.44c0.38,0.33,1.25,1.1,1.03,1.9c-0.1,0.35-0.4,0.63-0.91,0.84
		C395.2,40.29,394.49,40.41,393.7,40.41L393.7,40.41z"/>
</g>
<g>
	<path fill="#6CAB85" d="M412.6,32.41c-3.13,0-6.26-0.65-9.31-1.92l-1-0.42l1.07-0.16c4.01-0.61,7.84-1.67,11.38-3.17
		c1.12-0.47,2.1-0.93,2.96-1.34c1.59-0.75,2.74-1.3,3.55-1.3c0.35,0,0.64,0.1,0.86,0.31c0.29,0.27,0.45,0.71,0.46,1.27
		c0.02,1.45-0.91,3.42-2.2,4.67c-2.02,1.95-4.7,2.01-7.3,2.06C412.92,32.41,412.77,32.41,412.6,32.41z"/>
</g>
<g>
	<path fill="#6CAB85" d="M404.08,29.67c0.09-0.21,0.24-0.56,0.42-1c2.59-6.03,4.3-10.01,7.83-12.3c0.83-0.54,2.51-1.45,3.52-1.45
		c0.32,0,0.57,0.09,0.74,0.26c0.36,0.38,0.21,0.98,0.15,1.21c-0.57,2.26-7.87,9.5-12.18,13.61L404.08,29.67z"/>
</g>
<g>
	<path fill="#6CAB85" d="M373.13,43.71c-2.46,0-5.02-0.34-5.31-0.38c-3.07-0.42-6.09-1.27-8.97-2.53l0.2-0.57
		c1.89,0.51,3.75,0.77,5.52,0.77c1.01,0,2.02-0.08,3-0.25c1.23-0.21,2.36-0.54,3.35-0.83c1.28-0.38,2.39-0.7,3.42-0.7
		c0.77,0,1.42,0.19,2.01,0.57c0.73,0.47,1.77,1.58,1.47,2.53C377.52,43.25,375.99,43.71,373.13,43.71z"/>
</g>
<path fill="#6CAB85" d="M385.15,30.05c2.73,0.06,5.01-0.08,6.67-0.23c3.96-0.36,5-0.86,5.52-1.72c0.45-0.74,0.59-1.91,0.05-2.48
	c-0.93-0.97-3.54,0.13-6.24,1.26C389.51,27.58,387.44,28.59,385.15,30.05z"/>
<path fill="#6CAB85" d="M310.52,40.75c3.87,3.8,7.37,7.96,10.45,12.42c0.28,0.4,0.94,0.02,0.66-0.38
	c-3.11-4.52-6.65-8.73-10.56-12.58C310.71,39.87,310.17,40.41,310.52,40.75L310.52,40.75z"/>
<g>
	<path fill="#6CAB85" d="M314.07,43.88c-0.21,0.08,0.97,1.89,0.86,4.74c-0.06,1.51-0.45,2.57-0.03,4.39c0.34,1.5,0.8,1.68,0.95,1.72
		c0.63,0.16,1.52-0.56,1.87-1.36c0.45-1.05-0.08-2.05-1.1-4.18C314.81,45.41,314.26,43.81,314.07,43.88z"/>
</g>
<g>
	<path fill="#6CAB85" d="M314.07,43.88c2.95,0.07,5.21,0.67,6.67,1.18c2.04,0.71,4.05,1.45,4.42,3.06c0.14,0.63,0.08,1.6-0.46,1.89
		c-0.99,0.54-2.65-2.12-6.26-4.25C316.76,44.76,315.18,44.2,314.07,43.88z"/>
</g>
<path fill="#6CAB85" d="M318.89,57.34"/>
<path fill="#6CAB85" d="M320.09,51.52c0.67,1.34,1.09,2.46,1.34,3.23c0.62,1.85,0.62,2.61,1.41,3.52c0.23,0.27,1.44,1.67,2.72,1.34
	c1.27-0.32,2.05-2.21,1.58-3.35c-0.38-0.94-1.45-1.02-3.17-1.88C322.31,53.55,321.05,52.51,320.09,51.52z"/>
<path fill="#6CAB85" stroke="#245650" stroke-width="4" stroke-miterlimit="10" d="M79.07,16.1"/>
<path fill="#6CAB85" d="M362.4,58.16c7.13-0.87,14.22-2.04,21.25-3.55c6.44-1.39,12.83-3.07,19.11-5.05
	c5.81-1.83,11.54-3.93,17.16-6.29c5.16-2.17,10.22-4.56,15.17-7.17c4.68-2.47,9.26-5.14,13.71-8.01c0.77-0.5,1.54-1,2.31-1.51
	c0.41-0.27,0.03-0.93-0.38-0.66c-4.59,3.05-9.32,5.9-14.16,8.53c-4.86,2.64-9.83,5.05-14.9,7.25c-5.5,2.39-11.12,4.51-16.82,6.38
	c-6.17,2.03-12.44,3.76-18.78,5.21c-6.91,1.58-13.9,2.83-20.93,3.76c-0.91,0.12-1.82,0.24-2.73,0.35
	C361.92,57.46,361.91,58.22,362.4,58.16L362.4,58.16z"/>
<g>
	<path fill="#6CAB85" d="M442.54,31.07c1.38-2.06,1.96-3.84,2.23-5.09c0.27-1.26,0.55-2.64,1.57-4.01c0.39-0.52,1-1.01,1.64-0.85
		c0.52,0.13,0.78,0.74,0.84,0.9c0.61,1.45-0.53,3.26-1.2,4.29C446.85,27.5,445.34,29.42,442.54,31.07z"/>
</g>
<g>
	<path fill="#6CAB85" d="M440.03,32.33c5.24-1.02,8.77-2.67,11.06-4.04c1.39-0.83,3.36-2.16,4.58-1.43
		c0.77,0.46,1.13,1.69,0.78,2.56c-0.53,1.31-2.6,1.56-4.45,1.77C448.88,31.54,444.85,31.95,440.03,32.33z"/>
</g>
<g>
	<path fill="#6CAB85" d="M422.9,40.68c1.14-2.72,2.52-4.52,3.6-5.69c1.73-1.86,3.56-3.01,3.51-4.91c-0.01-0.23-0.06-1.28-0.75-1.68
		c-0.9-0.53-2.28,0.4-2.55,0.59c-1.34,0.91-1.94,2.3-2.44,3.88C423.71,34.62,423.06,37.25,422.9,40.68z"/>
</g>
<g>
	<path fill="#6CAB85" d="M427.85,39.05c2.96-0.77,9.19-2.03,12.9,0.45c0.61,0.41,3.04,2.03,2.7,3c-0.04,0.13-0.16,0.33-0.59,0.5
		c-2,0.81-5.18-1.4-8.51-2.65C432.89,39.8,430.72,39.18,427.85,39.05z"/>
</g>
<path fill="#6CAB85" d="M408.4,47.56c4.17-0.69,8.48-0.86,12.65-0.08c1.25,0.23,2.48,0.58,3.7,0.92c1.75,0.49,3.52,0.96,5.29,1.37
	c2.53,0.6,5.09,1.11,7.66,1.54c0.48,0.08,0.68-0.65,0.2-0.73c-4.22-0.71-8.4-1.65-12.53-2.79c-1.24-0.35-2.48-0.71-3.75-0.96
	c-1.75-0.35-3.53-0.54-5.3-0.6c-2.72-0.08-5.44,0.16-8.12,0.6C407.71,46.9,407.92,47.64,408.4,47.56L408.4,47.56z"/>
<g>
	<path fill="#6CAB85" d="M437.55,50.39c2.08-0.06,3.6,0.25,4.77,0.65c0.95,0.32,1.92,0.66,2,1.31c0.05,0.39-0.23,0.84-0.59,1.05
		c-0.48,0.27-1.05,0.09-1.32,0c-1.14-0.37-3.86-1.36-7.44-2.74C435.64,50.53,436.52,50.42,437.55,50.39z"/>
</g>
<g>
	<path fill="#6CAB85" d="M426.2,47.99c3.23-1.52,5.89-1.8,7.57-1.8c0.39,0,4.36-0.02,4.59,1.06c0.08,0.37-0.32,0.75-0.47,0.89
		c-1.33,1.25-3.55,0.52-8.03,0.09C428.44,48.09,427.21,48.02,426.2,47.99z"/>
</g>
<g>
	<path fill="#6CAB85" d="M416.97,46.63c2.24,1.65,3.8,3.25,4.82,4.44c2.27,2.64,3.42,5,5.5,5.09c0.17,0.01,1.27,0.06,1.65-0.56
		c0.07-0.11,0.34-0.62-0.35-1.84c-1.15-2.03-3.27-3.06-4.46-3.64C421.26,48.73,418.92,47.58,416.97,46.63z"/>
</g>
<g>
	<path fill="#6CAB85" d="M405.81,48.77c0.64-1.22,3.08-5.81,5.43-8.65c0.37-0.45,1.09-1.28,2.25-1.55c1.07-0.25,2.52-0.03,2.82,0.69
		c0.29,0.7-0.52,1.73-2.27,3.36C412.32,44.25,409.65,46.48,405.81,48.77z"/>
</g>
<g>
	<path fill="#6CAB85" d="M395.97,50.97c4.56,0.88,7.97,0.46,10.27-0.09c2.74-0.66,5.26-1.87,6.79-0.61
		c0.68,0.56,1.15,1.58,0.85,2.28c-0.49,1.16-2.91,1.14-4.91,1.13c-2.18-0.02-3.94-0.33-5.79-0.74
		C401.35,52.54,398.88,51.92,395.97,50.97z"/>
</g>
<g>
	<path fill="#6CAB85" d="M388.49,53.2c1.99-2.07,3.9-3.49,5.33-4.41c0.68-0.44,3.23-2.06,5.95-2.13c1.06-0.03,1.48,0.19,1.64,0.48
		c0.3,0.55-0.31,1.38-0.35,1.43c-0.96,1.27-3.06,1.21-3.81,1.23C395.28,49.82,392.41,50.46,388.49,53.2z"/>
</g>
<g>
	<path fill="#6CAB85" d="M430.71,37.78c-0.08-0.6,6.91-2.09,13.97-2.46c7.55-0.39,10.39,0.75,11.94,2.64
		c0.23,0.28,1.27,1.54,0.87,2.25c-0.76,1.34-5.83-1.09-12.77-2.16C436.31,36.75,430.79,38.32,430.71,37.78z"/>
</g>
<path fill="#6CAB85" d="M451.09,28.3"/>
<path fill="#6CAB85" d="M432.73,37.5"/>
<path fill="#6CAB85" d="M424.34,42.95"/>
<path fill="#6CAB85" d="M436.66,34.38c4.36,0.25,8.75,0.05,13.05-0.7c1.96-0.34,3.88-0.81,5.79-1.35c1.92-0.54,3.82-1.02,5.81-1.24
	c1.5-0.16,2.99-0.22,4.49-0.09c1.45,0.13,2.89,0.35,4.33,0.49c2.75,0.26,5.54,0.4,8.3,0.45c3.88,0.06,7.76-0.24,11.61-0.76
	c0.64-0.09,1.28-0.18,1.92-0.27c0.48-0.07,0.28-0.81-0.2-0.73c-4.1,0.62-8.25,1.02-12.4,1.01c-2.62,0-5.26-0.15-7.88-0.34
	c-2.94-0.21-5.86-0.83-8.81-0.63c-2,0.13-3.97,0.46-5.91,0.98c-1.99,0.53-3.96,1.12-5.98,1.52c-4,0.8-8.08,1.11-12.15,1
	c-0.66-0.02-1.32-0.05-1.99-0.08C436.17,33.59,436.17,34.36,436.66,34.38L436.66,34.38z"/>
<g>
	<path fill="#6CAB85" d="M463.98,30.54c2.75,2.32,5.28,3.77,7.1,4.66c1.22,0.6,6.57,3.25,7.52,2.03c0.46-0.59-0.29-1.85-0.42-2.05
		c-0.49-0.79-1.33-1.45-4.35-2.26c-2.18-0.59-3.15-0.63-5.15-1.05C466.8,31.47,465.21,30.98,463.98,30.54z"/>
</g>
<path fill="#6CAB85" d="M473.7,31.71c4.31-1.48,8.68-2.78,13.05-4.05c3.97-1.16,7.98-2.27,12.07-2.89
	c3.48-0.53,7.04-0.65,10.52-0.09c2.37,0.38,4.61,1.18,6.89,1.88c4.07,1.25,8.22,2.27,12.38,3.2c0.38,0.09,0.77,0.17,1.15,0.25
	c0.48,0.1,0.68-0.63,0.2-0.73c-4.17-0.9-8.33-1.91-12.42-3.12c-2.28-0.67-4.53-1.54-6.86-2.01c-3.48-0.7-7.05-0.75-10.57-0.32
	c-4.01,0.49-7.94,1.49-11.82,2.59c-4.6,1.31-9.2,2.67-13.73,4.19c-0.36,0.12-0.72,0.24-1.07,0.37
	C473.03,31.14,473.23,31.87,473.7,31.71L473.7,31.71z"/>
<g>
	<path fill="#6CAB85" d="M540.04,29.86c0.19-0.14,0.73-0.56,0.98-1.27c0.08-0.23,0.21-0.61,0.04-0.95c-0.13-0.28-0.4-0.4-0.49-0.45
		c-1.55-0.75-5.45,0.54-5.45,0.54c-4.89,1.61-5.27,1.66-5.26,1.91c0.05,1.1,7.15,1,7.6,0.99C537.9,30.62,539.06,30.59,540.04,29.86z
		"/>
</g>
<g>
	<path fill="#6CAB85" d="M481.04,28.72c4.61-3.95,8.24-6.99,10.48-8.99c0,0,2.26-2.01,4.54-1.99c0.62,0.01,0.84,0.22,0.93,0.32
		c0.39,0.5-0.09,1.45-0.27,1.82C495.59,22.12,483.86,27.45,481.04,28.72z"/>
</g>
<g>
	<path fill="#6CAB85" d="M506.82,23.73c4.85-1.13,8.87-1.35,11.83-1.3c4.22,0.07,6.92,0.7,7.44-0.4c0.53-1.11-1.39-3.51-3.69-4.45
		c-2.45-1-4.84-0.14-7.33,0.8C513.12,19.12,509.99,20.61,506.82,23.73z"/>
</g>
<g>
	<path fill="#6CAB85" d="M508.63,24.53c4.84,4.79,7.78,7.64,11.74,8.42c1.4,0.28,3.75,0.45,4.06-0.3c0.13-0.33-0.16-0.73-0.28-0.88
		c-1.49-2.03-13.56-6.91-16.29-8C508.03,23.93,508.3,24.2,508.63,24.53z"/>
</g>
<g>
	<path fill="#6CAB85" d="M461.74,30.67c-0.21-0.31,3.07-3.25,7.3-5.63c0.83-0.47,7.95-4.42,9.27-2.83c0.48,0.58,0.09,1.78-0.43,2.52
		c-1.41,2.02-4.21,1.24-8.32,2.24C464.61,28.17,461.93,30.96,461.74,30.67z"/>
</g>
<path fill="#6CAB85" d="M500.32,31.56c-0.55,0-1.12-0.01-1.7-0.02c-2.26-0.04-4.55-0.28-6.8-0.71l-0.98-0.19l0.92-0.39
	c2.07-0.88,4.19-1.65,6.3-2.28c2.09-0.62,3.44-0.9,4.37-0.9c0.7,0,1.21,0.15,1.66,0.49c0.8,0.6,1.43,1.76,1.08,2.63
	C504.73,31.33,502.91,31.56,500.32,31.56z"/>
<path fill="#6CAB85" d="M570.13,34.32c3.61,0.58,7.15,1.63,10.41,3.31c3.05,1.57,5.81,3.62,9.07,4.78c1.91,0.68,3.91,1.05,5.92,1.23
	c1.13,0.1,2.26,0.05,3.39,0.01c3.79-0.15,7.61-0.04,11.39,0.23c4.28,0.31,8.52,1.05,12.68,2.11c0.47,0.12,0.68-0.61,0.2-0.73
	c-3.84-0.98-7.74-1.68-11.68-2.04c-1.89-0.17-3.79-0.24-5.69-0.31c-1.92-0.07-3.83-0.12-5.74-0.07c-1.19,0.04-2.38,0.11-3.57,0.08
	c-1.77-0.05-3.57-0.34-5.27-0.81c-1.82-0.5-3.53-1.28-5.18-2.2c-1.49-0.83-2.93-1.77-4.43-2.59c-3.5-1.92-7.34-3.13-11.28-3.76
	C569.85,33.51,569.64,34.24,570.13,34.32L570.13,34.32z"/>
<g>
	<path fill="#6CAB85" d="M595.28,43.24c2.95-2.07,5.59-3.3,7.47-4.04c1.27-0.5,6.83-2.68,7.67-1.38c0.41,0.63-0.45,1.82-0.6,2.01
		c-0.56,0.74-1.46,1.33-4.53,1.88c-2.22,0.4-3.19,0.35-5.22,0.61C598.17,42.56,596.54,42.92,595.28,43.24z"/>
</g>
<g>
	<path fill="#6CAB85" d="M573.96,53.21c3.61-0.05,6.49,0.43,8.46,0.88c1.33,0.3,7.16,1.64,7.11,3.18c-0.02,0.75-1.41,1.24-1.64,1.32
		c-0.88,0.3-1.96,0.28-4.81-1c-2.06-0.92-2.83-1.5-4.64-2.44C576.73,54.27,575.2,53.65,573.96,53.21z"/>
</g>
<path fill="#6CAB85" d="M604.74,43.59c4.17,1.85,8.43,3.52,12.68,5.17c3.89,1.51,7.83,2.97,11.89,3.95
	c3.46,0.83,7.02,1.27,10.58,1.02c2.43-0.17,4.75-0.76,7.11-1.27c4.19-0.91,8.43-1.58,12.68-2.15c0.39-0.05,0.78-0.1,1.17-0.15
	c0.48-0.06,0.49-0.82,0-0.76c-4.22,0.54-8.43,1.18-12.6,2.03c-2.29,0.47-4.57,1.14-6.9,1.41c-3.49,0.41-7.01,0.17-10.45-0.55
	c-3.94-0.82-7.75-2.16-11.5-3.58c-4.44-1.68-8.87-3.42-13.23-5.31c-0.35-0.15-0.69-0.3-1.04-0.46
	C604.68,42.74,604.29,43.4,604.74,43.59L604.74,43.59z"/>
<g>
	<path fill="#6CAB85" d="M671,50.42c0.18,0.16,0.67,0.62,0.86,1.35c0.06,0.24,0.16,0.62-0.04,0.95c-0.16,0.26-0.43,0.37-0.53,0.41
		c-1.61,0.62-5.38-1-5.38-1c-4.73-2.03-5.11-2.1-5.07-2.36c0.15-1.09,7.21-0.39,7.66-0.34C668.93,49.48,670.08,49.61,671,50.42z"/>
</g>
<g>
	<path fill="#6CAB85" d="M612.11,46.52c-0.16,0.27,0.64,0.69,5.66,5.73c1.65,1.66,3.02,3.08,4.01,4.12c0,0,2.08,2.2,4.36,2.37
		c0.62,0.05,0.86-0.14,0.95-0.24c0.43-0.47,0.03-1.47-0.11-1.84C625.78,53.67,612.77,45.41,612.11,46.52z"/>
</g>
<g>
	<path fill="#6CAB85" d="M637.37,53.69c0.43-0.82,4.16,1.59,11.67,2.3c4.48,0.43,6.97-0.07,7.38,1.03c0.43,1.15-1.69,3.38-4.06,4.12
		c-2.48,0.77-4.72-0.24-7.23-1.42C641.09,57.82,636.9,54.59,637.37,53.69z"/>
</g>
<g>
	<path fill="#6CAB85" d="M593.05,42.93c-0.24,0.29,2.78,3.5,6.79,6.23c0.79,0.54,7.54,5.09,8.99,3.62c0.53-0.53,0.25-1.76-0.21-2.55
		c-1.23-2.13-4.09-1.59-8.1-2.94C595.7,45.66,593.28,42.66,593.05,42.93z"/>
</g>
<path fill="#6CAB85" d="M620.62,45.39c-0.08,0.49,2.37,0.68,8.51,3.04c2.61,1,4.34,1.8,5.7,0.95c0.74-0.46,1.4-1.43,1.17-2.19
	c-0.26-0.87-1.66-1.29-6.14-1.68C625.21,45.11,620.73,44.72,620.62,45.39z"/>
<path fill="#6CAB85" d="M420.21,43.18c8.6-0.89,17.33-0.4,25.76,1.56c2.47,0.57,4.91,1.27,7.31,2.08c0.46,0.16,0.66-0.58,0.2-0.73
	c-4.48-1.51-9.09-2.62-13.77-3.3c-4.37-0.63-8.79-0.89-13.2-0.78c-2.11,0.05-4.21,0.19-6.31,0.41
	C419.73,42.47,419.73,43.23,420.21,43.18z"/>
<path fill="#6CAB85" d="M434.78,42.86c6.21,3.48,12.75,6.24,19.45,8.63c3.48,1.24,7.02,2.3,10.7,2.81c2.83,0.39,5.7,0.51,8.55,0.35
	c4.13-0.23,8.22-1.02,12.16-2.28c0.46-0.15,0.27-0.88-0.2-0.73c-6.14,1.96-12.63,2.76-19.05,2.08c-3.66-0.39-7.21-1.33-10.68-2.52
	c-3.75-1.29-7.48-2.69-11.12-4.29c-3.21-1.42-6.36-2.98-9.42-4.7C434.74,41.96,434.35,42.62,434.78,42.86L434.78,42.86z"/>
<g>
	<path fill="#6CAB85" d="M484.35,51.92c-0.16-0.87,6.24-2.42,10.59-2.98c1.53-0.2,3.63-0.37,5.28,0.91
		c0.26,0.21,1.37,1.06,1.17,1.71c-0.28,0.92-2.94,0.73-8.67,0.63C485.63,52.08,484.42,52.3,484.35,51.92z"/>
</g>
<path fill="#6CAB85" d="M466.86,54.24c3.81-2.82,7.63-5.65,11.72-8.06c2.08-1.23,4.23-2.34,6.48-3.21c2-0.78,4.05-1.39,6.14-1.87
	c1.9-0.44,3.82-0.75,5.75-1.04c0.48-0.07,0.28-0.8-0.2-0.73c-3.8,0.55-7.57,1.31-11.19,2.64c-4.49,1.65-8.59,4.16-12.52,6.86
	c-2.23,1.53-4.4,3.14-6.58,4.75C466.09,53.88,466.47,54.54,466.86,54.24L466.86,54.24z"/>
<path fill="#6CAB85" d="M465.3,53.83c0.76-3.66,2.21-6.22,3.26-7.76c1.26-1.84,2.67-3.83,4.81-3.99c1.3-0.1,2.85,0.47,2.98,1.25
	c0.15,0.9-1.62,1.85-2.59,2.43C471.52,47.09,468.51,49.43,465.3,53.83z"/>
<path fill="#6CAB85" d="M486.57,42.63c4.23,1.63,8.46,3.27,12.7,4.89c2.1,0.8,4.26,1.4,6.41,2.07c1.82,0.57,3.63,1.17,5.44,1.78
	c0.46,0.16,0.66-0.58,0.2-0.73c-2.52-0.85-5.05-1.66-7.6-2.44c-1.24-0.38-2.47-0.74-3.68-1.19c-2.02-0.76-4.04-1.55-6.05-2.33
	c-2.4-0.93-4.81-1.85-7.21-2.78C486.31,41.72,486.11,42.46,486.57,42.63L486.57,42.63z"/>
<g>
	<path fill="#6CAB85" d="M504.9,49.24c0.75,1.85,2.22,4.68,5.13,6.87c2.82,2.13,6.59,3.35,7.04,2.66c0.53-0.81-3.45-4.21-3.92-4.6
		C510.16,51.63,507.16,50.14,504.9,49.24z"/>
</g>
<g>
	<path fill="#6CAB85" d="M476.62,53.63c0.15-0.35,4.13,2.67,9.98,2.56c0,0,7.56-0.16,8.75,1.21c0.15,0.17,1.1,1.27,0.76,2.3
		c-0.29,0.89-1.41,1.26-1.86,1.4c-1.12,0.37-2.12,0.17-2.5,0.09c-3.38-0.72-6.13-2.68-6.13-2.68
		C478.04,54.84,476.53,53.85,476.62,53.63z"/>
</g>
<g>
	<path fill="#6CAB85" d="M486.21,41.91c-0.22-0.18,0.99-1.99,1.81-3.09c1.18-1.58,1.94-2.6,3.29-3.42c1.84-1.11,4.23-1.53,4.53-0.98
		c0.25,0.46-1.03,1.59-1.34,1.87c-1.34,1.18-2.41,1.38-3.7,1.99C487.76,39.73,486.45,42.11,486.21,41.91z"/>
</g>
<g>
	<path fill="#6CAB85" d="M492.21,40.56c4.09,1.21,6.65,2.59,8.31,3.71c0.4,0.27,2.33,1.61,4.74,1.59c1.25-0.01,1.48-0.38,1.54-0.5
		c0.31-0.63-0.69-1.68-1.07-2.07C503.36,40.77,495.39,40.56,492.21,40.56z"/>
</g>
<g>
	<path fill="#6CAB85" d="M474.56,48.27c-0.06-0.18,1.75-1.05,4.13-1.76c5.03-1.52,11.02-1.9,11.38-0.67
		c0.07,0.22-0.07,0.44-0.21,0.67c-0.4,0.65-1.32,1.1-3.63,1.15c-1.82,0.04-3.05-0.2-3.87-0.31
		C478.02,46.76,474.64,48.52,474.56,48.27z"/>
</g>
<g>
	<path fill="#6CAB85" d="M447.78,48.09c3.09,3.78,6.27,6.06,8.42,7.36c0,0,4.45,2.7,8.82,2.54c0.33-0.01,1.23-0.04,1.35-0.42
		c0.16-0.5-0.41-0.91-0.9-1.13c-2.13-0.95-3.98-1.73-6.06-2.26c0,0-1.27-0.33-3.71-1.16C453.68,52.34,450.89,50.99,447.78,48.09z"/>
</g>
<path fill="#6CAB85" d="M508.87,51.38c2.36-3.37,6.42-4.94,10.2-6.09c4.36-1.32,8.78-2.56,13.27-3.38c1.85-0.34,3.72-0.61,5.6-0.65
	c0.49-0.01,0.49-0.77,0-0.76c-3.82,0.07-7.63,0.97-11.32,1.9c-2.45,0.62-4.89,1.3-7.31,2.02c-1.99,0.59-3.97,1.26-5.83,2.2
	c-2.07,1.05-3.94,2.46-5.28,4.38C507.94,51.4,508.6,51.78,508.87,51.38L508.87,51.38z"/>
<g>
	<path fill="#6CAB85" d="M512.68,47.5c3.78-0.1,6.85,0.11,9.02,0.33c2.4,0.25,4.76,0.63,8.04,0.14c2.78-0.42,4.26-1.16,4.99-2.41
		c0.19-0.33,0.63-1.07,0.35-1.59c-0.64-1.21-4.59-0.31-7.65,0.38C524.03,45.11,519.06,46.2,512.68,47.5z"/>
</g>
<g>
	<path fill="#6CAB85" d="M517.38,45.43c2.52-2.61,4.81-4.61,6.53-6.02c0.44-0.36,2.5-2.37,5.34-3.61c0.48-0.21,1.5-0.62,2.81-0.51
		c0.18,0.02,2.24,0.21,2.43,1.05c0.07,0.32-0.04,1.01-3.23,2.93c-2.86,1.73-5.26,2.68-6.24,3.06
		C523.39,43,520.77,44.04,517.38,45.43z"/>
</g>
<g>
	<path fill="#6CAB85" d="M535.4,41.13c-0.06-0.46,2.88-1.22,8.77-2.74c5.58-1.43,7.2-1.66,8.03-0.74c0.76,0.86,0.71,2.54-0.06,3.5
		c-1.05,1.31-3.06,0.85-8.13,0.52C537.76,41.27,535.47,41.61,535.4,41.13z"/>
</g>
<path fill="#6CAB85" d="M638.76,54.09c1.85-3.7,5.62-5.84,9.22-7.53c4.13-1.94,8.33-3.79,12.66-5.24c1.8-0.6,3.63-1.14,5.5-1.45
	c0.48-0.08,0.28-0.81-0.2-0.73c-3.76,0.62-7.38,2.05-10.89,3.49c-2.31,0.95-4.59,1.96-6.85,3c-1.91,0.88-3.81,1.83-5.53,3.05
	c-1.87,1.32-3.53,2.97-4.56,5.03C637.88,54.14,638.54,54.53,638.76,54.09L638.76,54.09z"/>
<g>
	<path fill="#6CAB85" d="M641.99,49.65c3.73-0.64,6.79-0.87,8.97-0.96c2.41-0.1,4.8-0.05,7.97-1.01c2.69-0.81,4.04-1.76,4.59-3.1
		c0.14-0.35,0.47-1.15,0.12-1.62c-0.81-1.11-4.58,0.35-7.52,1.47C652.87,45.67,648.11,47.46,641.99,49.65z"/>
</g>
<g>
	<path fill="#6CAB85" d="M646.34,46.94c2.12-2.95,4.09-5.25,5.6-6.89c0.39-0.42,2.13-2.7,4.77-4.33c0.44-0.27,1.4-0.83,2.71-0.91
		c0.18-0.01,2.24-0.11,2.56,0.7c0.12,0.3,0.1,1-2.77,3.36c-2.58,2.12-4.82,3.4-5.73,3.92C651.93,43.67,649.49,45.08,646.34,46.94z"
		/>
</g>
<g>
	<path fill="#6CAB85" d="M665.02,39.8l0.84-0.56c1.94-1.28,4.01-2.43,6.13-3.42c2.69-1.25,5.01-2.34,6.62-2.34
		c0.64,0,1.14,0.16,1.55,0.5c0.97,0.82,1.22,2.66,0.52,3.86c-0.66,1.13-2,1.57-8.22,1.83c-1.99,0.08-4.01,0.12-5.98,0.12
		L665.02,39.8z"/>
</g>
<path fill="#6CAB85" d="M507.93,40.38c-0.88,0-1.57-0.07-2.45-0.16c-0.61-0.06-1.31-0.14-2.21-0.2c-1.08-0.07-2.18-0.11-3.26-0.11
	c-1.04,0-2.09,0.03-3.14,0.1l-0.1-0.6c1.95-0.55,3.83-1.24,5.61-2.05c0.7-0.32,1.32-0.63,1.86-0.9c1.64-0.82,2.82-1.41,4.72-1.58
	c0.32-0.03,0.63-0.04,0.92-0.04c1.18,0,2.19,0.23,3.08,0.69c0.6,0.32,2.56,1.44,2.35,2.65c-0.29,1.68-4.65,2.08-6.51,2.18
	C508.51,40.37,508.22,40.38,507.93,40.38z"/>
<path fill="#6CAB85" d="M511.21,51c2.36,0.44,4.28,0.4,5.66,0.27c2.77-0.27,4.25-1.04,5.46-0.14c0.9,0.68,1.37,2.08,0.91,2.87
	c-0.53,0.92-2.19,0.82-3.39,0.75c-1.17-0.07-2.22-0.35-3.55-0.89C515,53.34,513.19,52.47,511.21,51z"/>
<path fill="#6CAB85" stroke="#245650" stroke-width="4" stroke-miterlimit="10" d="M512.83,46.32"/>
<path fill="#6CAB85" d="M450.21,45.86c2.79,0.16,4.96-0.2,6.47-0.58c2.65-0.67,4.24-1.66,5.19-0.88c0.7,0.57,0.8,1.91,0.29,2.68
	c-0.61,0.92-2.05,0.89-3.57,0.85c-0.82-0.02-1.81-0.13-4.39-0.83C453.19,46.82,451.82,46.42,450.21,45.86z"/>
<path fill="#6CAB85" d="M521.96,27c7.62-1.42,15.47-1.64,23.14-0.49c2.37,0.36,4.72,0.84,7.04,1.44c0.47,0.12,0.68-0.61,0.2-0.73
	c-8.09-2.1-16.52-2.69-24.82-1.8c-1.93,0.21-3.86,0.49-5.77,0.85C521.27,26.36,521.48,27.09,521.96,27L521.96,27z"/>
<path fill="#6CAB85" d="M536.53,25.74c6.53,2.88,13.3,5.02,20.22,6.76c3.6,0.91,7.25,1.63,10.97,1.79c2.86,0.12,5.73-0.05,8.56-0.48
	c4.09-0.62,8.07-1.81,11.87-3.44c0.45-0.19,0.06-0.85-0.38-0.66c-5.93,2.54-12.35,3.93-18.81,3.84c-3.66-0.05-7.26-0.65-10.82-1.51
	c-3.85-0.93-7.68-1.97-11.44-3.22c-3.32-1.1-6.58-2.35-9.78-3.76C536.47,24.89,536.09,25.54,536.53,25.74L536.53,25.74z"/>
<g>
	<path fill="#6CAB85" d="M586.8,30.38c-0.25-0.85,5.97-3,10.26-3.97c1.51-0.34,3.58-0.72,5.34,0.4c0.28,0.18,1.46,0.93,1.33,1.6
		c-0.19,0.95-2.86,1-8.57,1.45C588.1,30.43,586.91,30.75,586.8,30.38z"/>
</g>
<path fill="#6CAB85" d="M569.67,34.32c3.5-3.15,7.02-6.31,10.84-9.08c1.94-1.41,3.95-2.7,6.09-3.78c1.92-0.97,3.92-1.79,5.97-2.47
	c1.85-0.61,3.73-1.11,5.63-1.57c0.48-0.12,0.27-0.85-0.2-0.73c-3.77,0.92-7.47,2.04-10.97,3.72c-4.31,2.06-8.15,4.97-11.79,8.03
	c-2.07,1.74-4.08,3.55-6.09,5.36C568.77,34.11,569.31,34.64,569.67,34.32L569.67,34.32z"/>
<g>
	<path fill="#6CAB85" d="M568.03,34.09c0.4-3.72,1.6-6.4,2.5-8.04c1.08-1.95,2.29-4.06,4.41-4.43c1.28-0.22,2.88,0.2,3.08,0.97
		c0.24,0.88-1.43,2-2.35,2.67C573.58,26.79,570.8,29.4,568.03,34.09z"/>
</g>
<path fill="#6CAB85" d="M588.09,20.92c4.37,1.22,8.74,2.46,13.11,3.67c2.17,0.6,4.38,0.99,6.57,1.45c1.87,0.39,3.73,0.82,5.58,1.25
	c0.48,0.11,0.68-0.62,0.2-0.73c-2.59-0.61-5.19-1.18-7.79-1.71c-1.27-0.26-2.53-0.5-3.78-0.84c-2.09-0.56-4.17-1.16-6.25-1.75
	c-2.48-0.69-4.96-1.39-7.44-2.08C587.82,20.06,587.62,20.79,588.09,20.92L588.09,20.92z"/>
<g>
	<path fill="#6CAB85" d="M607.01,25.77c0.92,1.77,2.66,4.45,5.76,6.35c3.02,1.85,6.88,2.72,7.26,1.98c0.45-0.85-3.84-3.86-4.34-4.21
		C612.48,27.65,609.34,26.45,607.01,25.77z"/>
</g>
<g>
	<path fill="#6CAB85" d="M579.28,32.82c0.12-0.36,4.36,2.27,10.18,1.6c0,0,7.51-0.88,8.83,0.38c0.16,0.15,1.21,1.16,0.98,2.21
		c-0.21,0.92-1.29,1.39-1.71,1.57c-1.08,0.47-2.1,0.37-2.48,0.33c-3.43-0.4-6.36-2.09-6.36-2.09
		C580.8,33.89,579.21,33.04,579.28,32.82z"/>
</g>
<g>
	<path fill="#6CAB85" d="M568.92,49.06c0.36-0.12,0.74,4.83,4.69,9.12c0,0,5.13,5.54,4.89,7.31c-0.03,0.22-0.23,1.66-1.23,2.09
		c-0.87,0.37-1.89-0.22-2.29-0.45c-1.02-0.59-1.54-1.46-1.73-1.8c-1.69-2.99-2.04-6.33-2.04-6.34
		C568.95,50.91,568.7,49.13,568.92,49.06z"/>
</g>
<g>
	<path fill="#6CAB85" d="M587.14,20.74c0.23-0.99,0.66-2.44,1.54-4.04c0.51-0.93,1.33-2.57,3.11-3.9c1.31-0.97,3.13-1.71,4.23-1.71
		c0.5,0,0.85,0.15,1.05,0.45c0.4,0.6,0.05,1.39-1.21,2.74c-1.13,1.2-2.25,1.76-3.15,2.2c-0.28,0.14-0.48,0.24-0.5,0.25
		C591.41,17.13,589.96,18.16,587.14,20.74z"/>
</g>
<g>
	<path fill="#6CAB85" d="M593.55,18.33c4.18,0.81,6.87,1.94,8.63,2.91c0.42,0.23,2.48,1.38,4.87,1.13c1.24-0.13,1.44-0.52,1.49-0.64
		c0.25-0.65-0.85-1.61-1.26-1.96C604.67,17.49,596.7,18.04,593.55,18.33z"/>
</g>
<g>
	<path fill="#6CAB85" d="M576.72,27.68c-0.07-0.18,1.64-1.21,3.95-2.15c4.87-1.99,10.79-2.94,11.27-1.74
		c0.09,0.22-0.03,0.44-0.15,0.69c-0.34,0.69-1.21,1.22-3.5,1.49c-1.81,0.21-3.06,0.09-3.88,0.06
		C580.02,25.85,576.82,27.92,576.72,27.68z"/>
</g>
<g>
	<path fill="#6CAB85" d="M550.04,30.04c3.44,3.47,6.82,5.44,9.09,6.53c0,0,4.69,2.26,9.02,1.69c0.32-0.04,1.22-0.16,1.31-0.55
		c0.11-0.51-0.5-0.87-1-1.04c-2.22-0.75-4.12-1.35-6.25-1.68c0,0-1.3-0.2-3.8-0.8C556.32,33.7,553.41,32.63,550.04,30.04z"/>
</g>
<path fill="#6CAB85" d="M611.15,27.56c2.02-3.58,5.89-5.55,9.55-7.05c4.21-1.73,8.5-3.38,12.88-4.62c1.81-0.51,3.65-0.97,5.51-1.18
	c0.48-0.06,0.49-0.82,0-0.76c-3.8,0.44-7.5,1.67-11.08,2.95c-2.38,0.85-4.74,1.76-7.08,2.71c-1.92,0.78-3.84,1.62-5.59,2.74
	c-1.95,1.24-3.7,2.81-4.85,4.84C610.26,27.61,610.91,27.99,611.15,27.56L611.15,27.56z"/>
<g>
	<path fill="#6CAB85" d="M614.59,23.3c3.75-0.46,6.83-0.54,9.01-0.52c2.42,0.02,4.79,0.18,8.01-0.62c2.73-0.68,4.12-1.56,4.74-2.87
		c0.16-0.35,0.52-1.12,0.2-1.62c-0.75-1.14-4.6,0.13-7.58,1.1C625.66,19.85,620.81,21.4,614.59,23.3z"/>
</g>
<g>
	<path fill="#6CAB85" d="M619.07,20.8c2.26-2.84,4.35-5.04,5.93-6.61c0.41-0.4,2.26-2.6,4.97-4.09c0.46-0.25,1.44-0.76,2.75-0.77
		c0.18,0,2.25,0,2.52,0.82c0.1,0.31,0.05,1.01-2.93,3.22c-2.68,1.99-4.98,3.16-5.91,3.64C624.81,17.81,622.31,19.1,619.07,20.8z"/>
</g>
<g>
	<path fill="#6CAB85" d="M639.11,14.33c-0.16-0.68,3.16-1.93,6.26-3.1c6.63-2.5,7.62-1.77,7.92-1.49c0.84,0.78,0.95,2.46,0.28,3.49
		c-0.71,1.08-3.16,1.17-8.04,1.29C640.03,14.65,639.18,14.66,639.11,14.33z"/>
</g>
<path fill="#6CAB85" d="M598.09,17.04c-0.08-0.3,2.08-0.81,5.43-2.6c3.1-1.65,3.85-2.61,6.22-3.05c1.94-0.36,3.15-0.05,3.88,0.25
	c0.21,0.09,2.48,1.03,2.4,2.11c-0.12,1.61-5.43,2.42-6.01,2.5c-2.12,0.31-2.48,0.02-5.52,0.19
	C600.44,16.67,598.18,17.35,598.09,17.04z"/>
<path fill="#6CAB85" d="M677.18,44.23c3.5-3.15,7.02-6.31,10.84-9.08c1.94-1.41,3.95-2.7,6.09-3.78c1.92-0.97,3.92-1.79,5.97-2.47
	c1.85-0.61,3.73-1.11,5.63-1.57c0.48-0.12,0.27-0.85-0.2-0.73c-3.77,0.92-7.47,2.04-10.97,3.72c-4.31,2.06-8.15,4.97-11.79,8.03
	c-2.07,1.74-4.08,3.55-6.09,5.36C676.28,44.02,676.82,44.55,677.18,44.23L677.18,44.23z"/>
<g>
	<path fill="#6CAB85" d="M694.87,30.78c0.07-0.9,0.28-2.31,1.01-3.86c0.26-0.56,1.11-2.41,3.11-3.9c1.31-0.97,3.13-1.71,4.23-1.71
		c0.5,0,0.85,0.15,1.05,0.45c0.4,0.6,0.05,1.39-1.21,2.74c-1.13,1.2-2.25,1.76-3.15,2.2c-0.27,0.13-0.47,0.24-0.5,0.25
		C698.65,27.33,697.32,28.3,694.87,30.78z"/>
</g>
<path fill="#6CAB85" d="M699.74,34.13"/>
<g>
	<path fill="#6CAB85" d="M701.06,28.25c4.18,0.81,6.87,1.94,8.63,2.91c0.42,0.23,2.48,1.38,4.87,1.13c1.24-0.13,1.44-0.52,1.49-0.64
		c0.25-0.65-0.85-1.61-1.26-1.96C712.18,27.4,704.22,27.95,701.06,28.25z"/>
</g>
<g>
	<path fill="#6CAB85" d="M684.28,37.92c-0.18,0-0.28-0.11-0.33-0.21c-0.04-0.08-0.03-0.18,0-0.27c0.2-0.49,2.57-1.65,4.11-2.28
		c3.3-1.35,7.27-2.29,9.64-2.29c1.17,0,1.84,0.23,2.03,0.72c0.14,0.34-0.02,0.66-0.16,0.93c-0.45,0.91-1.57,1.4-3.74,1.65
		c-0.71,0.08-1.39,0.12-2.09,0.12c-0.55,0-1.02-0.02-1.4-0.04c-0.16-0.01-0.3-0.02-0.43-0.02c-0.16-0.01-0.33-0.01-0.49-0.01
		c-2.88,0-5.2,0.96-6.32,1.42C684.6,37.84,684.43,37.92,684.28,37.92z"/>
</g>
<path fill="#6CAB85" d="M705.49,26.67c1.88-0.73,3.7-1.6,5.39-2.58c0.67-0.39,1.25-0.75,1.77-1.07c1.55-0.97,2.68-1.67,4.55-2.02
	c0.6-0.11,1.17-0.17,1.71-0.17c0.86,0,1.62,0.14,2.34,0.43c0.63,0.26,2.68,1.19,2.59,2.41c-0.13,1.7-4.42,2.51-6.27,2.78
	c-1.03,0.15-1.77,0.18-2.64,0.18c-0.22,0-0.46,0-0.7,0c-0.27,0-0.56,0-0.87,0c-0.4,0-0.84,0-1.34,0.02
	c-2.12,0.06-4.26,0.26-6.36,0.6L705.49,26.67z"/>
<path fill="#6CAB85" d="M705.6,26.95c2.37-0.93,4.2-1.89,5.43-2.6c2.64-1.52,3.78-2.59,6.22-3.05c1.94-0.36,3.15-0.05,3.88,0.25
	c0.21,0.09,2.48,1.03,2.4,2.11c-0.12,1.61-5.43,2.42-6.01,2.5c-2.02,0.3-2.95,0.12-5.52,0.19C709.5,26.42,707.33,26.68,705.6,26.95z
	"/>
<path fill="#6CAB85" d="M613.46,26.93c2.4,0.22,4.3,0,5.66-0.27c2.73-0.54,4.13-1.44,5.42-0.65c0.97,0.59,1.56,1.94,1.18,2.77
	c-0.44,0.97-2.11,1.02-3.31,1.07c-1.17,0.04-2.25-0.14-3.62-0.55C617.45,28.9,615.57,28.2,613.46,26.93z"/>
<path fill="#6CAB85" stroke="#245650" stroke-width="4" stroke-miterlimit="10" d="M614.62,22.12"/>
<path fill="#6CAB85" d="M549.5,27.28c2.79-0.1,4.91-0.67,6.38-1.19c2.58-0.92,4.06-2.05,5.08-1.37c0.75,0.5,0.98,1.82,0.55,2.64
	c-0.52,0.98-1.95,1.08-3.48,1.19c-0.82,0.06-1.82,0.05-4.45-0.42C552.56,27.95,551.16,27.68,549.5,27.28z"/>
<path fill="#6CAB85" d="M450.91,26.25c0.4-1.32,1.33-3.57,3.51-5.19c0.93-0.69,2.77-2.06,4.4-1.37c0.71,0.3,1.56,1.07,1.5,1.87
	c-0.05,0.63-0.65,1.28-5.67,3.28C453.1,25.45,451.81,25.93,450.91,26.25z"/>
<path fill="#6CAB85" d="M519.57,27.5c6.88-0.74,13.63-2.49,19.94-5.35c1.98-0.9,3.91-1.9,5.78-3c0.42-0.25,0.04-0.91-0.38-0.66
	c-6.2,3.65-13.02,6.15-20.08,7.47c-1.74,0.33-3.49,0.58-5.25,0.77C519.09,26.8,519.08,27.56,519.57,27.5L519.57,27.5z"/>
<g>
	<path fill="#6CAB85" d="M536.39,23.02c1.53-1.95,2.24-3.68,2.6-4.91c0.37-1.24,0.74-2.59,1.87-3.89c0.43-0.49,1.07-0.94,1.7-0.73
		c0.51,0.17,0.72,0.79,0.77,0.96c0.5,1.49-0.77,3.21-1.51,4.19C540.96,19.77,539.31,21.58,536.39,23.02z"/>
</g>
<g>
	<path fill="#6CAB85" d="M533.79,24.09c5.3-0.63,8.94-2.02,11.34-3.21c1.45-0.72,3.52-1.91,4.68-1.09c0.74,0.52,1,1.77,0.59,2.61
		c-0.63,1.26-2.71,1.37-4.58,1.44C542.68,23.95,538.63,24.06,533.79,24.09z"/>
</g>
<path fill="#6CAB85" d="M544.49,19.44c0.5-1.29,1.59-3.46,3.89-4.92c0.98-0.62,2.92-1.85,4.49-1.04c0.68,0.35,1.47,1.18,1.35,1.98
	c-0.09,0.63-0.75,1.23-5.9,2.85C546.73,18.8,545.41,19.18,544.49,19.44z"/>
<path fill="#6CAB85" d="M607.01,43.9c5.3-3.79,10.89-7.2,16.84-9.87c4.39-1.97,8.99-3.53,13.71-4.46c3.39-0.67,6.79-0.9,10.24-0.95
	c4.53-0.06,9.04-0.33,13.53-1.01c6.6-1.01,13.05-2.87,19.16-5.56c0.58-0.25,1.15-0.52,1.72-0.78c0.44-0.21,0.06-0.86-0.38-0.66
	c-5.98,2.82-12.33,4.81-18.83,5.96c-4.71,0.84-9.48,1.2-14.26,1.28c-1.51,0.03-3.03,0.02-4.54,0.11c-1.86,0.11-3.71,0.33-5.55,0.64
	c-4.6,0.78-9.07,2.18-13.37,3.98c-5.8,2.43-11.27,5.57-16.46,9.12c-0.74,0.51-1.47,1.02-2.2,1.54
	C606.23,43.53,606.61,44.19,607.01,43.9L607.01,43.9z"/>
<g>
	<path fill="#6CAB85" d="M672.76,24.16c1.33-1.42,2.33-2.96,2.96-4.57l0.04-0.1c0.46-1.17,0.98-2.51,2.23-3.71
		c0.29-0.28,0.87-0.75,1.55-0.75c0.19,0,0.37,0.04,0.53,0.11c0.29,0.13,0.67,0.44,0.86,1.23c0.41,1.72-1.12,3.41-1.95,4.32
		c-1.55,1.71-3.54,3.05-5.9,3.97L672.76,24.16z"/>
</g>
<g>
	<path fill="#6CAB85" d="M683.76,26.35c-0.48,0-0.97-0.02-1.47-0.05c-3.91-0.19-7.95-0.46-12.01-0.78l0.01-0.61
		c4.26-0.14,8.12-0.88,11.47-2.2c0.13-0.05,0.27-0.11,0.41-0.17c1-0.4,2.25-0.91,3.28-0.91c0.56,0,1.02,0.15,1.37,0.44
		c0.8,0.68,1,2.09,0.42,3.04C686.58,26.21,685.03,26.35,683.76,26.35z"/>
</g>
<g>
	<path fill="#6CAB85" d="M756.18,13.9c4.23-0.53,8-1.63,11.21-3.25c0.13-0.06,0.26-0.13,0.4-0.2c1.05-0.54,2.37-1.22,3.46-1.22
		c0.44,0,0.82,0.11,1.13,0.33c0.86,0.6,1.19,1.99,0.71,2.99c-0.71,1.46-2.99,1.56-4.83,1.64c-3.91,0.17-7.96,0.28-12.03,0.33
		L756.18,13.9z"/>
</g>
<g>
	<path fill="#6CAB85" d="M655.94,27.54c0.58-2.73,1.48-5.29,2.67-7.63c0.7-1.38,1.59-2.91,3.32-3.72c0.74-0.34,1.4-0.52,1.97-0.52
		c0.52,0,0.95,0.14,1.29,0.42c0.81,0.67,0.75,1.86,0.68,2.33c-0.23,1.69-1.56,2.61-3.1,3.68c-0.45,0.31-0.92,0.64-1.39,1
		c-1.66,1.29-3.12,2.93-4.33,4.88L655.94,27.54z"/>
</g>
<g>
	<path fill="#6CAB85" d="M645.75,27.99c3.04-0.29,9.4-0.54,12.66,2.51c0.54,0.5,2.67,2.49,2.18,3.39c-0.06,0.12-0.21,0.3-0.66,0.4
		c-2.1,0.49-4.89-2.21-7.97-3.98C650.61,29.53,648.56,28.57,645.75,27.99z"/>
</g>
<g>
	<path fill="#6CAB85" d="M631.92,30.28c0.83-1.1,3.98-5.24,6.76-7.67c0.44-0.39,1.28-1.09,2.47-1.17c1.1-0.07,2.49,0.38,2.68,1.13
		c0.18,0.73-0.79,1.62-2.78,2.96C639.07,26.85,636.08,28.63,631.92,30.28z"/>
</g>
<g>
	<path fill="#6CAB85" d="M625.03,32.77c4.36,1.59,7.79,1.73,10.15,1.54c2.81-0.22,5.5-1,6.8,0.48c0.58,0.66,0.87,1.74,0.47,2.39
		c-0.67,1.07-3.06,0.66-5.03,0.33c-2.15-0.36-3.83-0.95-5.59-1.65C630.09,35.18,627.75,34.17,625.03,32.77z"/>
</g>
<g>
	<path fill="#6CAB85" d="M705.92,44.26c3.36-1.49,6.14-3.45,8.26-5.84c0.4-0.45,0.78-0.92,1.15-1.38c1.29-1.59,2.5-3.09,4.1-3.09
		c0.07,0,0.14,0,0.21,0.01c0.97,0.08,2.09,0.71,2.29,1.63c0.31,1.43-1.71,2.81-3.5,4.03c-1.75,1.19-3.36,1.95-5.23,2.72
		c-2.28,0.93-4.66,1.77-7.07,2.49L705.92,44.26z"/>
</g>
<g>
	<path fill="#6CAB85" d="M608.75,43.26c-0.1,0.32,2.15,1.19,6.65,2.93c0.83,0.32,3.63,1.38,6.25,0.94c1.04-0.18,1.42-0.47,1.52-0.79
		c0.19-0.59-0.57-1.29-0.63-1.34c-1.16-1.03-3.1-0.61-3.98-0.47C613.29,45.42,608.9,42.77,608.75,43.26z"/>
</g>
<path fill="#6CAB85" d="M681.48,20.68c0.74-1.51,2.14-3.58,4.57-4.84c0.79-0.41,2.11-1.1,3.46-1.1c0.64,0,1.22,0.16,1.71,0.47
	c0.73,0.46,1.72,1.58,1.44,2.75c-0.25,1.03-1.28,1.6-6.58,2.78c-1.3,0.29-2.63,0.56-3.94,0.8l-1.19,0.22L681.48,20.68z"/>
<path fill="#6CAB85" d="M432.41,37.18c1.6-5.02,2.87-10.18,3.77-15.41c0.24-1.38,0.45-2.77,0.64-4.16c0.07-0.53-0.66-0.76-0.73-0.22
	c-0.71,5.17-1.75,10.27-3.13,15.27c-0.4,1.44-0.83,2.88-1.28,4.3C431.51,37.47,432.25,37.69,432.41,37.18L432.41,37.18z"/>
<g>
	<path fill="#6CAB85" d="M433.66,31.27c-0.24,0.02,0.05-2.37-1.4-5.19c-0.77-1.5-1.65-2.38-2.11-4.42
		c-0.37-1.68-0.01-2.07,0.12-2.19c0.54-0.46,1.76-0.16,2.48,0.49c0.94,0.85,0.89,2.11,0.89,4.75
		C433.66,29.37,433.88,31.25,433.66,31.27z"/>
</g>
<g>
	<path fill="#6CAB85" d="M433.66,31.27c2.87-1.47,4.81-3.16,6-4.37c1.67-1.69,3.3-3.39,2.9-5.19c-0.15-0.7-0.68-1.65-1.34-1.69
		c-1.23-0.07-1.61,3.4-4.14,7.26C435.88,29.11,434.6,30.42,433.66,31.27z"/>
</g>
<path fill="#6CAB85" d="M432.03,15.38"/>
<path fill="#6CAB85" d="M436.28,19.79c0.03-1.67-0.1-3-0.21-3.9c-0.27-2.16-0.62-2.93-0.28-4.22c0.1-0.38,0.63-2.37,2.04-2.65
	c1.4-0.28,3.06,1.26,3.14,2.64c0.07,1.13-0.95,1.72-2.23,3.4C437.5,16.68,436.75,18.34,436.28,19.79z"/>
<path fill="#6CAB85" d="M549.71,30.23c3.54,4.61,7.4,8.97,11.58,13c4.14,3.98,8.62,7.62,13.15,11.15c2.42,1.88,4.87,3.71,7.37,5.49
	c0.4,0.28,0.78-0.37,0.38-0.66c-4.52-3.22-8.91-6.62-13.19-10.15c-4.17-3.45-8.14-7.11-11.81-11.08c-2.4-2.6-4.68-5.31-6.84-8.12
	C550.07,29.46,549.41,29.84,549.71,30.23L549.71,30.23z"/>
<g>
	<path fill="#6CAB85" d="M559.17,40.54c0.14-0.2,1.8,1.56,4.92,2.25c1.65,0.37,2.9,0.26,4.78,1.22c1.54,0.79,1.61,1.32,1.61,1.49
		c0.01,0.71-1,1.45-1.96,1.58c-1.26,0.17-2.2-0.67-4.25-2.35C560.64,41.76,559.04,40.72,559.17,40.54z"/>
</g>
<g>
	<path fill="#6CAB85" d="M557.85,38.73c-0.69,3.14-0.63,5.69-0.45,7.37c0.24,2.36,0.52,4.69,2.17,5.54
		c0.64,0.33,1.72,0.54,2.17,0.06c0.84-0.89-1.61-3.4-2.98-7.81C558.11,41.81,557.91,39.99,557.85,38.73z"/>
</g>
<path fill="#6CAB85" d="M587.36,58.24"/>
<path fill="#6CAB85" d="M578.92,57.26c1.52,0.91,2.72,1.61,3.45,2.03c2.19,1.27,2.83,1.62,3.45,2.48c0.23,0.32,1.43,2,0.75,3.25
	c-0.68,1.25-2.93,1.53-4.05,0.71c-0.94-0.69-0.67-1.89-1.21-3.88C580.75,59.76,579.71,58.22,578.92,57.26z"/>
<path fill="#6CAB85" d="M733.94,35.51c3.52-5.73,7.86-11.03,13.18-15.19c3.98-3.1,8.56-5.39,13.12-7.51
	c3.73-1.74,7.57-3.26,11.47-4.56c0.46-0.15,0.26-0.89-0.2-0.73c-6.14,2.05-12.1,4.65-17.8,7.71c-2.23,1.2-4.4,2.5-6.43,4.03
	c-2.21,1.66-4.27,3.53-6.17,5.54c-2.97,3.15-5.56,6.64-7.82,10.33C733.03,35.55,733.68,35.93,733.94,35.51L733.94,35.51z"/>
<g>
	<path fill="#6CAB85" d="M742.6,24.24c-0.2,0-0.31-0.12-0.35-0.23c-0.14-0.39,0.07-0.47,2.03-1.29c0.99-0.41,2.35-0.98,4.16-1.79
		l0.4-0.18c1.65-0.74,2.64-1.18,3.56-1.18c0.35,0,0.68,0.07,1.01,0.21c0.99,0.42,1.9,1.52,1.64,2.41c-0.16,0.55-0.88,0.95-2.19,1.23
		c-0.63,0.13-1.22,0.19-1.82,0.19c-0.64,0-1.22-0.07-1.78-0.14c-0.44-0.05-0.9-0.11-1.4-0.13c-0.18-0.01-0.35-0.01-0.52-0.01
		c-1.88,0-3.31,0.48-4.08,0.74C742.93,24.18,742.74,24.24,742.6,24.24L742.6,24.24z"/>
</g>
<g>
	<path fill="#6CAB85" d="M737.63,28.31c0.14-2.57,0.66-5.03,1.55-7.32c0.83-2.12,1.77-4.53,3.79-4.95c0.22-0.05,0.47-0.07,0.71-0.07
		c0.4,0,1.37,0.07,1.72,0.74c0.41,0.78-0.4,1.63-1.62,2.93c-0.99,1.05-2.22,2.35-3.35,4.12c-0.92,1.44-1.67,3.01-2.22,4.67
		L737.63,28.31z"/>
</g>
<path fill="#6CAB85" d="M764.08,10.38c1.34-1.21,2.44-2.59,3.26-4.09c0.31-0.57,0.54-1.07,0.73-1.51c0.45-1,0.78-1.73,1.63-2.05
	c0.28-0.11,0.6-0.16,0.94-0.16c1.29,0,2.88,0.81,3.18,2.13c0.24,1.02-0.36,2.17-1.69,3.24c-0.79,0.64-1.5,0.83-2.56,1.11
	c-0.44,0.12-0.93,0.25-1.53,0.43c-1.21,0.38-2.43,0.85-3.62,1.4L764.08,10.38z"/>
<path fill="#6CAB85" d="M730.29,70.14c-0.44,0-0.86-0.09-1.2-0.25c-0.82-0.4-1.08-1.14-1.45-2.18c-0.16-0.46-0.34-0.97-0.6-1.57
	c-0.69-1.56-1.66-3.03-2.9-4.35l0.37-0.47c1.14,0.65,2.31,1.23,3.49,1.71c0.58,0.24,1.06,0.41,1.49,0.56
	c1.04,0.37,1.72,0.62,2.46,1.32c1.23,1.18,1.74,2.38,1.41,3.37C732.96,69.49,731.48,70.14,730.29,70.14z"/>
<path fill="#6CAB85" d="M377.2,55.94c4.44,3.19,9.18,5.94,14.15,8.22c0.44,0.2,0.83-0.45,0.38-0.66c-4.97-2.28-9.71-5.04-14.15-8.22
	C377.18,55,376.8,55.65,377.2,55.94L377.2,55.94z"/>
<g>
	<path fill="#6CAB85" d="M381.31,58.26c0.04-0.22,2.04,0.63,4.85,0.06c1.49-0.31,2.47-0.86,4.36-0.76c1.55,0.09,1.8,0.5,1.86,0.65
		c0.26,0.59-0.3,1.58-1.04,2.05c-0.97,0.61-2.05,0.26-4.33-0.39C382.95,58.73,381.27,58.45,381.31,58.26z"/>
</g>
<g>
	<path fill="#6CAB85" d="M381.31,58.26c0.56,2.88,1.53,4.99,2.28,6.34c1.05,1.88,2.11,3.73,3.77,3.83c0.65,0.04,1.6-0.19,1.8-0.76
		c0.37-1.06-2.54-2.25-5.25-5.42C382.63,60.74,381.81,59.3,381.31,58.26z"/>
</g>
<path fill="#6CAB85" d="M395.48,60.76"/>
<path fill="#6CAB85" d="M390.59,63.39c1.44,0.43,2.63,0.66,3.43,0.78c1.94,0.3,2.7,0.18,3.73,0.8c0.3,0.18,1.89,1.14,1.78,2.44
	c-0.11,1.29-1.85,2.37-3.07,2.1c-1-0.22-1.25-1.25-2.39-2.8C392.98,65.23,391.73,64.16,390.59,63.39z"/>
<path fill="#6CAB85" d="M662.23,41.55c4.44,0.7,8.86,1.54,13.24,2.53c4.9,1.1,9.75,2.38,14.55,3.84s9.55,3.09,14.23,4.9
	c4.27,1.65,8.48,3.44,12.62,5.37c3.7,1.72,7.35,3.56,10.94,5.5c0.41,0.22,0.83,0.45,1.24,0.68c0.43,0.24,0.81-0.42,0.38-0.66
	c-3.54-1.95-7.14-3.79-10.79-5.52c-4.08-1.94-8.22-3.74-12.42-5.41c-4.6-1.83-9.27-3.49-14-4.97c-4.87-1.53-9.79-2.88-14.76-4.05
	c-4.46-1.05-8.96-1.94-13.49-2.69c-0.52-0.09-1.04-0.17-1.56-0.25C661.95,40.74,661.74,41.47,662.23,41.55L662.23,41.55z"/>
<g>
	<path fill="#6CAB85" d="M721.54,66.27c-0.7,0-1.29-0.51-1.58-0.82c-1.19-1.26-1.66-2.61-2.07-3.81l-0.04-0.11
		c-0.56-1.63-1.49-3.21-2.76-4.69l0.35-0.48c2.32,1.02,4.25,2.44,5.72,4.22c0.78,0.94,2.24,2.7,1.76,4.4
		c-0.22,0.78-0.62,1.08-0.91,1.19C721.86,66.24,721.7,66.27,721.54,66.27L721.54,66.27z"/>
</g>
<g>
	<path fill="#6CAB85" d="M719.35,56.72c-1.06,0-2.34-0.58-3.37-1.05c-0.14-0.06-0.28-0.12-0.41-0.18
		c-3.29-1.46-7.12-2.37-11.37-2.69l0.01-0.61c4.07-0.15,8.12-0.25,12.04-0.27h0.45c1.78,0,3.74,0.11,4.45,1.4
		c0.53,0.97,0.27,2.38-0.55,3.02C720.27,56.59,719.85,56.72,719.35,56.72L719.35,56.72z"/>
</g>
<g>
	<path fill="#6CAB85" d="M750.08,16.95c1.47-1.73,2.62-3.59,3.42-5.55c0.39-0.95,0.71-1.95,1.01-2.92c0.78-2.44,1.45-4.55,2.96-5.24
		c0.24-0.11,0.45-0.16,0.65-0.16c0.13,0,0.26,0.03,0.37,0.07c0.78,0.34,0.96,1.76,0.56,4.33c-0.65,4.13-5.02,7.67-8.57,9.92
		L750.08,16.95z"/>
</g>
<g>
	<path fill="#6CAB85" d="M699.16,56.86c-0.15,0-0.3-0.01-0.44-0.02c-1.33-0.14-2.22-0.99-2.6-1.35c-2.53-2.4-5.36-6.4-6.46-8
		l-0.61-0.89l0.99,0.44c3.29,1.47,6.31,3.21,8.97,5.16c1.96,1.44,3.04,2.45,2.77,3.4C701.53,56.43,700.28,56.86,699.16,56.86
		L699.16,56.86z"/>
</g>
<g>
	<path fill="#6CAB85" d="M677.81,43.98c2.28-1.06,4.62-2,6.95-2.81c1.91-0.66,3.61-1.16,5.72-1.43c0.89-0.11,1.9-0.24,2.78-0.24
		c1.36,0,2.17,0.3,2.53,0.93c0.47,0.82,0.05,2.03-0.62,2.73c-0.57,0.6-1.36,0.88-2.48,0.88c-0.85,0-1.8-0.16-2.81-0.32
		c-0.58-0.1-1.18-0.2-1.78-0.27c-0.82-0.1-1.65-0.15-2.49-0.15c-2.43,0-4.98,0.42-7.59,1.25L677.81,43.98z"/>
</g>
<path fill="#6CAB85" d="M694.14,48.89c3.97-1.86,8.14-3.3,12.44-4.19c1.94-0.4,3.89-0.66,5.86-0.86c1.94-0.21,3.85-0.49,5.73-1.02
	c1.45-0.4,2.87-0.91,4.21-1.59c1.3-0.65,2.55-1.4,3.84-2.06c2.43-1.26,4.95-2.42,7.48-3.48c3.55-1.49,7.23-2.64,10.95-3.59
	c0.64-0.16,1.27-0.32,1.91-0.47c0.48-0.11,0.27-0.85-0.2-0.73c-4.04,0.95-8.04,2.11-11.9,3.66c-2.42,0.97-4.79,2.08-7.14,3.21
	c-2.71,1.31-5.25,3.02-8.13,3.95c-1.88,0.61-3.81,1.02-5.77,1.25c-2.01,0.23-4.03,0.43-6.02,0.8c-4.07,0.75-8.02,2.01-11.82,3.64
	c-0.61,0.26-1.22,0.54-1.82,0.82C693.31,48.45,693.7,49.1,694.14,48.89L694.14,48.89z"/>
<g>
	<path fill="#6CAB85" d="M720.32,41.49c1.36-2.57,3-4.93,4.87-7.02c2.88-3.23,4.93-4.87,6.07-4.87c0.2,0,0.37,0.04,0.52,0.13
		c0.79,0.46,0.61,1.93,0.53,2.37c-0.18,1.04-0.78,2.01-3.3,3.91c-1.12,0.85-1.9,1.32-2.72,1.83c-0.51,0.31-1.03,0.63-1.67,1.06
		c-1.33,0.89-2.62,1.89-3.83,2.95L720.32,41.49z"/>
</g>
<path fill="#6CAB85" d="M729.2,37.7c4.58-0.23,9.14-0.65,13.7-1.1c4.04-0.39,8.09-0.84,12.05-1.75c3.37-0.77,6.66-1.9,9.68-3.61
	c2.2-1.25,4.08-2.84,6.03-4.43c3.39-2.76,6.94-5.32,10.54-7.79c0.34-0.23,0.68-0.46,1.01-0.69c0.4-0.27,0.02-0.93-0.38-0.66
	c-3.61,2.44-7.16,4.98-10.57,7.69c-1.92,1.52-3.73,3.19-5.8,4.5c-2.89,1.82-6.07,3.08-9.37,3.93c-3.8,0.98-7.71,1.48-11.61,1.89
	c-4.69,0.49-9.4,0.92-14.11,1.19c-0.39,0.02-0.79,0.04-1.18,0.06C728.72,36.96,728.71,37.72,729.2,37.7L729.2,37.7z"/>
<g>
	<path fill="#6CAB85" d="M782.5,18.44c-0.27,0-0.63,0-0.75-0.34c-0.39-1.11,3.51-2.86,6.86-4.13c0.27-0.1,0.99-0.38,1.87-0.38
		c0.34,0,0.67,0.04,0.99,0.12c0.61,0.16,1.16,0.48,1.54,0.91c0.17,0.19,0.51,0.57,0.47,1.09c-0.03,0.41-0.28,0.69-0.36,0.78
		c-1.22,1.35-5.29,1.61-5.46,1.63c-1.2,0.07-2.14,0.14-2.88,0.19C783.55,18.4,782.87,18.44,782.5,18.44z"/>
</g>
<g>
	<path fill="#6CAB85" d="M753.18,42.24c-1.6,0-3.02-0.5-3.08-0.53c-1.78-0.64-4.2-1.45-7.27-2.48c-1.76-0.59-3.71-1.24-5.84-1.96
		l0.11-0.59c5.98,0.24,16.29,0.89,18.06,2.44c0.38,0.33,1.25,1.1,1.03,1.9c-0.1,0.35-0.4,0.63-0.91,0.84
		C754.68,42.12,753.98,42.24,753.18,42.24L753.18,42.24z"/>
</g>
<g>
	<path fill="#6CAB85" d="M772.08,34.25c-3.13,0-6.26-0.65-9.31-1.92l-1-0.42l1.07-0.16c4.01-0.61,7.84-1.67,11.38-3.17
		c1.12-0.47,2.1-0.93,2.96-1.34c1.59-0.75,2.74-1.3,3.55-1.3c0.35,0,0.64,0.1,0.86,0.31c0.29,0.27,0.45,0.71,0.46,1.27
		c0.02,1.45-0.91,3.42-2.2,4.67c-2.02,1.95-4.7,2.01-7.3,2.06C772.41,34.24,772.25,34.25,772.08,34.25z"/>
</g>
<g>
	<path fill="#6CAB85" d="M763.56,31.5c0.09-0.21,0.24-0.56,0.42-1c2.59-6.03,4.3-10.01,7.83-12.3c0.83-0.54,2.51-1.45,3.52-1.45
		c0.32,0,0.57,0.09,0.74,0.26c0.36,0.38,0.21,0.98,0.15,1.21c-0.57,2.26-7.87,9.5-12.18,13.61L763.56,31.5z"/>
</g>
<g>
	<path fill="#6CAB85" d="M732.62,45.54c-2.46,0-5.02-0.34-5.31-0.38c-3.07-0.42-6.09-1.27-8.97-2.53l0.2-0.57
		c1.89,0.51,3.75,0.77,5.52,0.77c1.01,0,2.02-0.08,3-0.25c1.23-0.21,2.36-0.54,3.35-0.83c1.28-0.38,2.39-0.7,3.42-0.7
		c0.77,0,1.42,0.19,2.01,0.57c0.73,0.47,1.77,1.58,1.47,2.53C737.01,45.08,735.47,45.54,732.62,45.54z"/>
</g>
<path fill="#6CAB85" d="M747.78,31.9c-0.43,0-0.87,0-1.33-0.01l-2-0.04l1.68-1.08c1.94-1.24,3.99-2.32,6.09-3.2
	c2.06-0.87,4.01-1.69,5.39-1.69c0.66,0,1.18,0.19,1.53,0.56c0.75,0.79,0.61,2.25,0.03,3.21c-0.71,1.17-2.16,1.66-5.99,2.01
	C751.41,31.81,749.59,31.9,747.78,31.9L747.78,31.9z"/>
<path fill="#6CAB85" d="M670.01,42.58c3.87,3.8,7.37,7.96,10.45,12.42c0.28,0.4,0.94,0.02,0.66-0.38
	c-3.11-4.52-6.65-8.73-10.56-12.58C670.19,41.7,669.66,42.24,670.01,42.58L670.01,42.58z"/>
<g>
	<path fill="#6CAB85" d="M675.52,56.89c-0.09,0-0.18-0.01-0.26-0.03c-0.52-0.13-0.91-0.77-1.17-1.94c-0.3-1.33-0.2-2.25-0.09-3.22
		c0.05-0.4,0.09-0.81,0.11-1.25c0.07-1.9-0.44-3.31-0.71-4.06c-0.17-0.48-0.3-0.82,0.05-0.95l0.05-0.02h0.07
		c0.31,0,0.4,0.21,1.12,1.82c0.39,0.87,0.92,2.07,1.68,3.67l0.17,0.35c0.94,1.97,1.42,2.96,0.94,4.08
		C677.16,56.08,676.32,56.89,675.52,56.89L675.52,56.89z"/>
</g>
<g>
	<path fill="#6CAB85" d="M683.91,52.22c-0.62,0-1.29-0.59-2.31-1.48c-0.97-0.85-2.19-1.91-3.82-2.88c-1.33-0.79-2.79-1.41-4.31-1.85
		l0.09-0.6c2.37,0.06,4.64,0.46,6.76,1.2c1.97,0.69,4.2,1.47,4.62,3.28c0.15,0.65,0.12,1.83-0.61,2.22
		C684.21,52.18,684.07,52.22,683.91,52.22z"/>
</g>
<path fill="#6CAB85" d="M678.37,59.17"/>
<path fill="#6CAB85" d="M685.26,62.4c-0.82,0-1.72-0.53-2.56-1.5c-0.6-0.7-0.78-1.32-1.05-2.27c-0.11-0.39-0.24-0.82-0.41-1.35
	c-0.36-1.07-0.8-2.14-1.33-3.19l0.49-0.35c1.12,1.16,2.4,2.1,3.79,2.8c0.53,0.26,0.99,0.45,1.4,0.62c0.93,0.38,1.61,0.65,1.92,1.42
	c0.27,0.67,0.19,1.57-0.21,2.37c-0.37,0.73-0.94,1.24-1.58,1.4C685.57,62.38,685.42,62.4,685.26,62.4L685.26,62.4z"/>
<path fill="#6CAB85" stroke="#245650" stroke-width="4" stroke-miterlimit="10" d="M438.55,17.93"/>
<circle fill="#AD4A4A" cx="354.92" cy="43.69" r="4.31"/>
<circle fill="#AD4A4A" cx="76.5" cy="42.27" r="5.51"/>
<circle fill="#AD4A4A" cx="312.23" cy="16.37" r="5.51"/>
<circle fill="#AD4A4A" cx="352.96" cy="31.4" r="5.51"/>
<circle fill="#AD4A4A" cx="75.44" cy="30.56" r="4.87"/>
<circle fill="#AD4A4A" cx="632.88" cy="55.95" r="4.31"/>
<circle fill="#AD4A4A" cx="642.8" cy="60.21" r="5.51"/>
<circle fill="#AD4A4A" cx="641.74" cy="48.5" r="4.87"/>
<circle fill="#AD4A4A" cx="665.28" cy="12.85" r="4.87"/>
<circle fill="#AD4A4A" cx="724.94" cy="23.77" r="4.31"/>
<circle fill="#AD4A4A" cx="720.67" cy="33.68" r="5.51"/>
<circle fill="#AD4A4A" cx="732.38" cy="32.62" r="4.87"/>
<circle fill="#AD4A4A" cx="652.04" cy="20.45" r="5.51"/>
<circle fill="#AD4A4A" cx="663.75" cy="19.39" r="4.87"/>
<circle fill="#AD4A4A" cx="56.87" cy="12.53" r="4.7"/>
<circle fill="#AD4A4A" cx="303.32" cy="23.52" r="3.69"/>
<ellipse fill="#AD4A4A" cx="65.87" cy="10.94" rx="4.11" ry="3.69"/>
<circle fill="#AD4A4A" cx="180.33" cy="36.43" r="5.51"/>
<circle fill="#AD4A4A" cx="170.29" cy="30.23" r="4.87"/>
<ellipse fill="#AD4A4A" cx="222.78" cy="19.53" rx="4.11" ry="3.69"/>
<circle fill="#AD4A4A" cx="67.22" cy="48.6" r="3.76"/>
<circle fill="#AD4A4A" cx="486.95" cy="17.25" r="4.31"/>
<circle fill="#AD4A4A" cx="496.87" cy="21.52" r="5.51"/>
<circle fill="#AD4A4A" cx="487.59" cy="27.85" r="3.76"/>
<circle fill="#AD4A4A" cx="231" cy="14.83" r="4.31"/>
<circle fill="#AD4A4A" cx="302.3" cy="12.73" r="4.31"/>
<circle fill="#AD4A4A" cx="62.93" cy="20.64" r="4.31"/>
<circle fill="#AD4A4A" cx="231.63" cy="25.43" r="3.76"/>
<ellipse fill="#AD4A4A" cx="417.84" cy="48.79" rx="4.11" ry="3.69"/>
<ellipse fill="#AD4A4A" cx="362.43" cy="37.93" rx="4.11" ry="3.69"/>
<circle fill="#AD4A4A" cx="426.05" cy="44.08" r="4.31"/>
<circle fill="#AD4A4A" cx="426.69" cy="54.69" r="3.76"/>
<ellipse fill="#AD4A4A" cx="558.06" cy="22.11" rx="4.11" ry="3.69"/>
<ellipse fill="#AD4A4A" cx="507.59" cy="25.56" rx="4.11" ry="3.69"/>
<ellipse fill="#AD4A4A" cx="575.46" cy="18.91" rx="4.11" ry="3.69"/>
<circle fill="#AD4A4A" cx="566.28" cy="17.41" r="4.31"/>
<circle fill="#AD4A4A" cx="566.91" cy="28.01" r="3.76"/>
<circle fill="#AD4A4A" cx="656.82" cy="27.75" r="3.76"/>
<g>
	<path fill="#6CAB85" d="M749.44,70.82c1.16,0.61,5.54,2.94,8.25,5.18c0.43,0.36,1.22,1.04,1.48,2.15c0.23,1.02,0.03,2.41-0.66,2.69
		c-0.66,0.28-1.65-0.49-3.21-2.16C753.75,77.03,751.63,74.48,749.44,70.82z"/>
</g>
<g>
	<path fill="#6CAB85" d="M747.35,61.44c-0.83,4.35-0.44,7.6,0.09,9.79c0.63,2.61,1.78,5.02,0.58,6.47
		c-0.54,0.65-1.51,1.09-2.18,0.81c-1.1-0.47-1.09-2.77-1.08-4.68c0.02-2.08,0.31-3.75,0.7-5.52
		C745.85,66.57,746.44,64.22,747.35,61.44z"/>
</g>
<g>
	<path fill="#6CAB85" d="M745.22,54.31c1.98,1.9,3.33,3.72,4.21,5.08c0.42,0.65,1.96,3.08,2.03,5.67c0.03,1.01-0.18,1.41-0.46,1.56
		c-0.52,0.29-1.31-0.3-1.37-0.34c-1.21-0.91-1.16-2.92-1.17-3.64C748.44,60.78,747.83,58.05,745.22,54.31z"/>
</g>
<path fill="#6CAB85" d="M754.99,88.5"/>
<path fill="#6CAB85" d="M739.39,27.19c3.06,6.72,7.18,12.96,12.26,18.32c1.63,1.72,3.35,3.35,5.16,4.88
	c0.35,0.3,0.87-0.21,0.51-0.51c-6.03-5.11-11.06-11.3-14.88-18.22c-0.87-1.58-1.68-3.2-2.43-4.84
	C739.82,26.4,739.2,26.77,739.39,27.19L739.39,27.19z"/>
<path fill="#6CAB85" d="M746.7,39.58c5.96,3.57,11.46,7.79,16.7,12.34c2.49,2.17,4.86,4.47,6.86,7.11c1.6,2.11,3,4.37,4.17,6.74
	c1.71,3.46,2.94,7.14,3.73,10.91c0.1,0.46,0.8,0.26,0.7-0.19c-1.26-5.99-3.64-11.76-7.19-16.76c-1.96-2.76-4.28-5.22-6.8-7.47
	c-2.8-2.51-5.71-4.91-8.71-7.17c-2.92-2.2-5.95-4.24-9.09-6.12C746.66,38.71,746.3,39.34,746.7,39.58L746.7,39.58z"/>
<g>
	<path fill="#6CAB85" d="M778.14,75.5c0.55,4.89,1.71,8.26,2.52,10.19c0.65,1.57,1.51,3.23,3.24,3.94c0.29,0.12,1.52,0.62,1.97,0.15
		c0.61-0.65-0.77-2.94-3.56-7.48C781.53,81.02,779.1,77.06,778.14,75.5z"/>
</g>
<g>
	<path fill="#6CAB85" d="M770.75,58.82c-2.67,2.38-4.11,4.8-4.89,6.41c-0.93,1.92-1.91,4.04-1.04,5.89
		c0.53,1.12,1.73,2.13,2.44,1.87c0.82-0.3,0.77-2.22,0.79-3.31C768.11,67.19,768.63,63.58,770.75,58.82z"/>
</g>
<g>
	<path fill="#6CAB85" d="M776.09,68.05c0.57,0.39,1.13,0.81,1.66,1.23c2.21,1.58,4.43,2.88,6.58,3.87c0.12,0.06,3,1.4,5.2,3.86
		c0.61,0.68,1,1.44,1.17,2.25c0.04,0.21,0.12,0.59,0.12,1.01c0,0.6-0.16,1.09-0.48,1.44c-0.72,0.8-2.01,0.66-2.53,0.56
		c-1.94-0.37-2.91-2.27-4.05-4.48c-0.39-0.76-0.79-1.54-1.26-2.32c-1.28-2.12-3-4.05-5.1-5.74c-0.54-0.39-1.1-0.8-1.65-1.22
		L776.09,68.05z"/>
</g>
<g>
	<path fill="#6CAB85" d="M757.76,47.07c4.58,0.76,7.96,2.29,10.06,3.45c0,0,4.32,2.39,6.25,6.08c0.14,0.28,0.54,1.04,0.28,1.32
		c-0.34,0.37-0.95,0.09-1.35-0.2c-1.79-1.31-3.3-2.46-4.73-3.94c0,0-0.87-0.9-2.7-2.52C764.05,49.92,761.63,48.25,757.76,47.07z"/>
</g>
<path fill="#6CAB85" d="M755.29,48.27c1.65,2.54,2.47,4.79,2.92,6.42c0.79,2.87,0.71,4.91,1.95,5.38c0.92,0.35,2.23-0.28,2.69-1.19
	c0.54-1.08-0.26-2.42-1.11-3.84c-0.46-0.77-1.09-1.64-3.14-3.69C757.8,50.56,756.69,49.49,755.29,48.27z"/>
<path fill="#6CAB85" d="M742.61,43.54c-3.04,4.24-5.66,8.76-7.84,13.5c-0.19,0.42,0.43,0.79,0.63,0.37c2.18-4.74,4.8-9.26,7.84-13.5
	C743.51,43.52,742.88,43.16,742.61,43.54L742.61,43.54z"/>
<g>
	<path fill="#6CAB85" d="M740.39,47.46c0.21,0.04-0.6,1.94-0.05,4.62c0.29,1.42,0.82,2.36,0.72,4.16c-0.08,1.48-0.48,1.71-0.62,1.78
		c-0.56,0.25-1.51-0.29-1.96-0.99c-0.58-0.92-0.24-1.95,0.37-4.13C739.94,49.03,740.21,47.42,740.39,47.46z"/>
</g>
<g>
	<path fill="#6CAB85" d="M740.39,47.46c-2.75,0.53-4.76,1.46-6.04,2.17c-1.8,1-3.56,2.01-3.65,3.59c-0.04,0.62,0.18,1.53,0.72,1.72
		c1.01,0.35,2.14-2.43,5.17-5.01C738.02,48.72,739.41,47.94,740.39,47.46z"/>
</g>
<path fill="#6CAB85" d="M738.01,60.97"/>
<path fill="#6CAB85" d="M735.79,55.44c-0.41,1.37-0.63,2.5-0.75,3.27c-0.28,1.85-0.17,2.57-0.76,3.56c-0.17,0.29-1.08,1.81-2.33,1.7
	c-1.23-0.11-2.26-1.77-2-2.93c0.21-0.95,1.2-1.19,2.67-2.28C734.04,57.72,735.05,56.53,735.79,55.44z"/>
<circle fill="#AD4A4A" cx="782.25" cy="80.88" r="4.48"/>
<circle fill="#AD4A4A" cx="774.52" cy="86.66" r="4.11"/>
</svg>
